%TF.GenerationSoftware,KiCad,Pcbnew,(6.0.0)*%
%TF.CreationDate,2022-01-07T23:51:12+01:00*%
%TF.ProjectId,50Hz_Monitor,3530487a-5f4d-46f6-9e69-746f722e6b69,rev?*%
%TF.SameCoordinates,Original*%
%TF.FileFunction,Copper,L1,Top*%
%TF.FilePolarity,Positive*%
%FSLAX46Y46*%
G04 Gerber Fmt 4.6, Leading zero omitted, Abs format (unit mm)*
G04 Created by KiCad (PCBNEW (6.0.0)) date 2022-01-07 23:51:12*
%MOMM*%
%LPD*%
G01*
G04 APERTURE LIST*
G04 Aperture macros list*
%AMRoundRect*
0 Rectangle with rounded corners*
0 $1 Rounding radius*
0 $2 $3 $4 $5 $6 $7 $8 $9 X,Y pos of 4 corners*
0 Add a 4 corners polygon primitive as box body*
4,1,4,$2,$3,$4,$5,$6,$7,$8,$9,$2,$3,0*
0 Add four circle primitives for the rounded corners*
1,1,$1+$1,$2,$3*
1,1,$1+$1,$4,$5*
1,1,$1+$1,$6,$7*
1,1,$1+$1,$8,$9*
0 Add four rect primitives between the rounded corners*
20,1,$1+$1,$2,$3,$4,$5,0*
20,1,$1+$1,$4,$5,$6,$7,0*
20,1,$1+$1,$6,$7,$8,$9,0*
20,1,$1+$1,$8,$9,$2,$3,0*%
G04 Aperture macros list end*
%TA.AperFunction,ComponentPad*%
%ADD10O,2.100000X1.900000*%
%TD*%
%TA.AperFunction,ComponentPad*%
%ADD11R,2.100000X1.900000*%
%TD*%
%TA.AperFunction,SMDPad,CuDef*%
%ADD12RoundRect,0.250000X0.412500X0.650000X-0.412500X0.650000X-0.412500X-0.650000X0.412500X-0.650000X0*%
%TD*%
%TA.AperFunction,ComponentPad*%
%ADD13R,1.600000X1.600000*%
%TD*%
%TA.AperFunction,ComponentPad*%
%ADD14C,1.600000*%
%TD*%
%TA.AperFunction,SMDPad,CuDef*%
%ADD15RoundRect,0.250000X-0.412500X-0.650000X0.412500X-0.650000X0.412500X0.650000X-0.412500X0.650000X0*%
%TD*%
%TA.AperFunction,SMDPad,CuDef*%
%ADD16RoundRect,0.250000X0.650000X-0.412500X0.650000X0.412500X-0.650000X0.412500X-0.650000X-0.412500X0*%
%TD*%
%TA.AperFunction,SMDPad,CuDef*%
%ADD17R,1.800000X3.500000*%
%TD*%
%TA.AperFunction,ComponentPad*%
%ADD18R,3.500000X3.500000*%
%TD*%
%TA.AperFunction,ComponentPad*%
%ADD19RoundRect,0.750000X-0.750000X-1.000000X0.750000X-1.000000X0.750000X1.000000X-0.750000X1.000000X0*%
%TD*%
%TA.AperFunction,ComponentPad*%
%ADD20RoundRect,0.875000X-0.875000X-0.875000X0.875000X-0.875000X0.875000X0.875000X-0.875000X0.875000X0*%
%TD*%
%TA.AperFunction,ComponentPad*%
%ADD21R,1.700000X1.700000*%
%TD*%
%TA.AperFunction,ComponentPad*%
%ADD22O,1.700000X1.700000*%
%TD*%
%TA.AperFunction,SMDPad,CuDef*%
%ADD23RoundRect,0.250000X-0.400000X-0.625000X0.400000X-0.625000X0.400000X0.625000X-0.400000X0.625000X0*%
%TD*%
%TA.AperFunction,SMDPad,CuDef*%
%ADD24RoundRect,0.250000X0.400000X0.625000X-0.400000X0.625000X-0.400000X-0.625000X0.400000X-0.625000X0*%
%TD*%
%TA.AperFunction,ComponentPad*%
%ADD25O,1.600000X1.600000*%
%TD*%
%TA.AperFunction,SMDPad,CuDef*%
%ADD26R,1.500000X2.000000*%
%TD*%
%TA.AperFunction,SMDPad,CuDef*%
%ADD27R,3.800000X2.000000*%
%TD*%
%TA.AperFunction,SMDPad,CuDef*%
%ADD28R,0.650000X1.060000*%
%TD*%
%TA.AperFunction,SMDPad,CuDef*%
%ADD29RoundRect,0.250000X-0.650000X0.412500X-0.650000X-0.412500X0.650000X-0.412500X0.650000X0.412500X0*%
%TD*%
%TA.AperFunction,ViaPad*%
%ADD30C,0.812800*%
%TD*%
%TA.AperFunction,Conductor*%
%ADD31C,0.635000*%
%TD*%
%TA.AperFunction,Conductor*%
%ADD32C,1.270000*%
%TD*%
%TA.AperFunction,Conductor*%
%ADD33C,1.016000*%
%TD*%
%TA.AperFunction,Conductor*%
%ADD34C,0.381000*%
%TD*%
%TA.AperFunction,Conductor*%
%ADD35C,0.508000*%
%TD*%
G04 APERTURE END LIST*
D10*
%TO.P,A1,20,TX*%
%TO.N,Net-(A1-Pad20)*%
X130048000Y-88900000D03*
%TO.P,A1,19,RX*%
%TO.N,Net-(A1-Pad19)*%
X130048000Y-91440000D03*
%TO.P,A1,18,5*%
%TO.N,Net-(A1-Pad18)*%
X130048000Y-93980000D03*
%TO.P,A1,17,4*%
%TO.N,unconnected-(A1-Pad17)*%
X130048000Y-96520000D03*
%TO.P,A1,16,0*%
%TO.N,unconnected-(A1-Pad16)*%
X130048000Y-99060000D03*
%TO.P,A1,15,2*%
%TO.N,unconnected-(A1-Pad15)*%
X130048000Y-101600000D03*
%TO.P,A1,14,15*%
%TO.N,unconnected-(A1-Pad14)*%
X130048000Y-104140000D03*
%TO.P,A1,13,3V*%
%TO.N,+3V3*%
X130048000Y-106680000D03*
%TO.P,A1,12,LDO*%
%TO.N,unconnected-(A1-Pad12)*%
X130048000Y-109220000D03*
%TO.P,A1,11,GND*%
%TO.N,GND*%
X130048000Y-111760000D03*
%TO.P,A1,10,GND*%
X109728000Y-111760000D03*
%TO.P,A1,9,VBat*%
%TO.N,unconnected-(A1-Pad9)*%
X109728000Y-109220000D03*
%TO.P,A1,8,V+*%
%TO.N,+5V*%
X109728000Y-106680000D03*
%TO.P,A1,7,13*%
%TO.N,unconnected-(A1-Pad7)*%
X109728000Y-104140000D03*
%TO.P,A1,6,12*%
%TO.N,Net-(A1-Pad6)*%
X109728000Y-101600000D03*
%TO.P,A1,5,14*%
%TO.N,unconnected-(A1-Pad5)*%
X109728000Y-99060000D03*
%TO.P,A1,4,16*%
%TO.N,unconnected-(A1-Pad4)*%
X109728000Y-96520000D03*
%TO.P,A1,3,EN*%
%TO.N,unconnected-(A1-Pad3)*%
X109728000Y-93980000D03*
%TO.P,A1,2,A*%
%TO.N,unconnected-(A1-Pad2)*%
X109728000Y-91440000D03*
D11*
%TO.P,A1,1,~{RST}*%
%TO.N,unconnected-(A1-Pad1)*%
X109728000Y-88900000D03*
%TD*%
D12*
%TO.P,C1,1*%
%TO.N,Net-(C1-Pad1)*%
X116776900Y-101092000D03*
%TO.P,C1,2*%
%TO.N,GND*%
X113651900Y-101092000D03*
%TD*%
D13*
%TO.P,C2,1*%
%TO.N,+12V*%
X126949200Y-128378606D03*
D14*
%TO.P,C2,2*%
%TO.N,GND*%
X126949200Y-130878606D03*
%TD*%
%TO.P,C3,2*%
%TO.N,GND*%
X118160800Y-130878605D03*
D13*
%TO.P,C3,1*%
%TO.N,+12V*%
X118160800Y-128378605D03*
%TD*%
D15*
%TO.P,C4,1*%
%TO.N,+12V*%
X118173100Y-123240800D03*
%TO.P,C4,2*%
%TO.N,GND*%
X121298100Y-123240800D03*
%TD*%
D16*
%TO.P,C5,1*%
%TO.N,+5V*%
X126492000Y-119926500D03*
%TO.P,C5,2*%
%TO.N,GND*%
X126492000Y-116801500D03*
%TD*%
D17*
%TO.P,D2,2,A*%
%TO.N,Net-(D1-Pad1)*%
X114300000Y-118658000D03*
%TO.P,D2,1,K*%
%TO.N,+12V*%
X114300000Y-123658000D03*
%TD*%
D18*
%TO.P,J1,1*%
%TO.N,Net-(D1-Pad4)*%
X111125000Y-137795000D03*
D19*
%TO.P,J1,2*%
%TO.N,Net-(D1-Pad3)*%
X105125000Y-137795000D03*
D20*
%TO.P,J1,3*%
%TO.N,N/C*%
X108125000Y-142495000D03*
%TD*%
D21*
%TO.P,J2,1,Pin_1*%
%TO.N,GND*%
X102870000Y-88900000D03*
D22*
%TO.P,J2,2,Pin_2*%
%TO.N,Net-(A1-Pad20)*%
X102870000Y-86360000D03*
%TO.P,J2,3,Pin_3*%
%TO.N,Net-(A1-Pad19)*%
X102870000Y-83820000D03*
%TD*%
D21*
%TO.P,J3,1,Pin_1*%
%TO.N,GND*%
X102870000Y-106680000D03*
D22*
%TO.P,J3,2,Pin_2*%
%TO.N,+5V*%
X102870000Y-104140000D03*
%TO.P,J3,3,Pin_3*%
%TO.N,Net-(A1-Pad6)*%
X102870000Y-101600000D03*
%TD*%
D23*
%TO.P,R1,1*%
%TO.N,Net-(D1-Pad1)*%
X112089000Y-114604800D03*
%TO.P,R1,2*%
%TO.N,Net-(C1-Pad1)*%
X115189000Y-114604800D03*
%TD*%
D24*
%TO.P,R2,1*%
%TO.N,Net-(C1-Pad1)*%
X115189000Y-111760000D03*
%TO.P,R2,2*%
%TO.N,GND*%
X112089000Y-111760000D03*
%TD*%
D23*
%TO.P,R5,1*%
%TO.N,Net-(C1-Pad1)*%
X118642800Y-97790000D03*
%TO.P,R5,2*%
%TO.N,Net-(A1-Pad18)*%
X121742800Y-97790000D03*
%TD*%
D13*
%TO.P,D1,1,+*%
%TO.N,Net-(D1-Pad1)*%
X108470400Y-123190000D03*
D25*
%TO.P,D1,2,-*%
%TO.N,GND*%
X103390400Y-123190000D03*
%TO.P,D1,3*%
%TO.N,Net-(D1-Pad3)*%
X103390400Y-130810000D03*
%TO.P,D1,4*%
%TO.N,Net-(D1-Pad4)*%
X108470400Y-130810000D03*
%TD*%
D26*
%TO.P,U2,3,VI*%
%TO.N,+12V*%
X118604000Y-113690000D03*
D27*
%TO.P,U2,2,VO*%
%TO.N,+5V*%
X120904000Y-119990000D03*
D26*
X120904000Y-113690000D03*
%TO.P,U2,1,GND*%
%TO.N,GND*%
X123204000Y-113690000D03*
%TD*%
D23*
%TO.P,R4,1*%
%TO.N,Net-(C8-Pad1)*%
X119380000Y-109220000D03*
%TO.P,R4,2*%
%TO.N,GND*%
X122480000Y-109220000D03*
%TD*%
D28*
%TO.P,U1,1*%
%TO.N,Net-(A1-Pad18)*%
X121752400Y-101109600D03*
%TO.P,U1,2,V-*%
%TO.N,GND*%
X120802400Y-101109600D03*
%TO.P,U1,3,+*%
%TO.N,Net-(C1-Pad1)*%
X119852400Y-101109600D03*
%TO.P,U1,4,-*%
%TO.N,Net-(C8-Pad1)*%
X119852400Y-103309600D03*
%TO.P,U1,5,V+*%
%TO.N,+3V3*%
X121752400Y-103309600D03*
%TD*%
D24*
%TO.P,R3,1*%
%TO.N,+3V3*%
X122480000Y-106045000D03*
%TO.P,R3,2*%
%TO.N,Net-(C8-Pad1)*%
X119380000Y-106045000D03*
%TD*%
D29*
%TO.P,C6,1*%
%TO.N,+5V*%
X106553000Y-106680000D03*
%TO.P,C6,2*%
%TO.N,GND*%
X106553000Y-109805000D03*
%TD*%
%TO.P,C7,1*%
%TO.N,+3V3*%
X125476000Y-106133500D03*
%TO.P,C7,2*%
%TO.N,GND*%
X125476000Y-109258500D03*
%TD*%
D12*
%TO.P,C8,1*%
%TO.N,Net-(C8-Pad1)*%
X116776900Y-103835200D03*
%TO.P,C8,2*%
%TO.N,GND*%
X113651900Y-103835200D03*
%TD*%
D30*
%TO.N,Net-(C1-Pad1)*%
X118668800Y-101092000D03*
X115163600Y-110032800D03*
%TD*%
D31*
%TO.N,Net-(A1-Pad20)*%
X127508000Y-86360000D02*
X102870000Y-86360000D01*
X130048000Y-88900000D02*
X127508000Y-86360000D01*
D32*
%TO.N,Net-(D1-Pad3)*%
X105125000Y-132544600D02*
X103390400Y-130810000D01*
X105125000Y-137795000D02*
X105125000Y-132544600D01*
%TO.N,Net-(D1-Pad4)*%
X111125000Y-133464600D02*
X108470400Y-130810000D01*
X111125000Y-137795000D02*
X111125000Y-133464600D01*
%TO.N,+12V*%
X118173100Y-121983100D02*
X118173100Y-123240800D01*
X117957600Y-121767600D02*
X118173100Y-121983100D01*
X117957600Y-117246400D02*
X117957600Y-121767600D01*
X118604000Y-113690000D02*
X118590000Y-116614000D01*
X118590000Y-116614000D02*
X117957600Y-117246400D01*
D33*
%TO.N,+5V*%
X114554000Y-106680000D02*
X109728000Y-106680000D01*
X117094000Y-109220000D02*
X114554000Y-106680000D01*
X118237000Y-111379000D02*
X117094000Y-110236000D01*
X120142000Y-111379000D02*
X118237000Y-111379000D01*
X120904000Y-112141000D02*
X120142000Y-111379000D01*
X117094000Y-110236000D02*
X117094000Y-109220000D01*
X120904000Y-113690000D02*
X120904000Y-112141000D01*
D32*
X120904000Y-119990000D02*
X126492000Y-119926500D01*
X120904000Y-113690000D02*
X120904000Y-119990000D01*
%TO.N,+12V*%
X118160800Y-123228500D02*
X118173100Y-123240800D01*
D31*
%TO.N,Net-(C1-Pad1)*%
X115189000Y-110058200D02*
X115163600Y-110032800D01*
X115189000Y-111760000D02*
X115189000Y-110058200D01*
%TO.N,Net-(C8-Pad1)*%
X118313200Y-103835200D02*
X116776906Y-103835200D01*
X118838802Y-103309598D02*
X118313200Y-103835200D01*
X119852389Y-103309598D02*
X118838802Y-103309598D01*
D32*
%TO.N,+12V*%
X115932605Y-128378605D02*
X118160800Y-128378605D01*
X114300000Y-123658000D02*
X114300000Y-126746000D01*
X114300000Y-126746000D02*
X115932605Y-128378605D01*
D31*
%TO.N,Net-(C1-Pad1)*%
X115189000Y-114604800D02*
X115189000Y-111760000D01*
%TO.N,Net-(D1-Pad1)*%
X112089000Y-118390600D02*
X111821600Y-118658000D01*
X112089000Y-114604800D02*
X112089000Y-118390600D01*
D32*
X111821600Y-118658000D02*
X114300000Y-118658000D01*
X111415200Y-118658000D02*
X111821600Y-118658000D01*
X108470400Y-121602800D02*
X111415200Y-118658000D01*
X108470400Y-123190000D02*
X108470400Y-121602800D01*
%TO.N,+12V*%
X118160800Y-128378605D02*
X126949200Y-128378606D01*
X118173100Y-123240800D02*
X118152289Y-123219989D01*
X118160800Y-123253100D02*
X118173100Y-123240800D01*
X118160800Y-128378605D02*
X118160800Y-123253100D01*
D31*
%TO.N,Net-(C1-Pad1)*%
X118642800Y-97790000D02*
X118642800Y-101066000D01*
X118642800Y-101066000D02*
X118668800Y-101092000D01*
X118668800Y-101092000D02*
X119834812Y-101092000D01*
D34*
X119834800Y-101092000D02*
X119852400Y-101109600D01*
D31*
X116776900Y-101092000D02*
X118668800Y-101092000D01*
%TO.N,Net-(A1-Pad18)*%
X123799600Y-93980000D02*
X130048000Y-93980000D01*
X121742800Y-97790000D02*
X121742800Y-96036800D01*
X121742800Y-96036800D02*
X123799600Y-93980000D01*
X121752400Y-97799600D02*
X121742800Y-97790000D01*
X121752400Y-101109600D02*
X121752400Y-97799600D01*
D33*
%TO.N,Net-(A1-Pad6)*%
X102870000Y-101600000D02*
X109728000Y-101600000D01*
%TO.N,+5V*%
X106553000Y-106680000D02*
X106553000Y-104978200D01*
X105714800Y-104140000D02*
X102870000Y-104140000D01*
X106553000Y-104978200D02*
X105714800Y-104140000D01*
X106553000Y-106680000D02*
X109728000Y-106680000D01*
D31*
%TO.N,+3V3*%
X126034800Y-106031900D02*
X127317100Y-106031900D01*
X126034800Y-106031900D02*
X122493100Y-106031900D01*
X127317100Y-106031900D02*
X127965200Y-106680000D01*
X122480000Y-106045000D02*
X122478800Y-106043800D01*
X122478800Y-104036000D02*
X121752400Y-103309600D01*
X127965200Y-106680000D02*
X130048000Y-106680000D01*
X122478800Y-106043800D02*
X122478800Y-104036000D01*
X122493100Y-106031900D02*
X122480000Y-106045000D01*
D35*
%TO.N,Net-(C8-Pad1)*%
X119852389Y-104302611D02*
X119852389Y-103309598D01*
X119380000Y-109220000D02*
X119380000Y-106045000D01*
X119380000Y-106045000D02*
X119380000Y-104775000D01*
X119380000Y-104775000D02*
X119852389Y-104302611D01*
%TD*%
%TA.AperFunction,Conductor*%
%TO.N,GND*%
G36*
X133170738Y-81449993D02*
G01*
X133196458Y-81494542D01*
X133197600Y-81507600D01*
X133197600Y-145568400D01*
X133180007Y-145616738D01*
X133135458Y-145642458D01*
X133122400Y-145643600D01*
X100557600Y-145643600D01*
X100509262Y-145626007D01*
X100483542Y-145581458D01*
X100482400Y-145568400D01*
X100482400Y-143452590D01*
X106171300Y-143452590D01*
X106171371Y-143453734D01*
X106173946Y-143495403D01*
X106174241Y-143500181D01*
X106218266Y-143701254D01*
X106299518Y-143890374D01*
X106301526Y-143893334D01*
X106301528Y-143893338D01*
X106413052Y-144057749D01*
X106413056Y-144057754D01*
X106415066Y-144060717D01*
X106560741Y-144206138D01*
X106731286Y-144321388D01*
X106920548Y-144402311D01*
X107121697Y-144445984D01*
X107140791Y-144447118D01*
X107166308Y-144448635D01*
X107166324Y-144448635D01*
X107167410Y-144448700D01*
X109082590Y-144448700D01*
X109106324Y-144447233D01*
X109127289Y-144445938D01*
X109127293Y-144445937D01*
X109130181Y-144445759D01*
X109331254Y-144401734D01*
X109334543Y-144400321D01*
X109517086Y-144321895D01*
X109517089Y-144321893D01*
X109520374Y-144320482D01*
X109523334Y-144318474D01*
X109523338Y-144318472D01*
X109687749Y-144206948D01*
X109687754Y-144206944D01*
X109690717Y-144204934D01*
X109836138Y-144059259D01*
X109951388Y-143888714D01*
X110032311Y-143699452D01*
X110075984Y-143498303D01*
X110077118Y-143479209D01*
X110078635Y-143453692D01*
X110078635Y-143453676D01*
X110078700Y-143452590D01*
X110078700Y-141537410D01*
X110077233Y-141513676D01*
X110075938Y-141492711D01*
X110075937Y-141492707D01*
X110075759Y-141489819D01*
X110031734Y-141288746D01*
X109950482Y-141099626D01*
X109948474Y-141096666D01*
X109948472Y-141096662D01*
X109836948Y-140932251D01*
X109836944Y-140932246D01*
X109834934Y-140929283D01*
X109689259Y-140783862D01*
X109518714Y-140668612D01*
X109329452Y-140587689D01*
X109128303Y-140544016D01*
X109109209Y-140542882D01*
X109083692Y-140541365D01*
X109083676Y-140541365D01*
X109082590Y-140541300D01*
X107167410Y-140541300D01*
X107143676Y-140542767D01*
X107122711Y-140544062D01*
X107122707Y-140544063D01*
X107119819Y-140544241D01*
X106918746Y-140588266D01*
X106915458Y-140589679D01*
X106915457Y-140589679D01*
X106732914Y-140668105D01*
X106732911Y-140668107D01*
X106729626Y-140669518D01*
X106726666Y-140671526D01*
X106726662Y-140671528D01*
X106562251Y-140783052D01*
X106562246Y-140783056D01*
X106559283Y-140785066D01*
X106413862Y-140930741D01*
X106298612Y-141101286D01*
X106217689Y-141290548D01*
X106174016Y-141491697D01*
X106173844Y-141494597D01*
X106171368Y-141536266D01*
X106171300Y-141537410D01*
X106171300Y-143452590D01*
X100482400Y-143452590D01*
X100482400Y-130795918D01*
X102381942Y-130795918D01*
X102398413Y-130992064D01*
X102452668Y-131181274D01*
X102542642Y-131356343D01*
X102664906Y-131510602D01*
X102814803Y-131638175D01*
X102818004Y-131639964D01*
X102818007Y-131639966D01*
X102891641Y-131681118D01*
X102986626Y-131734203D01*
X102990127Y-131735341D01*
X102990128Y-131735341D01*
X103170321Y-131793890D01*
X103170323Y-131793890D01*
X103172425Y-131794573D01*
X103172424Y-131794573D01*
X103173827Y-131795029D01*
X103173741Y-131795294D01*
X103208775Y-131814476D01*
X104264274Y-132869975D01*
X104286014Y-132916595D01*
X104286300Y-132923149D01*
X104286300Y-135775511D01*
X104268707Y-135823849D01*
X104224158Y-135849569D01*
X104217783Y-135850413D01*
X104205243Y-135851532D01*
X104199709Y-135853119D01*
X104022661Y-135903887D01*
X104022659Y-135903888D01*
X104019000Y-135904937D01*
X103847299Y-135994700D01*
X103697155Y-136117155D01*
X103574700Y-136267299D01*
X103484937Y-136439000D01*
X103431532Y-136625243D01*
X103421300Y-136739893D01*
X103421301Y-138850106D01*
X103431532Y-138964757D01*
X103484937Y-139151000D01*
X103574700Y-139322701D01*
X103697155Y-139472845D01*
X103847299Y-139595300D01*
X104019000Y-139685063D01*
X104022659Y-139686112D01*
X104022661Y-139686113D01*
X104201804Y-139737482D01*
X104205243Y-139738468D01*
X104249880Y-139742452D01*
X104318230Y-139748552D01*
X104318239Y-139748552D01*
X104319893Y-139748700D01*
X105125000Y-139748700D01*
X105930106Y-139748699D01*
X106044757Y-139738468D01*
X106124411Y-139715627D01*
X106227339Y-139686113D01*
X106227341Y-139686112D01*
X106231000Y-139685063D01*
X106402701Y-139595300D01*
X106552845Y-139472845D01*
X106675300Y-139322701D01*
X106765063Y-139151000D01*
X106818468Y-138964757D01*
X106828700Y-138850107D01*
X106828699Y-136739894D01*
X106818468Y-136625243D01*
X106765063Y-136439000D01*
X106675300Y-136267299D01*
X106552845Y-136117155D01*
X106402701Y-135994700D01*
X106231000Y-135904937D01*
X106227341Y-135903888D01*
X106227339Y-135903887D01*
X106048196Y-135852518D01*
X106048195Y-135852518D01*
X106044757Y-135851532D01*
X106032217Y-135850413D01*
X105985634Y-135828594D01*
X105963975Y-135781936D01*
X105963700Y-135775511D01*
X105963700Y-132583022D01*
X105963964Y-132576729D01*
X105968052Y-132528053D01*
X105968052Y-132528050D01*
X105968393Y-132523988D01*
X105957817Y-132444722D01*
X105957599Y-132442926D01*
X105949405Y-132367488D01*
X105949404Y-132367486D01*
X105948965Y-132363440D01*
X105947667Y-132359582D01*
X105946792Y-132355603D01*
X105946833Y-132355594D01*
X105945844Y-132351342D01*
X105945803Y-132351352D01*
X105944832Y-132347397D01*
X105944293Y-132343362D01*
X105916937Y-132268203D01*
X105916335Y-132266482D01*
X105892142Y-132194592D01*
X105892140Y-132194587D01*
X105890842Y-132190731D01*
X105888746Y-132187243D01*
X105887036Y-132183542D01*
X105887074Y-132183525D01*
X105885194Y-132179585D01*
X105885157Y-132179603D01*
X105883361Y-132175952D01*
X105881968Y-132172126D01*
X105879787Y-132168690D01*
X105879785Y-132168685D01*
X105839117Y-132104602D01*
X105838151Y-132103039D01*
X105799085Y-132038023D01*
X105796988Y-132034533D01*
X105794190Y-132031574D01*
X105791729Y-132028332D01*
X105791762Y-132028307D01*
X105787876Y-132023314D01*
X105787844Y-132023338D01*
X105786099Y-132021031D01*
X105785997Y-132020900D01*
X105785982Y-132020876D01*
X105785981Y-132020874D01*
X105784326Y-132018267D01*
X105780589Y-132014088D01*
X105727342Y-131960841D01*
X105725878Y-131959336D01*
X105720653Y-131953811D01*
X105671783Y-131902132D01*
X105668418Y-131899845D01*
X105668413Y-131899841D01*
X105667830Y-131899445D01*
X105656923Y-131890422D01*
X104562419Y-130795918D01*
X107461942Y-130795918D01*
X107478413Y-130992064D01*
X107532668Y-131181274D01*
X107622642Y-131356343D01*
X107744906Y-131510602D01*
X107894803Y-131638175D01*
X107898004Y-131639964D01*
X107898007Y-131639966D01*
X107971641Y-131681118D01*
X108066626Y-131734203D01*
X108070127Y-131735341D01*
X108070128Y-131735341D01*
X108250321Y-131793890D01*
X108250323Y-131793890D01*
X108252425Y-131794573D01*
X108252424Y-131794573D01*
X108253827Y-131795029D01*
X108253741Y-131795294D01*
X108288775Y-131814476D01*
X110264274Y-133789975D01*
X110286014Y-133836595D01*
X110286300Y-133843149D01*
X110286300Y-135766100D01*
X110268707Y-135814438D01*
X110224158Y-135840158D01*
X110211100Y-135841300D01*
X109354936Y-135841300D01*
X109295520Y-135853119D01*
X109228140Y-135898140D01*
X109183119Y-135965520D01*
X109171300Y-136024936D01*
X109171300Y-139565064D01*
X109183119Y-139624480D01*
X109228140Y-139691860D01*
X109295520Y-139736881D01*
X109354936Y-139748700D01*
X112895064Y-139748700D01*
X112954480Y-139736881D01*
X113021860Y-139691860D01*
X113066881Y-139624480D01*
X113078700Y-139565064D01*
X113078700Y-136024936D01*
X113066881Y-135965520D01*
X113021860Y-135898140D01*
X112954480Y-135853119D01*
X112895064Y-135841300D01*
X112038900Y-135841300D01*
X111990562Y-135823707D01*
X111964842Y-135779158D01*
X111963700Y-135766100D01*
X111963700Y-133503022D01*
X111963964Y-133496729D01*
X111968052Y-133448053D01*
X111968052Y-133448050D01*
X111968393Y-133443988D01*
X111957817Y-133364722D01*
X111957599Y-133362926D01*
X111949405Y-133287488D01*
X111949404Y-133287486D01*
X111948965Y-133283440D01*
X111947667Y-133279582D01*
X111946792Y-133275603D01*
X111946833Y-133275594D01*
X111945844Y-133271342D01*
X111945803Y-133271352D01*
X111944832Y-133267397D01*
X111944293Y-133263362D01*
X111916948Y-133188232D01*
X111916341Y-133186498D01*
X111892142Y-133114594D01*
X111890842Y-133110731D01*
X111888743Y-133107237D01*
X111887035Y-133103542D01*
X111887073Y-133103524D01*
X111885198Y-133099593D01*
X111885160Y-133099612D01*
X111883361Y-133095957D01*
X111881967Y-133092126D01*
X111839132Y-133024629D01*
X111838186Y-133023097D01*
X111799083Y-132958020D01*
X111796988Y-132954533D01*
X111794194Y-132951578D01*
X111791727Y-132948328D01*
X111791760Y-132948303D01*
X111787871Y-132943308D01*
X111787839Y-132943332D01*
X111786094Y-132941025D01*
X111785990Y-132940891D01*
X111785975Y-132940867D01*
X111784325Y-132938267D01*
X111780588Y-132934087D01*
X111727342Y-132880841D01*
X111725878Y-132879336D01*
X111674581Y-132825091D01*
X111671783Y-132822132D01*
X111668418Y-132819845D01*
X111668413Y-132819841D01*
X111667830Y-132819445D01*
X111656923Y-132810422D01*
X110693290Y-131846789D01*
X117736662Y-131846789D01*
X117737143Y-131848586D01*
X117737788Y-131849169D01*
X117740296Y-131850264D01*
X117929876Y-131911862D01*
X117937024Y-131913434D01*
X118134962Y-131937037D01*
X118142294Y-131937190D01*
X118341043Y-131921897D01*
X118348252Y-131920626D01*
X118540257Y-131867018D01*
X118547079Y-131864371D01*
X118575553Y-131849987D01*
X118578556Y-131846790D01*
X126525062Y-131846790D01*
X126525543Y-131848587D01*
X126526188Y-131849170D01*
X126528696Y-131850265D01*
X126718276Y-131911863D01*
X126725424Y-131913435D01*
X126923362Y-131937038D01*
X126930694Y-131937191D01*
X127129443Y-131921898D01*
X127136652Y-131920627D01*
X127328657Y-131867019D01*
X127335479Y-131864372D01*
X127363953Y-131849988D01*
X127371352Y-131842110D01*
X127371408Y-131841104D01*
X127369211Y-131837433D01*
X126958577Y-131426799D01*
X126948778Y-131422230D01*
X126942787Y-131423835D01*
X126529631Y-131836991D01*
X126525062Y-131846790D01*
X118578556Y-131846790D01*
X118582952Y-131842109D01*
X118583008Y-131841103D01*
X118580811Y-131837432D01*
X118170177Y-131426798D01*
X118160378Y-131422229D01*
X118154387Y-131423834D01*
X117741231Y-131836990D01*
X117736662Y-131846789D01*
X110693290Y-131846789D01*
X109713990Y-130867489D01*
X117102111Y-130867489D01*
X117118791Y-131066126D01*
X117120113Y-131073328D01*
X117175060Y-131264949D01*
X117177756Y-131271759D01*
X117189033Y-131293701D01*
X117196965Y-131301046D01*
X117198112Y-131301102D01*
X117201578Y-131299011D01*
X117612607Y-130887982D01*
X117616782Y-130879027D01*
X118704424Y-130879027D01*
X118706029Y-130885018D01*
X119119472Y-131298461D01*
X119128097Y-131302483D01*
X119132673Y-131296344D01*
X119192419Y-131116741D01*
X119194042Y-131109596D01*
X119219223Y-130910267D01*
X119219516Y-130906074D01*
X119219871Y-130880704D01*
X119219695Y-130876512D01*
X119218810Y-130867490D01*
X125890511Y-130867490D01*
X125907191Y-131066127D01*
X125908513Y-131073329D01*
X125963460Y-131264950D01*
X125966156Y-131271760D01*
X125977433Y-131293702D01*
X125985365Y-131301047D01*
X125986512Y-131301103D01*
X125989978Y-131299012D01*
X126401007Y-130887983D01*
X126405182Y-130879028D01*
X127492824Y-130879028D01*
X127494429Y-130885019D01*
X127907872Y-131298462D01*
X127916497Y-131302484D01*
X127921073Y-131296345D01*
X127980819Y-131116742D01*
X127982442Y-131109597D01*
X128007623Y-130910268D01*
X128007916Y-130906075D01*
X128008271Y-130880705D01*
X128008095Y-130876513D01*
X127988490Y-130676559D01*
X127987064Y-130669363D01*
X127929450Y-130478534D01*
X127926661Y-130471768D01*
X127921846Y-130462712D01*
X127913810Y-130455476D01*
X127912378Y-130455426D01*
X127909325Y-130457297D01*
X127497393Y-130869229D01*
X127492824Y-130879028D01*
X126405182Y-130879028D01*
X126405576Y-130878184D01*
X126403971Y-130872193D01*
X125991299Y-130459521D01*
X125981500Y-130454952D01*
X125979838Y-130455397D01*
X125977763Y-130457710D01*
X125977517Y-130458158D01*
X125974631Y-130464891D01*
X125914357Y-130654900D01*
X125912834Y-130662065D01*
X125890614Y-130860157D01*
X125890511Y-130867490D01*
X119218810Y-130867490D01*
X119200090Y-130676558D01*
X119198664Y-130669362D01*
X119141050Y-130478533D01*
X119138261Y-130471767D01*
X119133446Y-130462711D01*
X119125410Y-130455475D01*
X119123978Y-130455425D01*
X119120925Y-130457296D01*
X118708993Y-130869228D01*
X118704424Y-130879027D01*
X117616782Y-130879027D01*
X117617176Y-130878183D01*
X117615571Y-130872192D01*
X117202899Y-130459520D01*
X117193100Y-130454951D01*
X117191438Y-130455396D01*
X117189363Y-130457709D01*
X117189117Y-130458157D01*
X117186231Y-130464890D01*
X117125957Y-130654899D01*
X117124434Y-130662064D01*
X117102214Y-130860156D01*
X117102111Y-130867489D01*
X109713990Y-130867489D01*
X109472734Y-130626233D01*
X109453918Y-130594794D01*
X109403919Y-130429190D01*
X109402856Y-130425669D01*
X109310448Y-130251874D01*
X109186042Y-130099337D01*
X109034377Y-129973869D01*
X108926781Y-129915692D01*
X117737980Y-129915692D01*
X117739961Y-129918950D01*
X118151423Y-130330412D01*
X118161222Y-130334981D01*
X118167213Y-130333376D01*
X118579438Y-129921151D01*
X118581983Y-129915693D01*
X126526380Y-129915693D01*
X126528361Y-129918951D01*
X126939823Y-130330413D01*
X126949622Y-130334982D01*
X126955613Y-130333377D01*
X127367838Y-129921152D01*
X127372407Y-129911353D01*
X127371999Y-129909829D01*
X127369504Y-129907606D01*
X127362847Y-129904007D01*
X127356110Y-129901175D01*
X127165674Y-129842225D01*
X127158505Y-129840754D01*
X126960249Y-129819916D01*
X126952936Y-129819865D01*
X126754403Y-129837933D01*
X126747215Y-129839305D01*
X126555987Y-129895586D01*
X126549192Y-129898331D01*
X126533724Y-129906418D01*
X126526434Y-129914402D01*
X126526380Y-129915693D01*
X118581983Y-129915693D01*
X118584007Y-129911352D01*
X118583599Y-129909828D01*
X118581104Y-129907605D01*
X118574447Y-129904006D01*
X118567710Y-129901174D01*
X118377274Y-129842224D01*
X118370105Y-129840753D01*
X118171849Y-129819915D01*
X118164536Y-129819864D01*
X117966003Y-129837932D01*
X117958815Y-129839304D01*
X117767587Y-129895585D01*
X117760792Y-129898330D01*
X117745324Y-129906417D01*
X117738034Y-129914401D01*
X117737980Y-129915692D01*
X108926781Y-129915692D01*
X108861231Y-129880249D01*
X108816732Y-129866475D01*
X108676711Y-129823131D01*
X108676707Y-129823130D01*
X108673198Y-129822044D01*
X108537684Y-129807801D01*
X108481096Y-129801853D01*
X108481094Y-129801853D01*
X108477441Y-129801469D01*
X108379428Y-129810388D01*
X108285073Y-129818975D01*
X108285072Y-129818975D01*
X108281415Y-129819308D01*
X108277890Y-129820345D01*
X108277887Y-129820346D01*
X108096117Y-129873844D01*
X108096114Y-129873845D01*
X108092588Y-129874883D01*
X108089330Y-129876586D01*
X108089328Y-129876587D01*
X107921415Y-129964370D01*
X107918152Y-129966076D01*
X107915283Y-129968382D01*
X107915284Y-129968382D01*
X107767615Y-130087110D01*
X107767612Y-130087113D01*
X107764750Y-130089414D01*
X107638227Y-130240199D01*
X107543401Y-130412688D01*
X107542289Y-130416192D01*
X107542289Y-130416193D01*
X107539283Y-130425669D01*
X107483883Y-130600309D01*
X107461942Y-130795918D01*
X104562419Y-130795918D01*
X104392734Y-130626233D01*
X104373918Y-130594794D01*
X104323919Y-130429190D01*
X104322856Y-130425669D01*
X104230448Y-130251874D01*
X104106042Y-130099337D01*
X103954377Y-129973869D01*
X103781231Y-129880249D01*
X103736732Y-129866475D01*
X103596711Y-129823131D01*
X103596707Y-129823130D01*
X103593198Y-129822044D01*
X103457684Y-129807801D01*
X103401096Y-129801853D01*
X103401094Y-129801853D01*
X103397441Y-129801469D01*
X103299428Y-129810388D01*
X103205073Y-129818975D01*
X103205072Y-129818975D01*
X103201415Y-129819308D01*
X103197890Y-129820345D01*
X103197887Y-129820346D01*
X103016117Y-129873844D01*
X103016114Y-129873845D01*
X103012588Y-129874883D01*
X103009330Y-129876586D01*
X103009328Y-129876587D01*
X102841415Y-129964370D01*
X102838152Y-129966076D01*
X102835283Y-129968382D01*
X102835284Y-129968382D01*
X102687615Y-130087110D01*
X102687612Y-130087113D01*
X102684750Y-130089414D01*
X102558227Y-130240199D01*
X102463401Y-130412688D01*
X102462289Y-130416192D01*
X102462289Y-130416193D01*
X102459283Y-130425669D01*
X102403883Y-130600309D01*
X102381942Y-130795918D01*
X100482400Y-130795918D01*
X100482400Y-123576249D01*
X102405333Y-123576249D01*
X102405441Y-123578317D01*
X102407358Y-123583157D01*
X102498475Y-123760451D01*
X102502441Y-123766606D01*
X102626266Y-123922835D01*
X102631342Y-123928091D01*
X102783163Y-124057301D01*
X102789161Y-124061470D01*
X102963179Y-124158726D01*
X102969892Y-124161658D01*
X102996789Y-124170397D01*
X103007593Y-124170020D01*
X103008394Y-124169298D01*
X103009400Y-124165264D01*
X103009400Y-124164723D01*
X103771400Y-124164723D01*
X103775097Y-124174880D01*
X103776650Y-124175777D01*
X103776680Y-124175766D01*
X103954610Y-124085887D01*
X103960793Y-124081963D01*
X104052819Y-124010064D01*
X107466700Y-124010064D01*
X107478519Y-124069480D01*
X107523540Y-124136860D01*
X107590920Y-124181881D01*
X107650336Y-124193700D01*
X109290464Y-124193700D01*
X109349880Y-124181881D01*
X109417260Y-124136860D01*
X109462281Y-124069480D01*
X109474100Y-124010064D01*
X109474100Y-122369936D01*
X109462281Y-122310520D01*
X109417260Y-122243140D01*
X109349880Y-122198119D01*
X109350406Y-122197332D01*
X109317596Y-122167266D01*
X109309100Y-122132544D01*
X109309100Y-121981349D01*
X109326693Y-121933011D01*
X109331126Y-121928175D01*
X111740575Y-119518726D01*
X111787195Y-119496986D01*
X111793749Y-119496700D01*
X113121100Y-119496700D01*
X113169438Y-119514293D01*
X113195158Y-119558842D01*
X113196300Y-119571900D01*
X113196300Y-120428064D01*
X113208119Y-120487480D01*
X113253140Y-120554860D01*
X113320520Y-120599881D01*
X113379936Y-120611700D01*
X115220064Y-120611700D01*
X115279480Y-120599881D01*
X115346860Y-120554860D01*
X115391881Y-120487480D01*
X115403700Y-120428064D01*
X115403700Y-116887936D01*
X115391881Y-116828520D01*
X115346860Y-116761140D01*
X115279480Y-116716119D01*
X115220064Y-116704300D01*
X113379936Y-116704300D01*
X113320520Y-116716119D01*
X113253140Y-116761140D01*
X113208119Y-116828520D01*
X113196300Y-116887936D01*
X113196300Y-117744100D01*
X113178707Y-117792438D01*
X113134158Y-117818158D01*
X113121100Y-117819300D01*
X112685400Y-117819300D01*
X112637062Y-117801707D01*
X112611342Y-117757158D01*
X112610200Y-117744100D01*
X112610200Y-115721422D01*
X112627793Y-115673084D01*
X112660483Y-115650470D01*
X112698394Y-115637157D01*
X112698396Y-115637156D01*
X112703698Y-115635294D01*
X112813438Y-115554238D01*
X112823652Y-115540409D01*
X112891154Y-115449021D01*
X112891156Y-115449017D01*
X112894494Y-115444498D01*
X112939698Y-115315775D01*
X112942700Y-115284017D01*
X112942699Y-113925584D01*
X112942699Y-113925583D01*
X114335300Y-113925583D01*
X114335301Y-115284016D01*
X114335467Y-115285770D01*
X114335467Y-115285776D01*
X114337871Y-115311209D01*
X114338302Y-115315775D01*
X114339818Y-115320093D01*
X114339819Y-115320096D01*
X114363416Y-115387289D01*
X114383506Y-115444498D01*
X114386844Y-115449017D01*
X114386846Y-115449021D01*
X114454348Y-115540409D01*
X114464562Y-115554238D01*
X114469080Y-115557575D01*
X114569779Y-115631954D01*
X114569783Y-115631956D01*
X114574302Y-115635294D01*
X114703025Y-115680498D01*
X114707588Y-115680929D01*
X114707591Y-115680930D01*
X114733023Y-115683334D01*
X114733031Y-115683334D01*
X114734783Y-115683500D01*
X115187972Y-115683500D01*
X115643216Y-115683499D01*
X115644970Y-115683333D01*
X115644976Y-115683333D01*
X115670418Y-115680929D01*
X115670421Y-115680928D01*
X115674975Y-115680498D01*
X115679293Y-115678982D01*
X115679296Y-115678981D01*
X115760483Y-115650470D01*
X115803698Y-115635294D01*
X115808217Y-115631956D01*
X115808221Y-115631954D01*
X115908920Y-115557575D01*
X115913438Y-115554238D01*
X115923652Y-115540409D01*
X115991154Y-115449021D01*
X115991156Y-115449017D01*
X115994494Y-115444498D01*
X116039698Y-115315775D01*
X116042700Y-115284017D01*
X116042699Y-113925584D01*
X116042533Y-113923823D01*
X116040129Y-113898382D01*
X116040128Y-113898379D01*
X116039698Y-113893825D01*
X116038179Y-113889497D01*
X115996357Y-113770408D01*
X115994494Y-113765102D01*
X115991156Y-113760583D01*
X115991154Y-113760579D01*
X115916775Y-113659880D01*
X115913438Y-113655362D01*
X115803698Y-113574306D01*
X115798396Y-113572444D01*
X115798394Y-113572443D01*
X115760483Y-113559130D01*
X115720706Y-113526514D01*
X115710200Y-113488178D01*
X115710200Y-112876622D01*
X115727793Y-112828284D01*
X115760483Y-112805670D01*
X115798394Y-112792357D01*
X115798396Y-112792356D01*
X115803698Y-112790494D01*
X115913438Y-112709438D01*
X115943542Y-112668681D01*
X115991154Y-112604221D01*
X115991156Y-112604217D01*
X115994494Y-112599698D01*
X116039698Y-112470975D01*
X116040732Y-112460045D01*
X116042534Y-112440977D01*
X116042534Y-112440969D01*
X116042700Y-112439217D01*
X116042699Y-111080784D01*
X116042533Y-111079023D01*
X116040129Y-111053582D01*
X116040128Y-111053579D01*
X116039698Y-111049025D01*
X116038179Y-111044697D01*
X115996357Y-110925608D01*
X115994494Y-110920302D01*
X115991156Y-110915783D01*
X115991154Y-110915779D01*
X115916775Y-110815080D01*
X115913438Y-110810562D01*
X115803698Y-110729506D01*
X115798396Y-110727644D01*
X115798394Y-110727643D01*
X115760483Y-110714330D01*
X115720706Y-110681714D01*
X115710200Y-110643378D01*
X115710200Y-110323429D01*
X115715627Y-110295380D01*
X115735014Y-110247154D01*
X115757240Y-110191865D01*
X115778046Y-110045671D01*
X115778181Y-110032800D01*
X115765308Y-109926418D01*
X115760986Y-109890704D01*
X115760986Y-109890702D01*
X115760441Y-109886202D01*
X115758838Y-109881959D01*
X115709848Y-109752311D01*
X115709847Y-109752309D01*
X115708244Y-109748067D01*
X115624604Y-109626370D01*
X115615868Y-109618586D01*
X115569477Y-109577254D01*
X115514350Y-109528137D01*
X115383846Y-109459039D01*
X115312593Y-109441141D01*
X115245028Y-109424170D01*
X115245024Y-109424170D01*
X115240627Y-109423065D01*
X115236093Y-109423041D01*
X115236091Y-109423041D01*
X115165342Y-109422671D01*
X115092962Y-109422292D01*
X114949374Y-109456764D01*
X114945350Y-109458841D01*
X114945347Y-109458842D01*
X114822179Y-109522414D01*
X114822176Y-109522416D01*
X114818154Y-109524492D01*
X114814741Y-109527469D01*
X114814740Y-109527470D01*
X114810517Y-109531154D01*
X114706877Y-109621565D01*
X114684954Y-109652759D01*
X114637177Y-109720739D01*
X114621968Y-109742379D01*
X114568327Y-109879960D01*
X114549053Y-110026364D01*
X114549550Y-110030866D01*
X114549550Y-110030870D01*
X114558774Y-110114417D01*
X114565257Y-110173140D01*
X114566813Y-110177392D01*
X114566814Y-110177396D01*
X114590631Y-110242477D01*
X114616004Y-110311814D01*
X114618532Y-110315576D01*
X114655017Y-110369872D01*
X114667800Y-110411814D01*
X114667800Y-110643378D01*
X114650207Y-110691716D01*
X114617517Y-110714330D01*
X114579606Y-110727643D01*
X114579604Y-110727644D01*
X114574302Y-110729506D01*
X114464562Y-110810562D01*
X114461225Y-110815080D01*
X114386846Y-110915779D01*
X114386844Y-110915783D01*
X114383506Y-110920302D01*
X114338302Y-111049025D01*
X114335300Y-111080783D01*
X114335301Y-112439216D01*
X114335467Y-112440970D01*
X114335467Y-112440976D01*
X114337871Y-112466409D01*
X114338302Y-112470975D01*
X114339818Y-112475293D01*
X114339819Y-112475296D01*
X114362200Y-112539026D01*
X114383506Y-112599698D01*
X114386844Y-112604217D01*
X114386846Y-112604221D01*
X114434458Y-112668681D01*
X114464562Y-112709438D01*
X114574302Y-112790494D01*
X114579604Y-112792356D01*
X114579606Y-112792357D01*
X114617517Y-112805670D01*
X114657294Y-112838286D01*
X114667800Y-112876622D01*
X114667800Y-113488178D01*
X114650207Y-113536516D01*
X114617517Y-113559130D01*
X114579606Y-113572443D01*
X114579604Y-113572444D01*
X114574302Y-113574306D01*
X114464562Y-113655362D01*
X114461225Y-113659880D01*
X114386846Y-113760579D01*
X114386844Y-113760583D01*
X114383506Y-113765102D01*
X114338302Y-113893825D01*
X114335300Y-113925583D01*
X112942699Y-113925583D01*
X112942533Y-113923823D01*
X112940129Y-113898382D01*
X112940128Y-113898379D01*
X112939698Y-113893825D01*
X112938179Y-113889497D01*
X112896357Y-113770408D01*
X112894494Y-113765102D01*
X112891156Y-113760583D01*
X112891154Y-113760579D01*
X112816775Y-113659880D01*
X112813438Y-113655362D01*
X112799609Y-113645148D01*
X112708221Y-113577646D01*
X112708217Y-113577644D01*
X112703698Y-113574306D01*
X112574975Y-113529102D01*
X112570412Y-113528671D01*
X112570409Y-113528670D01*
X112544977Y-113526266D01*
X112544969Y-113526266D01*
X112543217Y-113526100D01*
X112090028Y-113526100D01*
X111634784Y-113526101D01*
X111633030Y-113526267D01*
X111633024Y-113526267D01*
X111607582Y-113528671D01*
X111607579Y-113528672D01*
X111603025Y-113529102D01*
X111598707Y-113530618D01*
X111598704Y-113530619D01*
X111567800Y-113541472D01*
X111474302Y-113574306D01*
X111469783Y-113577644D01*
X111469779Y-113577646D01*
X111378391Y-113645148D01*
X111364562Y-113655362D01*
X111361225Y-113659880D01*
X111286846Y-113760579D01*
X111286844Y-113760583D01*
X111283506Y-113765102D01*
X111238302Y-113893825D01*
X111235300Y-113925583D01*
X111235301Y-115284016D01*
X111235467Y-115285770D01*
X111235467Y-115285776D01*
X111237871Y-115311209D01*
X111238302Y-115315775D01*
X111239818Y-115320093D01*
X111239819Y-115320096D01*
X111263416Y-115387289D01*
X111283506Y-115444498D01*
X111286844Y-115449017D01*
X111286846Y-115449021D01*
X111354348Y-115540409D01*
X111364562Y-115554238D01*
X111474302Y-115635294D01*
X111479604Y-115637156D01*
X111479606Y-115637157D01*
X111517517Y-115650470D01*
X111557294Y-115683086D01*
X111567800Y-115721422D01*
X111567800Y-117744100D01*
X111550207Y-117792438D01*
X111505658Y-117818158D01*
X111492600Y-117819300D01*
X111453622Y-117819300D01*
X111447329Y-117819036D01*
X111398653Y-117814948D01*
X111398650Y-117814948D01*
X111394588Y-117814607D01*
X111315322Y-117825183D01*
X111313555Y-117825397D01*
X111270497Y-117830075D01*
X111238088Y-117833595D01*
X111238086Y-117833596D01*
X111234040Y-117834035D01*
X111230182Y-117835333D01*
X111226203Y-117836208D01*
X111226194Y-117836167D01*
X111221942Y-117837156D01*
X111221952Y-117837197D01*
X111217997Y-117838168D01*
X111213962Y-117838707D01*
X111138803Y-117866063D01*
X111137082Y-117866665D01*
X111065192Y-117890858D01*
X111065187Y-117890860D01*
X111061331Y-117892158D01*
X111057843Y-117894254D01*
X111054142Y-117895964D01*
X111054125Y-117895926D01*
X111050187Y-117897805D01*
X111050205Y-117897842D01*
X111046553Y-117899639D01*
X111042726Y-117901032D01*
X110975226Y-117943870D01*
X110973662Y-117944836D01*
X110908619Y-117983917D01*
X110908616Y-117983919D01*
X110905133Y-117986012D01*
X110902180Y-117988805D01*
X110898928Y-117991273D01*
X110898903Y-117991240D01*
X110893908Y-117995129D01*
X110893932Y-117995161D01*
X110891625Y-117996906D01*
X110891493Y-117997008D01*
X110888867Y-117998675D01*
X110884687Y-118002412D01*
X110831441Y-118055658D01*
X110829936Y-118057122D01*
X110772732Y-118111217D01*
X110770445Y-118114582D01*
X110770441Y-118114587D01*
X110770045Y-118115170D01*
X110761022Y-118126077D01*
X107904527Y-120982572D01*
X107899891Y-120986836D01*
X107859456Y-121021006D01*
X107856985Y-121024238D01*
X107856984Y-121024239D01*
X107810900Y-121084514D01*
X107809766Y-121085960D01*
X107762218Y-121145097D01*
X107762216Y-121145100D01*
X107759669Y-121148268D01*
X107757862Y-121151909D01*
X107755662Y-121155348D01*
X107755628Y-121155326D01*
X107753323Y-121159028D01*
X107753359Y-121159050D01*
X107751249Y-121162535D01*
X107748776Y-121165769D01*
X107747056Y-121169458D01*
X107747054Y-121169461D01*
X107714997Y-121238208D01*
X107714204Y-121239857D01*
X107678645Y-121311491D01*
X107677659Y-121315446D01*
X107676254Y-121319264D01*
X107676215Y-121319250D01*
X107674758Y-121323364D01*
X107674797Y-121323377D01*
X107673485Y-121327231D01*
X107671764Y-121330922D01*
X107670876Y-121334895D01*
X107654322Y-121408957D01*
X107653906Y-121410715D01*
X107634561Y-121488305D01*
X107634447Y-121492377D01*
X107633894Y-121496414D01*
X107633852Y-121496408D01*
X107633070Y-121502686D01*
X107633110Y-121502692D01*
X107632711Y-121505564D01*
X107632692Y-121505720D01*
X107632686Y-121505746D01*
X107632685Y-121505755D01*
X107632013Y-121508760D01*
X107631700Y-121514358D01*
X107631700Y-121589669D01*
X107631671Y-121591769D01*
X107629473Y-121670460D01*
X107630237Y-121674465D01*
X107630368Y-121675153D01*
X107631700Y-121689243D01*
X107631700Y-122132544D01*
X107614107Y-122180882D01*
X107590814Y-122197961D01*
X107590920Y-122198119D01*
X107523540Y-122243140D01*
X107478519Y-122310520D01*
X107466700Y-122369936D01*
X107466700Y-124010064D01*
X104052819Y-124010064D01*
X104117877Y-123959235D01*
X104123180Y-123954185D01*
X104253433Y-123803285D01*
X104257655Y-123797300D01*
X104356119Y-123623974D01*
X104359098Y-123617281D01*
X104370308Y-123583584D01*
X104370006Y-123572776D01*
X104369386Y-123572078D01*
X104365126Y-123571000D01*
X103784659Y-123571000D01*
X103774502Y-123574697D01*
X103771400Y-123580069D01*
X103771400Y-124164723D01*
X103009400Y-124164723D01*
X103009400Y-123584259D01*
X103005703Y-123574102D01*
X103000331Y-123571000D01*
X102416386Y-123571000D01*
X102406229Y-123574697D01*
X102405333Y-123576249D01*
X100482400Y-123576249D01*
X100482400Y-122796361D01*
X102409462Y-122796361D01*
X102409915Y-122807160D01*
X102410740Y-122808063D01*
X102414554Y-122809000D01*
X102996141Y-122809000D01*
X103006298Y-122805303D01*
X103009400Y-122799931D01*
X103009400Y-122795741D01*
X103771400Y-122795741D01*
X103775097Y-122805898D01*
X103780469Y-122809000D01*
X104363149Y-122809000D01*
X104373306Y-122805303D01*
X104374059Y-122803999D01*
X104373854Y-122800540D01*
X104370650Y-122789929D01*
X104367862Y-122783164D01*
X104274271Y-122607146D01*
X104270227Y-122601058D01*
X104144232Y-122446574D01*
X104139069Y-122441375D01*
X103985472Y-122314308D01*
X103979410Y-122310219D01*
X103804053Y-122215404D01*
X103797302Y-122212567D01*
X103784066Y-122208470D01*
X103773270Y-122208998D01*
X103772269Y-122209925D01*
X103771400Y-122213516D01*
X103771400Y-122795741D01*
X103009400Y-122795741D01*
X103009400Y-122216645D01*
X103005703Y-122206488D01*
X103004273Y-122205662D01*
X103001053Y-122205842D01*
X102997181Y-122206982D01*
X102990397Y-122209723D01*
X102813730Y-122302082D01*
X102807612Y-122306086D01*
X102652258Y-122430993D01*
X102647018Y-122436125D01*
X102518886Y-122588825D01*
X102514750Y-122594866D01*
X102418718Y-122769549D01*
X102415831Y-122776285D01*
X102409462Y-122796361D01*
X100482400Y-122796361D01*
X100482400Y-112144930D01*
X108488114Y-112144930D01*
X108488602Y-112150365D01*
X108535439Y-112277322D01*
X108538396Y-112283520D01*
X108648007Y-112467760D01*
X108652045Y-112473318D01*
X108793395Y-112634497D01*
X108798381Y-112639228D01*
X108966740Y-112771953D01*
X108972495Y-112775690D01*
X109162228Y-112875513D01*
X109168560Y-112878136D01*
X109334338Y-112929611D01*
X109345133Y-112929093D01*
X109346122Y-112928178D01*
X109347000Y-112924558D01*
X109347000Y-112918547D01*
X110109000Y-112918547D01*
X110112697Y-112928704D01*
X110114328Y-112929646D01*
X110117163Y-112929504D01*
X110258012Y-112889780D01*
X110264411Y-112887323D01*
X110456690Y-112792502D01*
X110462548Y-112788912D01*
X110634321Y-112660644D01*
X110639425Y-112656048D01*
X110784952Y-112498618D01*
X110789127Y-112493178D01*
X110828565Y-112430671D01*
X111185001Y-112430671D01*
X111185221Y-112434740D01*
X111191186Y-112489651D01*
X111193350Y-112498755D01*
X111240493Y-112624509D01*
X111245583Y-112633806D01*
X111325743Y-112740764D01*
X111333236Y-112748257D01*
X111440194Y-112828417D01*
X111449491Y-112833507D01*
X111575244Y-112880650D01*
X111584351Y-112882815D01*
X111639261Y-112888780D01*
X111643327Y-112889000D01*
X111694741Y-112889000D01*
X111704898Y-112885303D01*
X111708000Y-112879931D01*
X111708000Y-112875740D01*
X112470000Y-112875740D01*
X112473697Y-112885897D01*
X112479069Y-112888999D01*
X112534671Y-112888999D01*
X112538740Y-112888779D01*
X112593651Y-112882814D01*
X112602755Y-112880650D01*
X112728509Y-112833507D01*
X112737806Y-112828417D01*
X112844764Y-112748257D01*
X112852257Y-112740764D01*
X112932417Y-112633806D01*
X112937507Y-112624509D01*
X112984650Y-112498756D01*
X112986815Y-112489649D01*
X112992780Y-112434739D01*
X112993000Y-112430673D01*
X112993000Y-112154259D01*
X112989303Y-112144102D01*
X112983931Y-112141000D01*
X112483259Y-112141000D01*
X112473102Y-112144697D01*
X112470000Y-112150069D01*
X112470000Y-112875740D01*
X111708000Y-112875740D01*
X111708000Y-112154259D01*
X111704303Y-112144102D01*
X111698931Y-112141000D01*
X111198260Y-112141000D01*
X111188103Y-112144697D01*
X111185001Y-112150069D01*
X111185001Y-112430671D01*
X110828565Y-112430671D01*
X110903530Y-112311858D01*
X110906646Y-112305744D01*
X110967458Y-112153317D01*
X110967783Y-112142677D01*
X110961885Y-112141000D01*
X110122259Y-112141000D01*
X110112102Y-112144697D01*
X110109000Y-112150069D01*
X110109000Y-112918547D01*
X109347000Y-112918547D01*
X109347000Y-112154259D01*
X109343303Y-112144102D01*
X109337931Y-112141000D01*
X108498406Y-112141000D01*
X108488249Y-112144697D01*
X108488114Y-112144930D01*
X100482400Y-112144930D01*
X100482400Y-111377323D01*
X108488217Y-111377323D01*
X108494115Y-111379000D01*
X109333741Y-111379000D01*
X109343898Y-111375303D01*
X109347000Y-111369931D01*
X109347000Y-111365741D01*
X110109000Y-111365741D01*
X110112697Y-111375898D01*
X110118069Y-111379000D01*
X110957594Y-111379000D01*
X110967751Y-111375303D01*
X110967886Y-111375070D01*
X110967398Y-111369635D01*
X110965961Y-111365741D01*
X111185000Y-111365741D01*
X111188697Y-111375898D01*
X111194069Y-111379000D01*
X111694741Y-111379000D01*
X111704898Y-111375303D01*
X111708000Y-111369931D01*
X111708000Y-111365741D01*
X112470000Y-111365741D01*
X112473697Y-111375898D01*
X112479069Y-111379000D01*
X112979740Y-111379000D01*
X112989897Y-111375303D01*
X112992999Y-111369931D01*
X112992999Y-111089329D01*
X112992779Y-111085260D01*
X112986814Y-111030349D01*
X112984650Y-111021245D01*
X112937507Y-110895491D01*
X112932417Y-110886194D01*
X112852257Y-110779236D01*
X112844764Y-110771743D01*
X112737806Y-110691583D01*
X112728509Y-110686493D01*
X112602756Y-110639350D01*
X112593649Y-110637185D01*
X112538739Y-110631220D01*
X112534673Y-110631000D01*
X112483259Y-110631000D01*
X112473102Y-110634697D01*
X112470000Y-110640069D01*
X112470000Y-111365741D01*
X111708000Y-111365741D01*
X111708000Y-110644260D01*
X111704303Y-110634103D01*
X111698931Y-110631001D01*
X111643329Y-110631001D01*
X111639260Y-110631221D01*
X111584349Y-110637186D01*
X111575245Y-110639350D01*
X111449491Y-110686493D01*
X111440194Y-110691583D01*
X111333236Y-110771743D01*
X111325743Y-110779236D01*
X111245583Y-110886194D01*
X111240493Y-110895491D01*
X111193350Y-111021244D01*
X111191185Y-111030351D01*
X111185220Y-111085261D01*
X111185000Y-111089327D01*
X111185000Y-111365741D01*
X110965961Y-111365741D01*
X110920561Y-111242678D01*
X110917604Y-111236480D01*
X110807993Y-111052240D01*
X110803955Y-111046682D01*
X110662605Y-110885503D01*
X110657619Y-110880772D01*
X110489260Y-110748047D01*
X110483505Y-110744310D01*
X110293772Y-110644487D01*
X110287440Y-110641864D01*
X110121662Y-110590389D01*
X110110867Y-110590907D01*
X110109878Y-110591822D01*
X110109000Y-110595442D01*
X110109000Y-111365741D01*
X109347000Y-111365741D01*
X109347000Y-110601453D01*
X109343303Y-110591296D01*
X109341672Y-110590354D01*
X109338837Y-110590496D01*
X109197988Y-110630220D01*
X109191589Y-110632677D01*
X108999310Y-110727498D01*
X108993452Y-110731088D01*
X108821679Y-110859356D01*
X108816575Y-110863952D01*
X108671048Y-111021382D01*
X108666873Y-111026822D01*
X108552470Y-111208142D01*
X108549354Y-111214256D01*
X108488542Y-111366683D01*
X108488217Y-111377323D01*
X100482400Y-111377323D01*
X100482400Y-110263171D01*
X105399001Y-110263171D01*
X105399221Y-110267240D01*
X105405186Y-110322151D01*
X105407350Y-110331255D01*
X105454493Y-110457009D01*
X105459583Y-110466306D01*
X105539743Y-110573264D01*
X105547236Y-110580757D01*
X105654194Y-110660917D01*
X105663491Y-110666007D01*
X105789244Y-110713150D01*
X105798351Y-110715315D01*
X105853261Y-110721280D01*
X105857327Y-110721500D01*
X106158741Y-110721500D01*
X106168898Y-110717803D01*
X106172000Y-110712431D01*
X106172000Y-110708240D01*
X106934000Y-110708240D01*
X106937697Y-110718397D01*
X106943069Y-110721499D01*
X107248671Y-110721499D01*
X107252740Y-110721279D01*
X107307651Y-110715314D01*
X107316755Y-110713150D01*
X107442509Y-110666007D01*
X107451806Y-110660917D01*
X107558764Y-110580757D01*
X107566257Y-110573264D01*
X107646417Y-110466306D01*
X107651507Y-110457009D01*
X107698650Y-110331256D01*
X107700815Y-110322149D01*
X107706780Y-110267239D01*
X107707000Y-110263173D01*
X107707000Y-110199259D01*
X107703303Y-110189102D01*
X107697931Y-110186000D01*
X106947259Y-110186000D01*
X106937102Y-110189697D01*
X106934000Y-110195069D01*
X106934000Y-110708240D01*
X106172000Y-110708240D01*
X106172000Y-110199259D01*
X106168303Y-110189102D01*
X106162931Y-110186000D01*
X105412260Y-110186000D01*
X105402103Y-110189697D01*
X105399001Y-110195069D01*
X105399001Y-110263171D01*
X100482400Y-110263171D01*
X100482400Y-109410741D01*
X105399000Y-109410741D01*
X105402697Y-109420898D01*
X105408069Y-109424000D01*
X106158741Y-109424000D01*
X106168898Y-109420303D01*
X106172000Y-109414931D01*
X106172000Y-109410741D01*
X106934000Y-109410741D01*
X106937697Y-109420898D01*
X106943069Y-109424000D01*
X107693740Y-109424000D01*
X107703897Y-109420303D01*
X107706999Y-109414931D01*
X107706999Y-109346829D01*
X107706779Y-109342760D01*
X107703319Y-109310906D01*
X108472929Y-109310906D01*
X108473512Y-109314297D01*
X108473512Y-109314301D01*
X108508254Y-109516487D01*
X108508837Y-109519879D01*
X108582226Y-109718809D01*
X108690638Y-109901033D01*
X108692912Y-109903626D01*
X108806195Y-110032800D01*
X108830443Y-110060450D01*
X108833150Y-110062584D01*
X108833152Y-110062586D01*
X108994253Y-110189588D01*
X108994256Y-110189590D01*
X108996958Y-110191720D01*
X109000005Y-110193323D01*
X109000008Y-110193325D01*
X109181560Y-110288844D01*
X109184607Y-110290447D01*
X109187892Y-110291467D01*
X109383816Y-110352303D01*
X109383819Y-110352304D01*
X109387105Y-110353324D01*
X109390525Y-110353729D01*
X109390526Y-110353729D01*
X109424963Y-110357805D01*
X109559261Y-110373700D01*
X109881793Y-110373700D01*
X109883487Y-110373544D01*
X109883494Y-110373544D01*
X109944374Y-110367950D01*
X110039146Y-110359241D01*
X110243221Y-110301686D01*
X110246309Y-110300163D01*
X110246312Y-110300162D01*
X110347029Y-110250494D01*
X110433389Y-110207906D01*
X110603283Y-110081040D01*
X110747213Y-109925337D01*
X110752720Y-109916610D01*
X110835913Y-109784756D01*
X110860358Y-109746013D01*
X110861634Y-109742816D01*
X110861636Y-109742811D01*
X110937650Y-109552281D01*
X110937651Y-109552278D01*
X110938930Y-109549072D01*
X110942495Y-109531154D01*
X110979623Y-109344494D01*
X110980296Y-109341111D01*
X110983071Y-109129094D01*
X110980483Y-109114029D01*
X110947746Y-108923513D01*
X110947746Y-108923511D01*
X110947163Y-108920121D01*
X110873774Y-108721191D01*
X110765362Y-108538967D01*
X110714740Y-108481244D01*
X110627833Y-108382145D01*
X110627832Y-108382144D01*
X110625557Y-108379550D01*
X110596821Y-108356896D01*
X110461747Y-108250412D01*
X110461744Y-108250410D01*
X110459042Y-108248280D01*
X110455995Y-108246677D01*
X110455992Y-108246675D01*
X110274440Y-108151156D01*
X110274439Y-108151156D01*
X110271393Y-108149553D01*
X110245873Y-108141629D01*
X110072184Y-108087697D01*
X110072181Y-108087696D01*
X110068895Y-108086676D01*
X110065475Y-108086271D01*
X110065474Y-108086271D01*
X110021606Y-108081079D01*
X109896739Y-108066300D01*
X109574207Y-108066300D01*
X109572513Y-108066456D01*
X109572506Y-108066456D01*
X109511626Y-108072050D01*
X109416854Y-108080759D01*
X109212779Y-108138314D01*
X109209691Y-108139837D01*
X109209688Y-108139838D01*
X109115578Y-108186248D01*
X109022611Y-108232094D01*
X108852717Y-108358960D01*
X108708787Y-108514663D01*
X108706952Y-108517572D01*
X108706950Y-108517574D01*
X108691193Y-108542548D01*
X108595642Y-108693987D01*
X108594366Y-108697184D01*
X108594364Y-108697189D01*
X108518350Y-108887719D01*
X108517070Y-108890928D01*
X108516397Y-108894309D01*
X108516396Y-108894314D01*
X108505502Y-108949083D01*
X108475704Y-109098889D01*
X108472929Y-109310906D01*
X107703319Y-109310906D01*
X107700814Y-109287849D01*
X107698650Y-109278745D01*
X107651507Y-109152991D01*
X107646417Y-109143694D01*
X107566257Y-109036736D01*
X107558764Y-109029243D01*
X107451806Y-108949083D01*
X107442509Y-108943993D01*
X107316756Y-108896850D01*
X107307649Y-108894685D01*
X107252739Y-108888720D01*
X107248673Y-108888500D01*
X106947259Y-108888500D01*
X106937102Y-108892197D01*
X106934000Y-108897569D01*
X106934000Y-109410741D01*
X106172000Y-109410741D01*
X106172000Y-108901760D01*
X106168303Y-108891603D01*
X106162931Y-108888501D01*
X105857329Y-108888501D01*
X105853260Y-108888721D01*
X105798349Y-108894686D01*
X105789245Y-108896850D01*
X105663491Y-108943993D01*
X105654194Y-108949083D01*
X105547236Y-109029243D01*
X105539743Y-109036736D01*
X105459583Y-109143694D01*
X105454493Y-109152991D01*
X105407350Y-109278744D01*
X105405185Y-109287851D01*
X105399220Y-109342761D01*
X105399000Y-109346827D01*
X105399000Y-109410741D01*
X100482400Y-109410741D01*
X100482400Y-107551319D01*
X101766001Y-107551319D01*
X101766723Y-107558644D01*
X101779292Y-107621840D01*
X101784852Y-107635264D01*
X101832764Y-107706970D01*
X101843030Y-107717236D01*
X101914738Y-107765149D01*
X101928157Y-107770708D01*
X101991358Y-107783279D01*
X101998679Y-107784000D01*
X102475741Y-107784000D01*
X102485898Y-107780303D01*
X102489000Y-107774931D01*
X102489000Y-107770740D01*
X103251000Y-107770740D01*
X103254697Y-107780897D01*
X103260069Y-107783999D01*
X103741319Y-107783999D01*
X103748644Y-107783277D01*
X103811840Y-107770708D01*
X103825264Y-107765148D01*
X103896970Y-107717236D01*
X103907236Y-107706970D01*
X103955149Y-107635262D01*
X103960708Y-107621843D01*
X103973279Y-107558642D01*
X103974000Y-107551321D01*
X103974000Y-107074259D01*
X103970303Y-107064102D01*
X103964931Y-107061000D01*
X103264259Y-107061000D01*
X103254102Y-107064697D01*
X103251000Y-107070069D01*
X103251000Y-107770740D01*
X102489000Y-107770740D01*
X102489000Y-107074259D01*
X102485303Y-107064102D01*
X102479931Y-107061000D01*
X101779260Y-107061000D01*
X101769103Y-107064697D01*
X101766001Y-107070069D01*
X101766001Y-107551319D01*
X100482400Y-107551319D01*
X100482400Y-106285741D01*
X101766000Y-106285741D01*
X101769697Y-106295898D01*
X101775069Y-106299000D01*
X102475741Y-106299000D01*
X102485898Y-106295303D01*
X102489000Y-106289931D01*
X102489000Y-106285741D01*
X103251000Y-106285741D01*
X103254697Y-106295898D01*
X103260069Y-106299000D01*
X103960740Y-106299000D01*
X103970897Y-106295303D01*
X103973999Y-106289931D01*
X103973999Y-105808681D01*
X103973277Y-105801356D01*
X103960708Y-105738160D01*
X103955148Y-105724736D01*
X103907236Y-105653030D01*
X103896970Y-105642764D01*
X103825262Y-105594851D01*
X103811843Y-105589292D01*
X103748642Y-105576721D01*
X103741321Y-105576000D01*
X103264259Y-105576000D01*
X103254102Y-105579697D01*
X103251000Y-105585069D01*
X103251000Y-106285741D01*
X102489000Y-106285741D01*
X102489000Y-105589260D01*
X102485303Y-105579103D01*
X102479931Y-105576001D01*
X101998681Y-105576001D01*
X101991356Y-105576723D01*
X101928160Y-105589292D01*
X101914736Y-105594852D01*
X101843030Y-105642764D01*
X101832764Y-105653030D01*
X101784851Y-105724738D01*
X101779292Y-105738157D01*
X101766721Y-105801358D01*
X101766000Y-105808679D01*
X101766000Y-106285741D01*
X100482400Y-106285741D01*
X100482400Y-104125217D01*
X101811305Y-104125217D01*
X101811613Y-104128885D01*
X101811613Y-104128888D01*
X101824911Y-104287244D01*
X101828596Y-104331133D01*
X101885555Y-104529770D01*
X101980010Y-104713560D01*
X102108364Y-104875503D01*
X102265730Y-105009431D01*
X102268941Y-105011225D01*
X102268943Y-105011227D01*
X102442900Y-105108449D01*
X102442905Y-105108451D01*
X102446111Y-105110243D01*
X102449612Y-105111381D01*
X102449613Y-105111381D01*
X102455596Y-105113325D01*
X102642639Y-105174099D01*
X102755982Y-105187614D01*
X102844168Y-105198130D01*
X102844170Y-105198130D01*
X102847826Y-105198566D01*
X103053858Y-105182712D01*
X103252887Y-105127143D01*
X103437332Y-105033973D01*
X103600168Y-104906752D01*
X103625192Y-104877762D01*
X103670092Y-104852668D01*
X103682116Y-104851700D01*
X105388857Y-104851700D01*
X105437195Y-104869293D01*
X105442019Y-104873714D01*
X105819276Y-105250972D01*
X105841014Y-105297590D01*
X105841300Y-105304144D01*
X105841300Y-105754984D01*
X105823707Y-105803322D01*
X105791017Y-105825935D01*
X105688302Y-105862006D01*
X105683783Y-105865344D01*
X105683779Y-105865346D01*
X105592391Y-105932848D01*
X105578562Y-105943062D01*
X105575225Y-105947580D01*
X105500846Y-106048279D01*
X105500844Y-106048283D01*
X105497506Y-106052802D01*
X105452302Y-106181525D01*
X105451871Y-106186088D01*
X105451870Y-106186091D01*
X105450928Y-106196059D01*
X105449300Y-106213283D01*
X105449301Y-107146716D01*
X105449467Y-107148470D01*
X105449467Y-107148476D01*
X105451849Y-107173677D01*
X105452302Y-107178475D01*
X105453818Y-107182793D01*
X105453819Y-107182796D01*
X105473188Y-107237951D01*
X105497506Y-107307198D01*
X105500844Y-107311717D01*
X105500846Y-107311721D01*
X105553071Y-107382426D01*
X105578562Y-107416938D01*
X105583080Y-107420275D01*
X105683779Y-107494654D01*
X105683783Y-107494656D01*
X105688302Y-107497994D01*
X105817025Y-107543198D01*
X105821588Y-107543629D01*
X105821591Y-107543630D01*
X105847023Y-107546034D01*
X105847031Y-107546034D01*
X105848783Y-107546200D01*
X106551407Y-107546200D01*
X107257216Y-107546199D01*
X107258970Y-107546033D01*
X107258976Y-107546033D01*
X107284418Y-107543629D01*
X107284421Y-107543628D01*
X107288975Y-107543198D01*
X107293293Y-107541682D01*
X107293296Y-107541681D01*
X107361142Y-107517855D01*
X107417698Y-107497994D01*
X107422217Y-107494656D01*
X107422221Y-107494654D01*
X107522920Y-107420275D01*
X107527438Y-107416938D01*
X107529990Y-107413483D01*
X107576089Y-107391986D01*
X107582643Y-107391700D01*
X108683460Y-107391700D01*
X108731798Y-107409293D01*
X108739998Y-107417317D01*
X108810750Y-107497994D01*
X108830443Y-107520450D01*
X108833150Y-107522584D01*
X108833152Y-107522586D01*
X108994253Y-107649588D01*
X108994256Y-107649590D01*
X108996958Y-107651720D01*
X109000005Y-107653323D01*
X109000008Y-107653325D01*
X109027722Y-107667906D01*
X109184607Y-107750447D01*
X109187892Y-107751467D01*
X109383816Y-107812303D01*
X109383819Y-107812304D01*
X109387105Y-107813324D01*
X109390525Y-107813729D01*
X109390526Y-107813729D01*
X109424963Y-107817805D01*
X109559261Y-107833700D01*
X109881793Y-107833700D01*
X109883487Y-107833544D01*
X109883494Y-107833544D01*
X109944374Y-107827950D01*
X110039146Y-107819241D01*
X110243221Y-107761686D01*
X110246309Y-107760163D01*
X110246312Y-107760162D01*
X110354175Y-107706970D01*
X110433389Y-107667906D01*
X110603283Y-107541040D01*
X110719004Y-107415854D01*
X110764734Y-107392301D01*
X110774224Y-107391700D01*
X114228057Y-107391700D01*
X114276395Y-107409293D01*
X114281231Y-107413726D01*
X116360274Y-109492770D01*
X116382014Y-109539390D01*
X116382300Y-109545944D01*
X116382300Y-110208694D01*
X116382126Y-110213809D01*
X116378761Y-110263173D01*
X116378055Y-110273521D01*
X116378835Y-110277990D01*
X116389323Y-110338084D01*
X116389898Y-110341978D01*
X116390721Y-110348779D01*
X116397768Y-110407011D01*
X116399370Y-110411251D01*
X116399372Y-110411258D01*
X116401918Y-110417994D01*
X116405653Y-110431643D01*
X116407672Y-110443215D01*
X116434018Y-110503232D01*
X116435488Y-110506835D01*
X116458657Y-110568149D01*
X116465308Y-110577827D01*
X116472191Y-110590194D01*
X116475086Y-110596791D01*
X116475090Y-110596798D01*
X116476911Y-110600946D01*
X116479670Y-110604542D01*
X116479672Y-110604545D01*
X116498787Y-110629455D01*
X116516810Y-110652944D01*
X116519104Y-110656101D01*
X116536707Y-110681714D01*
X116545189Y-110694054D01*
X116556225Y-110710112D01*
X116559610Y-110713128D01*
X116559611Y-110713129D01*
X116604065Y-110752736D01*
X116607214Y-110755709D01*
X117714445Y-111862941D01*
X117717939Y-111866681D01*
X117757282Y-111911781D01*
X117777996Y-111926339D01*
X117810903Y-111949466D01*
X117814057Y-111951808D01*
X117865613Y-111992233D01*
X117869741Y-111994097D01*
X117869743Y-111994098D01*
X117876312Y-111997064D01*
X117888605Y-112004076D01*
X117894501Y-112008220D01*
X117894507Y-112008223D01*
X117898216Y-112010830D01*
X117902440Y-112012477D01*
X117902444Y-112012479D01*
X117959266Y-112034632D01*
X117962896Y-112036158D01*
X118022609Y-112063120D01*
X118034152Y-112065259D01*
X118047767Y-112069137D01*
X118058708Y-112073403D01*
X118123685Y-112081958D01*
X118127544Y-112082569D01*
X118191983Y-112094512D01*
X118196511Y-112094251D01*
X118196513Y-112094251D01*
X118255927Y-112090825D01*
X118260256Y-112090700D01*
X119816056Y-112090700D01*
X119864394Y-112108293D01*
X119869231Y-112112726D01*
X120125260Y-112368756D01*
X120146999Y-112415376D01*
X120133685Y-112465063D01*
X120086756Y-112495685D01*
X120074520Y-112498119D01*
X120007140Y-112543140D01*
X119962119Y-112610520D01*
X119950300Y-112669936D01*
X119950300Y-114710064D01*
X119962119Y-114769480D01*
X120007140Y-114836860D01*
X120026017Y-114849473D01*
X120031879Y-114853390D01*
X120062296Y-114894874D01*
X120065300Y-114915917D01*
X120065300Y-118711100D01*
X120047707Y-118759438D01*
X120003158Y-118785158D01*
X119990100Y-118786300D01*
X118983936Y-118786300D01*
X118924520Y-118798119D01*
X118913278Y-118805630D01*
X118863315Y-118817857D01*
X118817179Y-118795107D01*
X118796300Y-118743104D01*
X118796300Y-117624949D01*
X118813893Y-117576611D01*
X118818326Y-117571775D01*
X119154333Y-117235768D01*
X119159244Y-117231273D01*
X119195030Y-117201324D01*
X119198151Y-117198712D01*
X119248339Y-117133716D01*
X119249247Y-117132564D01*
X119298176Y-117071710D01*
X119298177Y-117071709D01*
X119300731Y-117068532D01*
X119302545Y-117064878D01*
X119304735Y-117061453D01*
X119304967Y-117061601D01*
X119305141Y-117061324D01*
X119304906Y-117061180D01*
X119307032Y-117057707D01*
X119309523Y-117054481D01*
X119344567Y-116980259D01*
X119345210Y-116978930D01*
X119379944Y-116908958D01*
X119379945Y-116908955D01*
X119381755Y-116905309D01*
X119382740Y-116901358D01*
X119384146Y-116897536D01*
X119384404Y-116897631D01*
X119384514Y-116897322D01*
X119384255Y-116897233D01*
X119385588Y-116893377D01*
X119387325Y-116889699D01*
X119405635Y-116809588D01*
X119405979Y-116808152D01*
X119424855Y-116732442D01*
X119424855Y-116732441D01*
X119425839Y-116728495D01*
X119425953Y-116724432D01*
X119426507Y-116720388D01*
X119426771Y-116720424D01*
X119427060Y-116718145D01*
X119426802Y-116718108D01*
X119427241Y-116715057D01*
X119427927Y-116712053D01*
X119428267Y-116706457D01*
X119428452Y-116667839D01*
X119428638Y-116629061D01*
X119428666Y-116627321D01*
X119430814Y-116550412D01*
X119430928Y-116546340D01*
X119430164Y-116542337D01*
X119429838Y-116538280D01*
X119429936Y-116538272D01*
X119429115Y-116529361D01*
X119436823Y-114919485D01*
X119454648Y-114871232D01*
X119470243Y-114857319D01*
X119494699Y-114840978D01*
X119494703Y-114840974D01*
X119500860Y-114836860D01*
X119545881Y-114769480D01*
X119557700Y-114710064D01*
X119557700Y-112669936D01*
X119545881Y-112610520D01*
X119500860Y-112543140D01*
X119433480Y-112498119D01*
X119374064Y-112486300D01*
X117833936Y-112486300D01*
X117774520Y-112498119D01*
X117707140Y-112543140D01*
X117662119Y-112610520D01*
X117650300Y-112669936D01*
X117650300Y-114710064D01*
X117662119Y-114769480D01*
X117707140Y-114836860D01*
X117713297Y-114840974D01*
X117713299Y-114840976D01*
X117726016Y-114849473D01*
X117756434Y-114890956D01*
X117759437Y-114912360D01*
X117753110Y-116234000D01*
X117735285Y-116282253D01*
X117731085Y-116286814D01*
X117391727Y-116626172D01*
X117387091Y-116630436D01*
X117346656Y-116664606D01*
X117344185Y-116667838D01*
X117344184Y-116667839D01*
X117298100Y-116728114D01*
X117296966Y-116729560D01*
X117249418Y-116788697D01*
X117249416Y-116788700D01*
X117246869Y-116791868D01*
X117245062Y-116795509D01*
X117242862Y-116798948D01*
X117242828Y-116798926D01*
X117240523Y-116802628D01*
X117240559Y-116802650D01*
X117238449Y-116806135D01*
X117235976Y-116809369D01*
X117234256Y-116813058D01*
X117234254Y-116813061D01*
X117202197Y-116881808D01*
X117201404Y-116883457D01*
X117165845Y-116955091D01*
X117164859Y-116959046D01*
X117163454Y-116962864D01*
X117163415Y-116962850D01*
X117161958Y-116966964D01*
X117161997Y-116966977D01*
X117160685Y-116970831D01*
X117158964Y-116974522D01*
X117141916Y-117050795D01*
X117141522Y-117052557D01*
X117141106Y-117054315D01*
X117121761Y-117131905D01*
X117121647Y-117135977D01*
X117121094Y-117140014D01*
X117121052Y-117140008D01*
X117120270Y-117146286D01*
X117120310Y-117146292D01*
X117119911Y-117149164D01*
X117119892Y-117149320D01*
X117119886Y-117149346D01*
X117119885Y-117149355D01*
X117119213Y-117152360D01*
X117118900Y-117157958D01*
X117118900Y-117233269D01*
X117118871Y-117235369D01*
X117116673Y-117314060D01*
X117117437Y-117318065D01*
X117117568Y-117318753D01*
X117118900Y-117332843D01*
X117118900Y-121729178D01*
X117118636Y-121735471D01*
X117114207Y-121788212D01*
X117120555Y-121835786D01*
X117124780Y-121867449D01*
X117124997Y-121869245D01*
X117133635Y-121948760D01*
X117134933Y-121952618D01*
X117135808Y-121956597D01*
X117135767Y-121956606D01*
X117136756Y-121960858D01*
X117136797Y-121960848D01*
X117137768Y-121964803D01*
X117138307Y-121968838D01*
X117156337Y-122018373D01*
X117165658Y-122043983D01*
X117166265Y-122045718D01*
X117190458Y-122117608D01*
X117190460Y-122117613D01*
X117191758Y-122121469D01*
X117193854Y-122124957D01*
X117195564Y-122128658D01*
X117195526Y-122128675D01*
X117197405Y-122132613D01*
X117197442Y-122132595D01*
X117199239Y-122136247D01*
X117200632Y-122140074D01*
X117242371Y-122205842D01*
X117243470Y-122207574D01*
X117244431Y-122209131D01*
X117248201Y-122215404D01*
X117268566Y-122249297D01*
X117285612Y-122277667D01*
X117288405Y-122280620D01*
X117290873Y-122283872D01*
X117290840Y-122283897D01*
X117294729Y-122288892D01*
X117294761Y-122288868D01*
X117296506Y-122291175D01*
X117296608Y-122291307D01*
X117298275Y-122293933D01*
X117302012Y-122298113D01*
X117312374Y-122308475D01*
X117334114Y-122355095D01*
X117334400Y-122361649D01*
X117334400Y-122422245D01*
X117330152Y-122447160D01*
X117309902Y-122504825D01*
X117306900Y-122536583D01*
X117306901Y-123945016D01*
X117307067Y-123946770D01*
X117307067Y-123946776D01*
X117309471Y-123972209D01*
X117309902Y-123976775D01*
X117311421Y-123981100D01*
X117317852Y-123999412D01*
X117322100Y-124024329D01*
X117322100Y-127321149D01*
X117304507Y-127369487D01*
X117281214Y-127386566D01*
X117281320Y-127386724D01*
X117213940Y-127431745D01*
X117172334Y-127494014D01*
X117172333Y-127494015D01*
X117171336Y-127495507D01*
X117168919Y-127499125D01*
X117168132Y-127498599D01*
X117138066Y-127531409D01*
X117103344Y-127539905D01*
X116311154Y-127539905D01*
X116262816Y-127522312D01*
X116257980Y-127517879D01*
X115160726Y-126420625D01*
X115138986Y-126374005D01*
X115138700Y-126367451D01*
X115138700Y-125686900D01*
X115156293Y-125638562D01*
X115200842Y-125612842D01*
X115213900Y-125611700D01*
X115220064Y-125611700D01*
X115279480Y-125599881D01*
X115346860Y-125554860D01*
X115391881Y-125487480D01*
X115403700Y-125428064D01*
X115403700Y-121887936D01*
X115391881Y-121828520D01*
X115364949Y-121788212D01*
X115350974Y-121767297D01*
X115346860Y-121761140D01*
X115279480Y-121716119D01*
X115232215Y-121706717D01*
X115223689Y-121705021D01*
X115223688Y-121705021D01*
X115220064Y-121704300D01*
X113379936Y-121704300D01*
X113376312Y-121705021D01*
X113376311Y-121705021D01*
X113367785Y-121706717D01*
X113320520Y-121716119D01*
X113253140Y-121761140D01*
X113249026Y-121767297D01*
X113235051Y-121788212D01*
X113208119Y-121828520D01*
X113196300Y-121887936D01*
X113196300Y-125428064D01*
X113208119Y-125487480D01*
X113253140Y-125554860D01*
X113320520Y-125599881D01*
X113379936Y-125611700D01*
X113386100Y-125611700D01*
X113387016Y-125612033D01*
X113387307Y-125612062D01*
X113387300Y-125612137D01*
X113434438Y-125629293D01*
X113460158Y-125673842D01*
X113461300Y-125686900D01*
X113461300Y-126707578D01*
X113461036Y-126713871D01*
X113456607Y-126766612D01*
X113457147Y-126770656D01*
X113467180Y-126845849D01*
X113467397Y-126847645D01*
X113476035Y-126927160D01*
X113477333Y-126931018D01*
X113478208Y-126934997D01*
X113478167Y-126935006D01*
X113479156Y-126939258D01*
X113479197Y-126939248D01*
X113480168Y-126943203D01*
X113480707Y-126947238D01*
X113482099Y-126951062D01*
X113508058Y-127022383D01*
X113508665Y-127024118D01*
X113532858Y-127096008D01*
X113532860Y-127096013D01*
X113534158Y-127099869D01*
X113536254Y-127103357D01*
X113537964Y-127107058D01*
X113537926Y-127107075D01*
X113539805Y-127111013D01*
X113539842Y-127110995D01*
X113541639Y-127114647D01*
X113543032Y-127118474D01*
X113545213Y-127121910D01*
X113585870Y-127185974D01*
X113586831Y-127187531D01*
X113628012Y-127256067D01*
X113630805Y-127259020D01*
X113633273Y-127262272D01*
X113633240Y-127262297D01*
X113637129Y-127267292D01*
X113637161Y-127267268D01*
X113638906Y-127269575D01*
X113639008Y-127269707D01*
X113640675Y-127272333D01*
X113644412Y-127276513D01*
X113697658Y-127329759D01*
X113699122Y-127331264D01*
X113753217Y-127388468D01*
X113756582Y-127390755D01*
X113756587Y-127390759D01*
X113757170Y-127391155D01*
X113768077Y-127400178D01*
X115312377Y-128944478D01*
X115316641Y-128949114D01*
X115350811Y-128989549D01*
X115354043Y-128992020D01*
X115354044Y-128992021D01*
X115414319Y-129038105D01*
X115415765Y-129039239D01*
X115474902Y-129086787D01*
X115474905Y-129086789D01*
X115478073Y-129089336D01*
X115481714Y-129091143D01*
X115485153Y-129093343D01*
X115485131Y-129093377D01*
X115488833Y-129095682D01*
X115488855Y-129095646D01*
X115492340Y-129097756D01*
X115495574Y-129100229D01*
X115499263Y-129101949D01*
X115499266Y-129101951D01*
X115568013Y-129134008D01*
X115569662Y-129134801D01*
X115641296Y-129170360D01*
X115645251Y-129171346D01*
X115649069Y-129172751D01*
X115649055Y-129172790D01*
X115653169Y-129174247D01*
X115653182Y-129174208D01*
X115657036Y-129175520D01*
X115660727Y-129177241D01*
X115738788Y-129194689D01*
X115740515Y-129195098D01*
X115818109Y-129214444D01*
X115822180Y-129214558D01*
X115826218Y-129215111D01*
X115826212Y-129215153D01*
X115832491Y-129215935D01*
X115832497Y-129215895D01*
X115835370Y-129216294D01*
X115835525Y-129216313D01*
X115835551Y-129216319D01*
X115835560Y-129216320D01*
X115838565Y-129216992D01*
X115844163Y-129217305D01*
X115919473Y-129217305D01*
X115921573Y-129217334D01*
X116000264Y-129219532D01*
X116004269Y-129218768D01*
X116004957Y-129218637D01*
X116019047Y-129217305D01*
X117103344Y-129217305D01*
X117151682Y-129234898D01*
X117168761Y-129258191D01*
X117168919Y-129258085D01*
X117213940Y-129325465D01*
X117220097Y-129329579D01*
X117248236Y-129348380D01*
X117281320Y-129370486D01*
X117340736Y-129382305D01*
X118980864Y-129382305D01*
X119040280Y-129370486D01*
X119073365Y-129348380D01*
X119101503Y-129329579D01*
X119107660Y-129325465D01*
X119152681Y-129258085D01*
X119153468Y-129258611D01*
X119183534Y-129225801D01*
X119218256Y-129217305D01*
X122555000Y-129217306D01*
X125891744Y-129217306D01*
X125940082Y-129234899D01*
X125957161Y-129258192D01*
X125957319Y-129258086D01*
X126002340Y-129325466D01*
X126069720Y-129370487D01*
X126129136Y-129382306D01*
X127769264Y-129382306D01*
X127828680Y-129370487D01*
X127896060Y-129325466D01*
X127941081Y-129258086D01*
X127952900Y-129198670D01*
X127952900Y-127558542D01*
X127941081Y-127499126D01*
X127896060Y-127431746D01*
X127889902Y-127427631D01*
X127834840Y-127390841D01*
X127828680Y-127386725D01*
X127769264Y-127374906D01*
X126129136Y-127374906D01*
X126069720Y-127386725D01*
X126063560Y-127390841D01*
X126008499Y-127427631D01*
X126002340Y-127431746D01*
X125957319Y-127499126D01*
X125956532Y-127498600D01*
X125926466Y-127531410D01*
X125891744Y-127539906D01*
X122555000Y-127539906D01*
X119218256Y-127539905D01*
X119169918Y-127522312D01*
X119152839Y-127499019D01*
X119152681Y-127499125D01*
X119107660Y-127431745D01*
X119040280Y-127386724D01*
X119040806Y-127385937D01*
X119007996Y-127355871D01*
X118999500Y-127321149D01*
X118999500Y-124094380D01*
X119003748Y-124069463D01*
X119025906Y-124006368D01*
X119036298Y-123976775D01*
X119038434Y-123954185D01*
X119039134Y-123946777D01*
X119039134Y-123946769D01*
X119039300Y-123945017D01*
X119039300Y-123936471D01*
X120381601Y-123936471D01*
X120381821Y-123940540D01*
X120387786Y-123995451D01*
X120389950Y-124004555D01*
X120437093Y-124130309D01*
X120442183Y-124139606D01*
X120522343Y-124246564D01*
X120529836Y-124254057D01*
X120636794Y-124334217D01*
X120646091Y-124339307D01*
X120771844Y-124386450D01*
X120780951Y-124388615D01*
X120835861Y-124394580D01*
X120839927Y-124394800D01*
X120903841Y-124394800D01*
X120913998Y-124391103D01*
X120917100Y-124385731D01*
X120917100Y-124381540D01*
X121679100Y-124381540D01*
X121682797Y-124391697D01*
X121688169Y-124394799D01*
X121756271Y-124394799D01*
X121760340Y-124394579D01*
X121815251Y-124388614D01*
X121824355Y-124386450D01*
X121950109Y-124339307D01*
X121959406Y-124334217D01*
X122066364Y-124254057D01*
X122073857Y-124246564D01*
X122154017Y-124139606D01*
X122159107Y-124130309D01*
X122206250Y-124004556D01*
X122208415Y-123995449D01*
X122214380Y-123940539D01*
X122214600Y-123936473D01*
X122214600Y-123635059D01*
X122210903Y-123624902D01*
X122205531Y-123621800D01*
X121692359Y-123621800D01*
X121682202Y-123625497D01*
X121679100Y-123630869D01*
X121679100Y-124381540D01*
X120917100Y-124381540D01*
X120917100Y-123635059D01*
X120913403Y-123624902D01*
X120908031Y-123621800D01*
X120394860Y-123621800D01*
X120384703Y-123625497D01*
X120381601Y-123630869D01*
X120381601Y-123936471D01*
X119039300Y-123936471D01*
X119039299Y-122846541D01*
X120381600Y-122846541D01*
X120385297Y-122856698D01*
X120390669Y-122859800D01*
X120903841Y-122859800D01*
X120913998Y-122856103D01*
X120917100Y-122850731D01*
X120917100Y-122846541D01*
X121679100Y-122846541D01*
X121682797Y-122856698D01*
X121688169Y-122859800D01*
X122201340Y-122859800D01*
X122211497Y-122856103D01*
X122214599Y-122850731D01*
X122214599Y-122545129D01*
X122214379Y-122541060D01*
X122208414Y-122486149D01*
X122206250Y-122477045D01*
X122159107Y-122351291D01*
X122154017Y-122341994D01*
X122073857Y-122235036D01*
X122066364Y-122227543D01*
X121959406Y-122147383D01*
X121950109Y-122142293D01*
X121824356Y-122095150D01*
X121815249Y-122092985D01*
X121760339Y-122087020D01*
X121756273Y-122086800D01*
X121692359Y-122086800D01*
X121682202Y-122090497D01*
X121679100Y-122095869D01*
X121679100Y-122846541D01*
X120917100Y-122846541D01*
X120917100Y-122100060D01*
X120913403Y-122089903D01*
X120908031Y-122086801D01*
X120839929Y-122086801D01*
X120835860Y-122087021D01*
X120780949Y-122092986D01*
X120771845Y-122095150D01*
X120646091Y-122142293D01*
X120636794Y-122147383D01*
X120529836Y-122227543D01*
X120522343Y-122235036D01*
X120442183Y-122341994D01*
X120437093Y-122351291D01*
X120389950Y-122477044D01*
X120387785Y-122486151D01*
X120381820Y-122541061D01*
X120381600Y-122545127D01*
X120381600Y-122846541D01*
X119039299Y-122846541D01*
X119039299Y-122536584D01*
X119039133Y-122534823D01*
X119036729Y-122509382D01*
X119036728Y-122509379D01*
X119036298Y-122504825D01*
X119034779Y-122500497D01*
X119016048Y-122447161D01*
X119011800Y-122422245D01*
X119011800Y-122021522D01*
X119012064Y-122015229D01*
X119016152Y-121966553D01*
X119016152Y-121966550D01*
X119016493Y-121962488D01*
X119005917Y-121883222D01*
X119005699Y-121881426D01*
X119004281Y-121868366D01*
X118997065Y-121801940D01*
X118995767Y-121798082D01*
X118994892Y-121794103D01*
X118994933Y-121794094D01*
X118993944Y-121789842D01*
X118993903Y-121789852D01*
X118992932Y-121785897D01*
X118992393Y-121781862D01*
X118965037Y-121706703D01*
X118964435Y-121704982D01*
X118940242Y-121633092D01*
X118940240Y-121633087D01*
X118938942Y-121629231D01*
X118936846Y-121625743D01*
X118935136Y-121622042D01*
X118935174Y-121622025D01*
X118933295Y-121618087D01*
X118933258Y-121618105D01*
X118931461Y-121614453D01*
X118930068Y-121610626D01*
X118887226Y-121543119D01*
X118886264Y-121541562D01*
X118847183Y-121476519D01*
X118847181Y-121476516D01*
X118845088Y-121473033D01*
X118842295Y-121470080D01*
X118839827Y-121466828D01*
X118839860Y-121466803D01*
X118835971Y-121461808D01*
X118835939Y-121461832D01*
X118834194Y-121459525D01*
X118834090Y-121459391D01*
X118834075Y-121459367D01*
X118832425Y-121456767D01*
X118828688Y-121452587D01*
X118818326Y-121442225D01*
X118796586Y-121395605D01*
X118796300Y-121389051D01*
X118796300Y-121236896D01*
X118813893Y-121188558D01*
X118858442Y-121162838D01*
X118913278Y-121174370D01*
X118924520Y-121181881D01*
X118983936Y-121193700D01*
X122824064Y-121193700D01*
X122883480Y-121181881D01*
X122950860Y-121136860D01*
X122995881Y-121069480D01*
X123007700Y-121010064D01*
X123007700Y-120879199D01*
X123025293Y-120830861D01*
X123069842Y-120805141D01*
X123082044Y-120804004D01*
X123908367Y-120794614D01*
X125698412Y-120774273D01*
X125724182Y-120778516D01*
X125739952Y-120784054D01*
X125756025Y-120789698D01*
X125760588Y-120790129D01*
X125760591Y-120790130D01*
X125786023Y-120792534D01*
X125786031Y-120792534D01*
X125787783Y-120792700D01*
X126490407Y-120792700D01*
X127196216Y-120792699D01*
X127197970Y-120792533D01*
X127197976Y-120792533D01*
X127223418Y-120790129D01*
X127223421Y-120790128D01*
X127227975Y-120789698D01*
X127232293Y-120788182D01*
X127232296Y-120788181D01*
X127299489Y-120764584D01*
X127356698Y-120744494D01*
X127361217Y-120741156D01*
X127361221Y-120741154D01*
X127461920Y-120666775D01*
X127466438Y-120663438D01*
X127504653Y-120611700D01*
X127544154Y-120558221D01*
X127544156Y-120558217D01*
X127547494Y-120553698D01*
X127592698Y-120424975D01*
X127595700Y-120393217D01*
X127595699Y-119459784D01*
X127592698Y-119428025D01*
X127547494Y-119299302D01*
X127544156Y-119294783D01*
X127544154Y-119294779D01*
X127469775Y-119194080D01*
X127466438Y-119189562D01*
X127452609Y-119179348D01*
X127361221Y-119111846D01*
X127361217Y-119111844D01*
X127356698Y-119108506D01*
X127227975Y-119063302D01*
X127223412Y-119062871D01*
X127223409Y-119062870D01*
X127197977Y-119060466D01*
X127197969Y-119060466D01*
X127196217Y-119060300D01*
X126493593Y-119060300D01*
X125787784Y-119060301D01*
X125786030Y-119060467D01*
X125786024Y-119060467D01*
X125760582Y-119062871D01*
X125760579Y-119062872D01*
X125756025Y-119063302D01*
X125671159Y-119093105D01*
X125647102Y-119097347D01*
X123083753Y-119126476D01*
X123035220Y-119109433D01*
X123008996Y-119065180D01*
X123007700Y-119051281D01*
X123007700Y-118969936D01*
X122995881Y-118910520D01*
X122950860Y-118843140D01*
X122883480Y-118798119D01*
X122824064Y-118786300D01*
X121817900Y-118786300D01*
X121769562Y-118768707D01*
X121743842Y-118724158D01*
X121742700Y-118711100D01*
X121742700Y-117259671D01*
X125338001Y-117259671D01*
X125338221Y-117263740D01*
X125344186Y-117318651D01*
X125346350Y-117327755D01*
X125393493Y-117453509D01*
X125398583Y-117462806D01*
X125478743Y-117569764D01*
X125486236Y-117577257D01*
X125593194Y-117657417D01*
X125602491Y-117662507D01*
X125728244Y-117709650D01*
X125737351Y-117711815D01*
X125792261Y-117717780D01*
X125796327Y-117718000D01*
X126097741Y-117718000D01*
X126107898Y-117714303D01*
X126111000Y-117708931D01*
X126111000Y-117704740D01*
X126873000Y-117704740D01*
X126876697Y-117714897D01*
X126882069Y-117717999D01*
X127187671Y-117717999D01*
X127191740Y-117717779D01*
X127246651Y-117711814D01*
X127255755Y-117709650D01*
X127381509Y-117662507D01*
X127390806Y-117657417D01*
X127497764Y-117577257D01*
X127505257Y-117569764D01*
X127585417Y-117462806D01*
X127590507Y-117453509D01*
X127637650Y-117327756D01*
X127639815Y-117318649D01*
X127645780Y-117263739D01*
X127646000Y-117259673D01*
X127646000Y-117195759D01*
X127642303Y-117185602D01*
X127636931Y-117182500D01*
X126886259Y-117182500D01*
X126876102Y-117186197D01*
X126873000Y-117191569D01*
X126873000Y-117704740D01*
X126111000Y-117704740D01*
X126111000Y-117195759D01*
X126107303Y-117185602D01*
X126101931Y-117182500D01*
X125351260Y-117182500D01*
X125341103Y-117186197D01*
X125338001Y-117191569D01*
X125338001Y-117259671D01*
X121742700Y-117259671D01*
X121742700Y-116407241D01*
X125338000Y-116407241D01*
X125341697Y-116417398D01*
X125347069Y-116420500D01*
X126097741Y-116420500D01*
X126107898Y-116416803D01*
X126111000Y-116411431D01*
X126111000Y-116407241D01*
X126873000Y-116407241D01*
X126876697Y-116417398D01*
X126882069Y-116420500D01*
X127632740Y-116420500D01*
X127642897Y-116416803D01*
X127645999Y-116411431D01*
X127645999Y-116343329D01*
X127645779Y-116339260D01*
X127639814Y-116284349D01*
X127637650Y-116275245D01*
X127590507Y-116149491D01*
X127585417Y-116140194D01*
X127505257Y-116033236D01*
X127497764Y-116025743D01*
X127390806Y-115945583D01*
X127381509Y-115940493D01*
X127255756Y-115893350D01*
X127246649Y-115891185D01*
X127191739Y-115885220D01*
X127187673Y-115885000D01*
X126886259Y-115885000D01*
X126876102Y-115888697D01*
X126873000Y-115894069D01*
X126873000Y-116407241D01*
X126111000Y-116407241D01*
X126111000Y-115898260D01*
X126107303Y-115888103D01*
X126101931Y-115885001D01*
X125796329Y-115885001D01*
X125792260Y-115885221D01*
X125737349Y-115891186D01*
X125728245Y-115893350D01*
X125602491Y-115940493D01*
X125593194Y-115945583D01*
X125486236Y-116025743D01*
X125478743Y-116033236D01*
X125398583Y-116140194D01*
X125393493Y-116149491D01*
X125346350Y-116275244D01*
X125344185Y-116284351D01*
X125338220Y-116339261D01*
X125338000Y-116343327D01*
X125338000Y-116407241D01*
X121742700Y-116407241D01*
X121742700Y-114915917D01*
X121760293Y-114867579D01*
X121776121Y-114853390D01*
X121781983Y-114849473D01*
X121800860Y-114836860D01*
X121845881Y-114769480D01*
X121857450Y-114711319D01*
X122200001Y-114711319D01*
X122200723Y-114718644D01*
X122213292Y-114781840D01*
X122218852Y-114795264D01*
X122266764Y-114866970D01*
X122277030Y-114877236D01*
X122348738Y-114925149D01*
X122362157Y-114930708D01*
X122425358Y-114943279D01*
X122432679Y-114944000D01*
X122809741Y-114944000D01*
X122819898Y-114940303D01*
X122823000Y-114934931D01*
X122823000Y-114930740D01*
X123585000Y-114930740D01*
X123588697Y-114940897D01*
X123594069Y-114943999D01*
X123975319Y-114943999D01*
X123982644Y-114943277D01*
X124045840Y-114930708D01*
X124059264Y-114925148D01*
X124130970Y-114877236D01*
X124141236Y-114866970D01*
X124189149Y-114795262D01*
X124194708Y-114781843D01*
X124207279Y-114718642D01*
X124208000Y-114711321D01*
X124208000Y-114084259D01*
X124204303Y-114074102D01*
X124198931Y-114071000D01*
X123598259Y-114071000D01*
X123588102Y-114074697D01*
X123585000Y-114080069D01*
X123585000Y-114930740D01*
X122823000Y-114930740D01*
X122823000Y-114084259D01*
X122819303Y-114074102D01*
X122813931Y-114071000D01*
X122213260Y-114071000D01*
X122203103Y-114074697D01*
X122200001Y-114080069D01*
X122200001Y-114711319D01*
X121857450Y-114711319D01*
X121857700Y-114710064D01*
X121857700Y-113295741D01*
X122200000Y-113295741D01*
X122203697Y-113305898D01*
X122209069Y-113309000D01*
X122809741Y-113309000D01*
X122819898Y-113305303D01*
X122823000Y-113299931D01*
X122823000Y-113295741D01*
X123585000Y-113295741D01*
X123588697Y-113305898D01*
X123594069Y-113309000D01*
X124194740Y-113309000D01*
X124204897Y-113305303D01*
X124207999Y-113299931D01*
X124207999Y-112668681D01*
X124207277Y-112661356D01*
X124194708Y-112598160D01*
X124189148Y-112584736D01*
X124141236Y-112513030D01*
X124130970Y-112502764D01*
X124059262Y-112454851D01*
X124045843Y-112449292D01*
X123982642Y-112436721D01*
X123975321Y-112436000D01*
X123598259Y-112436000D01*
X123588102Y-112439697D01*
X123585000Y-112445069D01*
X123585000Y-113295741D01*
X122823000Y-113295741D01*
X122823000Y-112449260D01*
X122819303Y-112439103D01*
X122813931Y-112436001D01*
X122432681Y-112436001D01*
X122425356Y-112436723D01*
X122362160Y-112449292D01*
X122348736Y-112454852D01*
X122277030Y-112502764D01*
X122266764Y-112513030D01*
X122218851Y-112584738D01*
X122213292Y-112598157D01*
X122200721Y-112661358D01*
X122200000Y-112668679D01*
X122200000Y-113295741D01*
X121857700Y-113295741D01*
X121857700Y-112669936D01*
X121845881Y-112610520D01*
X121800860Y-112543140D01*
X121733480Y-112498119D01*
X121676228Y-112486730D01*
X121632253Y-112460045D01*
X121615700Y-112412976D01*
X121615700Y-112168306D01*
X121615874Y-112163191D01*
X121617119Y-112144930D01*
X128808114Y-112144930D01*
X128808602Y-112150365D01*
X128855439Y-112277322D01*
X128858396Y-112283520D01*
X128968007Y-112467760D01*
X128972045Y-112473318D01*
X129113395Y-112634497D01*
X129118381Y-112639228D01*
X129286740Y-112771953D01*
X129292495Y-112775690D01*
X129482228Y-112875513D01*
X129488560Y-112878136D01*
X129654338Y-112929611D01*
X129665133Y-112929093D01*
X129666122Y-112928178D01*
X129667000Y-112924558D01*
X129667000Y-112918547D01*
X130429000Y-112918547D01*
X130432697Y-112928704D01*
X130434328Y-112929646D01*
X130437163Y-112929504D01*
X130578012Y-112889780D01*
X130584411Y-112887323D01*
X130776690Y-112792502D01*
X130782548Y-112788912D01*
X130954321Y-112660644D01*
X130959425Y-112656048D01*
X131104952Y-112498618D01*
X131109127Y-112493178D01*
X131223530Y-112311858D01*
X131226646Y-112305744D01*
X131287458Y-112153317D01*
X131287783Y-112142677D01*
X131281885Y-112141000D01*
X130442259Y-112141000D01*
X130432102Y-112144697D01*
X130429000Y-112150069D01*
X130429000Y-112918547D01*
X129667000Y-112918547D01*
X129667000Y-112154259D01*
X129663303Y-112144102D01*
X129657931Y-112141000D01*
X128818406Y-112141000D01*
X128808249Y-112144697D01*
X128808114Y-112144930D01*
X121617119Y-112144930D01*
X121619637Y-112108003D01*
X121619637Y-112107999D01*
X121619945Y-112103479D01*
X121616233Y-112082213D01*
X121608677Y-112038916D01*
X121608102Y-112035022D01*
X121600777Y-111974494D01*
X121600232Y-111969989D01*
X121598630Y-111965749D01*
X121598628Y-111965742D01*
X121596082Y-111959006D01*
X121592347Y-111945357D01*
X121590328Y-111933785D01*
X121563979Y-111873760D01*
X121562513Y-111870168D01*
X121539343Y-111808851D01*
X121532691Y-111799173D01*
X121525810Y-111786809D01*
X121522913Y-111780210D01*
X121522913Y-111780209D01*
X121521089Y-111776055D01*
X121518330Y-111772460D01*
X121518328Y-111772456D01*
X121481202Y-111724073D01*
X121478887Y-111720887D01*
X121466020Y-111702165D01*
X121441775Y-111666888D01*
X121393944Y-111624272D01*
X121390795Y-111621299D01*
X121146819Y-111377323D01*
X128808217Y-111377323D01*
X128814115Y-111379000D01*
X129653741Y-111379000D01*
X129663898Y-111375303D01*
X129667000Y-111369931D01*
X129667000Y-111365741D01*
X130429000Y-111365741D01*
X130432697Y-111375898D01*
X130438069Y-111379000D01*
X131277594Y-111379000D01*
X131287751Y-111375303D01*
X131287886Y-111375070D01*
X131287398Y-111369635D01*
X131240561Y-111242678D01*
X131237604Y-111236480D01*
X131127993Y-111052240D01*
X131123955Y-111046682D01*
X130982605Y-110885503D01*
X130977619Y-110880772D01*
X130809260Y-110748047D01*
X130803505Y-110744310D01*
X130613772Y-110644487D01*
X130607440Y-110641864D01*
X130441662Y-110590389D01*
X130430867Y-110590907D01*
X130429878Y-110591822D01*
X130429000Y-110595442D01*
X130429000Y-111365741D01*
X129667000Y-111365741D01*
X129667000Y-110601453D01*
X129663303Y-110591296D01*
X129661672Y-110590354D01*
X129658837Y-110590496D01*
X129517988Y-110630220D01*
X129511589Y-110632677D01*
X129319310Y-110727498D01*
X129313452Y-110731088D01*
X129141679Y-110859356D01*
X129136575Y-110863952D01*
X128991048Y-111021382D01*
X128986873Y-111026822D01*
X128872470Y-111208142D01*
X128869354Y-111214256D01*
X128808542Y-111366683D01*
X128808217Y-111377323D01*
X121146819Y-111377323D01*
X120664555Y-110895059D01*
X120661061Y-110891319D01*
X120624700Y-110849637D01*
X120624699Y-110849636D01*
X120621718Y-110846219D01*
X120601004Y-110831661D01*
X120568097Y-110808534D01*
X120564936Y-110806187D01*
X120513387Y-110765767D01*
X120509259Y-110763903D01*
X120509257Y-110763902D01*
X120502688Y-110760936D01*
X120490395Y-110753924D01*
X120484499Y-110749780D01*
X120484493Y-110749777D01*
X120480784Y-110747170D01*
X120476560Y-110745523D01*
X120476556Y-110745521D01*
X120419734Y-110723368D01*
X120416104Y-110721842D01*
X120399467Y-110714330D01*
X120356391Y-110694880D01*
X120344847Y-110692741D01*
X120331233Y-110688863D01*
X120324511Y-110686242D01*
X120320292Y-110684597D01*
X120255315Y-110676042D01*
X120251456Y-110675431D01*
X120187017Y-110663488D01*
X120182489Y-110663749D01*
X120182487Y-110663749D01*
X120123073Y-110667175D01*
X120118744Y-110667300D01*
X118562943Y-110667300D01*
X118514605Y-110649707D01*
X118509769Y-110645274D01*
X117827726Y-109963230D01*
X117805986Y-109916610D01*
X117805700Y-109910056D01*
X117805700Y-109247305D01*
X117805874Y-109242190D01*
X117809637Y-109187002D01*
X117809637Y-109186998D01*
X117809945Y-109182478D01*
X117801228Y-109132537D01*
X117798678Y-109117924D01*
X117798103Y-109114029D01*
X117790777Y-109053490D01*
X117790776Y-109053488D01*
X117790232Y-109048989D01*
X117786080Y-109038001D01*
X117782345Y-109024347D01*
X117781107Y-109017253D01*
X117781107Y-109017252D01*
X117780327Y-109012785D01*
X117753984Y-108952774D01*
X117752518Y-108949181D01*
X117729343Y-108887851D01*
X117722690Y-108878170D01*
X117715807Y-108865805D01*
X117715121Y-108864241D01*
X117711088Y-108855054D01*
X117708329Y-108851459D01*
X117708327Y-108851455D01*
X117671204Y-108803076D01*
X117668889Y-108799890D01*
X117656007Y-108781146D01*
X117631775Y-108745888D01*
X117616463Y-108732245D01*
X117583944Y-108703272D01*
X117580795Y-108700299D01*
X115076555Y-106196059D01*
X115073061Y-106192319D01*
X115036700Y-106150637D01*
X115036699Y-106150636D01*
X115033718Y-106147219D01*
X115000293Y-106123728D01*
X114980097Y-106109534D01*
X114976936Y-106107187D01*
X114925387Y-106066767D01*
X114921259Y-106064903D01*
X114921257Y-106064902D01*
X114914688Y-106061936D01*
X114902395Y-106054924D01*
X114896499Y-106050780D01*
X114896493Y-106050777D01*
X114892784Y-106048170D01*
X114888560Y-106046523D01*
X114888556Y-106046521D01*
X114831734Y-106024368D01*
X114828104Y-106022842D01*
X114781794Y-106001932D01*
X114768391Y-105995880D01*
X114756847Y-105993741D01*
X114743233Y-105989863D01*
X114736511Y-105987242D01*
X114732292Y-105985597D01*
X114667315Y-105977042D01*
X114663456Y-105976431D01*
X114599017Y-105964488D01*
X114594489Y-105964749D01*
X114594487Y-105964749D01*
X114535073Y-105968175D01*
X114530744Y-105968300D01*
X110772540Y-105968300D01*
X110724202Y-105950707D01*
X110716002Y-105942683D01*
X110627833Y-105842145D01*
X110627832Y-105842144D01*
X110625557Y-105839550D01*
X110596821Y-105816896D01*
X110461747Y-105710412D01*
X110461744Y-105710410D01*
X110459042Y-105708280D01*
X110455995Y-105706677D01*
X110455992Y-105706675D01*
X110274440Y-105611156D01*
X110274439Y-105611156D01*
X110271393Y-105609553D01*
X110246624Y-105601862D01*
X110072184Y-105547697D01*
X110072181Y-105547696D01*
X110068895Y-105546676D01*
X110065475Y-105546271D01*
X110065474Y-105546271D01*
X110026811Y-105541695D01*
X109896739Y-105526300D01*
X109574207Y-105526300D01*
X109572513Y-105526456D01*
X109572506Y-105526456D01*
X109511626Y-105532050D01*
X109416854Y-105540759D01*
X109413536Y-105541695D01*
X109413535Y-105541695D01*
X109379535Y-105551284D01*
X109212779Y-105598314D01*
X109209691Y-105599837D01*
X109209688Y-105599838D01*
X109161039Y-105623829D01*
X109022611Y-105692094D01*
X108852717Y-105818960D01*
X108738349Y-105942683D01*
X108736997Y-105944146D01*
X108691266Y-105967699D01*
X108681776Y-105968300D01*
X107582643Y-105968300D01*
X107534305Y-105950707D01*
X107530526Y-105947243D01*
X107527438Y-105943062D01*
X107513609Y-105932848D01*
X107422221Y-105865346D01*
X107422217Y-105865344D01*
X107417698Y-105862006D01*
X107314983Y-105825935D01*
X107275206Y-105793321D01*
X107264700Y-105754984D01*
X107264700Y-105005506D01*
X107264874Y-105000391D01*
X107268637Y-104945203D01*
X107268637Y-104945199D01*
X107268945Y-104940679D01*
X107266725Y-104927957D01*
X107257677Y-104876116D01*
X107257102Y-104872222D01*
X107249777Y-104811694D01*
X107249232Y-104807189D01*
X107247630Y-104802949D01*
X107247628Y-104802942D01*
X107245082Y-104796206D01*
X107241347Y-104782557D01*
X107239328Y-104770985D01*
X107212979Y-104710960D01*
X107211513Y-104707368D01*
X107188343Y-104646051D01*
X107181691Y-104636373D01*
X107174810Y-104624009D01*
X107171913Y-104617410D01*
X107171913Y-104617409D01*
X107170089Y-104613255D01*
X107167330Y-104609660D01*
X107167328Y-104609656D01*
X107130202Y-104561273D01*
X107127887Y-104558087D01*
X107113836Y-104537643D01*
X107090775Y-104504088D01*
X107042944Y-104461472D01*
X107039795Y-104458499D01*
X106812202Y-104230906D01*
X108472929Y-104230906D01*
X108473512Y-104234297D01*
X108473512Y-104234301D01*
X108507414Y-104431600D01*
X108508837Y-104439879D01*
X108582226Y-104638809D01*
X108690638Y-104821033D01*
X108692912Y-104823626D01*
X108827538Y-104977137D01*
X108830443Y-104980450D01*
X108833150Y-104982584D01*
X108833152Y-104982586D01*
X108994253Y-105109588D01*
X108994256Y-105109590D01*
X108996958Y-105111720D01*
X109000005Y-105113323D01*
X109000008Y-105113325D01*
X109131891Y-105182712D01*
X109184607Y-105210447D01*
X109187892Y-105211467D01*
X109383816Y-105272303D01*
X109383819Y-105272304D01*
X109387105Y-105273324D01*
X109390525Y-105273729D01*
X109390526Y-105273729D01*
X109424963Y-105277805D01*
X109559261Y-105293700D01*
X109881793Y-105293700D01*
X109883487Y-105293544D01*
X109883494Y-105293544D01*
X109944374Y-105287950D01*
X110039146Y-105279241D01*
X110065463Y-105271819D01*
X110082790Y-105266932D01*
X110243221Y-105221686D01*
X110246309Y-105220163D01*
X110246312Y-105220162D01*
X110342024Y-105172962D01*
X110433389Y-105127906D01*
X110603283Y-105001040D01*
X110747213Y-104845337D01*
X110759545Y-104825793D01*
X110798618Y-104763865D01*
X110860358Y-104666013D01*
X110861634Y-104662816D01*
X110861636Y-104662811D01*
X110914275Y-104530871D01*
X112735401Y-104530871D01*
X112735621Y-104534940D01*
X112741586Y-104589851D01*
X112743750Y-104598955D01*
X112790893Y-104724709D01*
X112795983Y-104734006D01*
X112876143Y-104840964D01*
X112883636Y-104848457D01*
X112990594Y-104928617D01*
X112999891Y-104933707D01*
X113125644Y-104980850D01*
X113134751Y-104983015D01*
X113189661Y-104988980D01*
X113193727Y-104989200D01*
X113257641Y-104989200D01*
X113267798Y-104985503D01*
X113270900Y-104980131D01*
X113270900Y-104975940D01*
X114032900Y-104975940D01*
X114036597Y-104986097D01*
X114041969Y-104989199D01*
X114110071Y-104989199D01*
X114114140Y-104988979D01*
X114169051Y-104983014D01*
X114178155Y-104980850D01*
X114303909Y-104933707D01*
X114313206Y-104928617D01*
X114420164Y-104848457D01*
X114427657Y-104840964D01*
X114507817Y-104734006D01*
X114512907Y-104724709D01*
X114560050Y-104598956D01*
X114562215Y-104589849D01*
X114568180Y-104534939D01*
X114568400Y-104530873D01*
X114568400Y-104229459D01*
X114564703Y-104219302D01*
X114559331Y-104216200D01*
X114046159Y-104216200D01*
X114036002Y-104219897D01*
X114032900Y-104225269D01*
X114032900Y-104975940D01*
X113270900Y-104975940D01*
X113270900Y-104229459D01*
X113267203Y-104219302D01*
X113261831Y-104216200D01*
X112748660Y-104216200D01*
X112738503Y-104219897D01*
X112735401Y-104225269D01*
X112735401Y-104530871D01*
X110914275Y-104530871D01*
X110937650Y-104472281D01*
X110937651Y-104472278D01*
X110938930Y-104469072D01*
X110941034Y-104458499D01*
X110976145Y-104281978D01*
X110980296Y-104261111D01*
X110983071Y-104049094D01*
X110982076Y-104043300D01*
X110947746Y-103843513D01*
X110947746Y-103843511D01*
X110947163Y-103840121D01*
X110873774Y-103641191D01*
X110765362Y-103458967D01*
X110749554Y-103440941D01*
X112735400Y-103440941D01*
X112739097Y-103451098D01*
X112744469Y-103454200D01*
X113257641Y-103454200D01*
X113267798Y-103450503D01*
X113270900Y-103445131D01*
X113270900Y-103440941D01*
X114032900Y-103440941D01*
X114036597Y-103451098D01*
X114041969Y-103454200D01*
X114555140Y-103454200D01*
X114565297Y-103450503D01*
X114568399Y-103445131D01*
X114568399Y-103139529D01*
X114568179Y-103135460D01*
X114567693Y-103130983D01*
X115910700Y-103130983D01*
X115910701Y-104539416D01*
X115910867Y-104541170D01*
X115910867Y-104541176D01*
X115913271Y-104566609D01*
X115913702Y-104571175D01*
X115915218Y-104575493D01*
X115915219Y-104575496D01*
X115936598Y-104636374D01*
X115958906Y-104699898D01*
X115962244Y-104704417D01*
X115962246Y-104704421D01*
X116008349Y-104766838D01*
X116039962Y-104809638D01*
X116044480Y-104812975D01*
X116145179Y-104887354D01*
X116145183Y-104887356D01*
X116149702Y-104890694D01*
X116278425Y-104935898D01*
X116282988Y-104936329D01*
X116282991Y-104936330D01*
X116308423Y-104938734D01*
X116308431Y-104938734D01*
X116310183Y-104938900D01*
X116775844Y-104938900D01*
X117243616Y-104938899D01*
X117245370Y-104938733D01*
X117245376Y-104938733D01*
X117270818Y-104936329D01*
X117270821Y-104936328D01*
X117275375Y-104935898D01*
X117279693Y-104934382D01*
X117279696Y-104934381D01*
X117358371Y-104906752D01*
X117404098Y-104890694D01*
X117408617Y-104887356D01*
X117408621Y-104887354D01*
X117509320Y-104812975D01*
X117513838Y-104809638D01*
X117545451Y-104766838D01*
X117591554Y-104704421D01*
X117591556Y-104704417D01*
X117594894Y-104699898D01*
X117640098Y-104571175D01*
X117640538Y-104566529D01*
X117642934Y-104541177D01*
X117642934Y-104541169D01*
X117643100Y-104539417D01*
X117643100Y-104431600D01*
X117660693Y-104383262D01*
X117705242Y-104357542D01*
X117718300Y-104356400D01*
X118299938Y-104356400D01*
X118303086Y-104356466D01*
X118362710Y-104358965D01*
X118374800Y-104356129D01*
X118404836Y-104349085D01*
X118411800Y-104347794D01*
X118434178Y-104344728D01*
X118454679Y-104341920D01*
X118471357Y-104334703D01*
X118484049Y-104330505D01*
X118496750Y-104327526D01*
X118496751Y-104327525D01*
X118501737Y-104326356D01*
X118539654Y-104305511D01*
X118546016Y-104302395D01*
X118548851Y-104301168D01*
X118585734Y-104285207D01*
X118599854Y-104273773D01*
X118610949Y-104266317D01*
X118620418Y-104261111D01*
X118626874Y-104257562D01*
X118632050Y-104253094D01*
X118633509Y-104251835D01*
X118633514Y-104251830D01*
X118634564Y-104250924D01*
X118659423Y-104226065D01*
X118665272Y-104220798D01*
X118692726Y-104198566D01*
X118696710Y-104195340D01*
X118709171Y-104177806D01*
X118717294Y-104168194D01*
X119032664Y-103852824D01*
X119079284Y-103831084D01*
X119085838Y-103830798D01*
X119256243Y-103830798D01*
X119304581Y-103848391D01*
X119329998Y-103891326D01*
X119335519Y-103919080D01*
X119339635Y-103925240D01*
X119380540Y-103986460D01*
X119378061Y-103988116D01*
X119394403Y-104023160D01*
X119394689Y-104029714D01*
X119394689Y-104081878D01*
X119377096Y-104130216D01*
X119372663Y-104135052D01*
X119078739Y-104428976D01*
X119072121Y-104434859D01*
X119042582Y-104458144D01*
X119016393Y-104496037D01*
X119008208Y-104507879D01*
X119006834Y-104509801D01*
X119005002Y-104512282D01*
X118970932Y-104558409D01*
X118969126Y-104563553D01*
X118968930Y-104563875D01*
X118968787Y-104564167D01*
X118967723Y-104566255D01*
X118967578Y-104566529D01*
X118967432Y-104566876D01*
X118964330Y-104571365D01*
X118962635Y-104576726D01*
X118962634Y-104576727D01*
X118946102Y-104629000D01*
X118945354Y-104631240D01*
X118927190Y-104682962D01*
X118927189Y-104682968D01*
X118925328Y-104688267D01*
X118925114Y-104693716D01*
X118924850Y-104694760D01*
X118924119Y-104698511D01*
X118922829Y-104702591D01*
X118922300Y-104709312D01*
X118922300Y-104763865D01*
X118922242Y-104766817D01*
X118919925Y-104825793D01*
X118921366Y-104831229D01*
X118921846Y-104835573D01*
X118922300Y-104843826D01*
X118922300Y-104906079D01*
X118904707Y-104954417D01*
X118872016Y-104977031D01*
X118765302Y-105014506D01*
X118760783Y-105017844D01*
X118760779Y-105017846D01*
X118669391Y-105085348D01*
X118655562Y-105095562D01*
X118652225Y-105100080D01*
X118577846Y-105200779D01*
X118577844Y-105200783D01*
X118574506Y-105205302D01*
X118529302Y-105334025D01*
X118526300Y-105365783D01*
X118526301Y-106724216D01*
X118526467Y-106725970D01*
X118526467Y-106725976D01*
X118528871Y-106751409D01*
X118529302Y-106755975D01*
X118530818Y-106760293D01*
X118530819Y-106760296D01*
X118554416Y-106827489D01*
X118574506Y-106884698D01*
X118577844Y-106889217D01*
X118577846Y-106889221D01*
X118621376Y-106948154D01*
X118655562Y-106994438D01*
X118660080Y-106997775D01*
X118760779Y-107072154D01*
X118760783Y-107072156D01*
X118765302Y-107075494D01*
X118863670Y-107110038D01*
X118872016Y-107112969D01*
X118911794Y-107145584D01*
X118922300Y-107183921D01*
X118922300Y-108081079D01*
X118904707Y-108129417D01*
X118872016Y-108152031D01*
X118765302Y-108189506D01*
X118760783Y-108192844D01*
X118760779Y-108192846D01*
X118687902Y-108246675D01*
X118655562Y-108270562D01*
X118652225Y-108275080D01*
X118577846Y-108375779D01*
X118577844Y-108375783D01*
X118574506Y-108380302D01*
X118529302Y-108509025D01*
X118528871Y-108513588D01*
X118528870Y-108513591D01*
X118526466Y-108539023D01*
X118526300Y-108540783D01*
X118526301Y-109899216D01*
X118526467Y-109900970D01*
X118526467Y-109900976D01*
X118528871Y-109926409D01*
X118529302Y-109930975D01*
X118530818Y-109935293D01*
X118530819Y-109935296D01*
X118539058Y-109958756D01*
X118574506Y-110059698D01*
X118577844Y-110064217D01*
X118577846Y-110064221D01*
X118614922Y-110114417D01*
X118655562Y-110169438D01*
X118660080Y-110172775D01*
X118760779Y-110247154D01*
X118760783Y-110247156D01*
X118765302Y-110250494D01*
X118894025Y-110295698D01*
X118898588Y-110296129D01*
X118898591Y-110296130D01*
X118924023Y-110298534D01*
X118924031Y-110298534D01*
X118925783Y-110298700D01*
X119378972Y-110298700D01*
X119834216Y-110298699D01*
X119835970Y-110298533D01*
X119835976Y-110298533D01*
X119861418Y-110296129D01*
X119861421Y-110296128D01*
X119865975Y-110295698D01*
X119870293Y-110294182D01*
X119870296Y-110294181D01*
X119958599Y-110263171D01*
X119994698Y-110250494D01*
X119999217Y-110247156D01*
X119999221Y-110247154D01*
X120099920Y-110172775D01*
X120104438Y-110169438D01*
X120145078Y-110114417D01*
X120182154Y-110064221D01*
X120182156Y-110064217D01*
X120185494Y-110059698D01*
X120230698Y-109930975D01*
X120232676Y-109910056D01*
X120233534Y-109900977D01*
X120233534Y-109900969D01*
X120233700Y-109899217D01*
X120233700Y-109890671D01*
X121576001Y-109890671D01*
X121576221Y-109894740D01*
X121582186Y-109949651D01*
X121584350Y-109958755D01*
X121631493Y-110084509D01*
X121636583Y-110093806D01*
X121716743Y-110200764D01*
X121724236Y-110208257D01*
X121831194Y-110288417D01*
X121840491Y-110293507D01*
X121966244Y-110340650D01*
X121975351Y-110342815D01*
X122030261Y-110348780D01*
X122034327Y-110349000D01*
X122085741Y-110349000D01*
X122095898Y-110345303D01*
X122099000Y-110339931D01*
X122099000Y-110335740D01*
X122861000Y-110335740D01*
X122864697Y-110345897D01*
X122870069Y-110348999D01*
X122925671Y-110348999D01*
X122929740Y-110348779D01*
X122984651Y-110342814D01*
X122993755Y-110340650D01*
X123119509Y-110293507D01*
X123128806Y-110288417D01*
X123235764Y-110208257D01*
X123243257Y-110200764D01*
X123323417Y-110093806D01*
X123328507Y-110084509D01*
X123375650Y-109958756D01*
X123377815Y-109949649D01*
X123383780Y-109894739D01*
X123384000Y-109890673D01*
X123384000Y-109716671D01*
X124322001Y-109716671D01*
X124322221Y-109720740D01*
X124328186Y-109775651D01*
X124330350Y-109784755D01*
X124377493Y-109910509D01*
X124382583Y-109919806D01*
X124462743Y-110026764D01*
X124470236Y-110034257D01*
X124577194Y-110114417D01*
X124586491Y-110119507D01*
X124712244Y-110166650D01*
X124721351Y-110168815D01*
X124776261Y-110174780D01*
X124780327Y-110175000D01*
X125081741Y-110175000D01*
X125091898Y-110171303D01*
X125095000Y-110165931D01*
X125095000Y-110161740D01*
X125857000Y-110161740D01*
X125860697Y-110171897D01*
X125866069Y-110174999D01*
X126171671Y-110174999D01*
X126175740Y-110174779D01*
X126230651Y-110168814D01*
X126239755Y-110166650D01*
X126365509Y-110119507D01*
X126374806Y-110114417D01*
X126481764Y-110034257D01*
X126489257Y-110026764D01*
X126569417Y-109919806D01*
X126574507Y-109910509D01*
X126621650Y-109784756D01*
X126623815Y-109775649D01*
X126629780Y-109720739D01*
X126630000Y-109716673D01*
X126630000Y-109652759D01*
X126626303Y-109642602D01*
X126620931Y-109639500D01*
X125870259Y-109639500D01*
X125860102Y-109643197D01*
X125857000Y-109648569D01*
X125857000Y-110161740D01*
X125095000Y-110161740D01*
X125095000Y-109652759D01*
X125091303Y-109642602D01*
X125085931Y-109639500D01*
X124335260Y-109639500D01*
X124325103Y-109643197D01*
X124322001Y-109648569D01*
X124322001Y-109716671D01*
X123384000Y-109716671D01*
X123384000Y-109614259D01*
X123380303Y-109604102D01*
X123374931Y-109601000D01*
X122874259Y-109601000D01*
X122864102Y-109604697D01*
X122861000Y-109610069D01*
X122861000Y-110335740D01*
X122099000Y-110335740D01*
X122099000Y-109614259D01*
X122095303Y-109604102D01*
X122089931Y-109601000D01*
X121589260Y-109601000D01*
X121579103Y-109604697D01*
X121576001Y-109610069D01*
X121576001Y-109890671D01*
X120233700Y-109890671D01*
X120233699Y-109310906D01*
X128792929Y-109310906D01*
X128793512Y-109314297D01*
X128793512Y-109314301D01*
X128828254Y-109516487D01*
X128828837Y-109519879D01*
X128902226Y-109718809D01*
X129010638Y-109901033D01*
X129012912Y-109903626D01*
X129126195Y-110032800D01*
X129150443Y-110060450D01*
X129153150Y-110062584D01*
X129153152Y-110062586D01*
X129314253Y-110189588D01*
X129314256Y-110189590D01*
X129316958Y-110191720D01*
X129320005Y-110193323D01*
X129320008Y-110193325D01*
X129501560Y-110288844D01*
X129504607Y-110290447D01*
X129507892Y-110291467D01*
X129703816Y-110352303D01*
X129703819Y-110352304D01*
X129707105Y-110353324D01*
X129710525Y-110353729D01*
X129710526Y-110353729D01*
X129744963Y-110357805D01*
X129879261Y-110373700D01*
X130201793Y-110373700D01*
X130203487Y-110373544D01*
X130203494Y-110373544D01*
X130264374Y-110367950D01*
X130359146Y-110359241D01*
X130563221Y-110301686D01*
X130566309Y-110300163D01*
X130566312Y-110300162D01*
X130667029Y-110250494D01*
X130753389Y-110207906D01*
X130923283Y-110081040D01*
X131067213Y-109925337D01*
X131072720Y-109916610D01*
X131155913Y-109784756D01*
X131180358Y-109746013D01*
X131181634Y-109742816D01*
X131181636Y-109742811D01*
X131257650Y-109552281D01*
X131257651Y-109552278D01*
X131258930Y-109549072D01*
X131262495Y-109531154D01*
X131299623Y-109344494D01*
X131300296Y-109341111D01*
X131303071Y-109129094D01*
X131300483Y-109114029D01*
X131267746Y-108923513D01*
X131267746Y-108923511D01*
X131267163Y-108920121D01*
X131193774Y-108721191D01*
X131085362Y-108538967D01*
X131034740Y-108481244D01*
X130947833Y-108382145D01*
X130947832Y-108382144D01*
X130945557Y-108379550D01*
X130916821Y-108356896D01*
X130781747Y-108250412D01*
X130781744Y-108250410D01*
X130779042Y-108248280D01*
X130775995Y-108246677D01*
X130775992Y-108246675D01*
X130594440Y-108151156D01*
X130594439Y-108151156D01*
X130591393Y-108149553D01*
X130565873Y-108141629D01*
X130392184Y-108087697D01*
X130392181Y-108087696D01*
X130388895Y-108086676D01*
X130385475Y-108086271D01*
X130385474Y-108086271D01*
X130341606Y-108081079D01*
X130216739Y-108066300D01*
X129894207Y-108066300D01*
X129892513Y-108066456D01*
X129892506Y-108066456D01*
X129831626Y-108072050D01*
X129736854Y-108080759D01*
X129532779Y-108138314D01*
X129529691Y-108139837D01*
X129529688Y-108139838D01*
X129435578Y-108186248D01*
X129342611Y-108232094D01*
X129172717Y-108358960D01*
X129028787Y-108514663D01*
X129026952Y-108517572D01*
X129026950Y-108517574D01*
X129011193Y-108542548D01*
X128915642Y-108693987D01*
X128914366Y-108697184D01*
X128914364Y-108697189D01*
X128838350Y-108887719D01*
X128837070Y-108890928D01*
X128836397Y-108894309D01*
X128836396Y-108894314D01*
X128825502Y-108949083D01*
X128795704Y-109098889D01*
X128792929Y-109310906D01*
X120233699Y-109310906D01*
X120233699Y-108864241D01*
X124322000Y-108864241D01*
X124325697Y-108874398D01*
X124331069Y-108877500D01*
X125081741Y-108877500D01*
X125091898Y-108873803D01*
X125095000Y-108868431D01*
X125095000Y-108864241D01*
X125857000Y-108864241D01*
X125860697Y-108874398D01*
X125866069Y-108877500D01*
X126616740Y-108877500D01*
X126626897Y-108873803D01*
X126629999Y-108868431D01*
X126629999Y-108800329D01*
X126629779Y-108796260D01*
X126623814Y-108741349D01*
X126621650Y-108732245D01*
X126574507Y-108606491D01*
X126569417Y-108597194D01*
X126489257Y-108490236D01*
X126481764Y-108482743D01*
X126374806Y-108402583D01*
X126365509Y-108397493D01*
X126239756Y-108350350D01*
X126230649Y-108348185D01*
X126175739Y-108342220D01*
X126171673Y-108342000D01*
X125870259Y-108342000D01*
X125860102Y-108345697D01*
X125857000Y-108351069D01*
X125857000Y-108864241D01*
X125095000Y-108864241D01*
X125095000Y-108355260D01*
X125091303Y-108345103D01*
X125085931Y-108342001D01*
X124780329Y-108342001D01*
X124776260Y-108342221D01*
X124721349Y-108348186D01*
X124712245Y-108350350D01*
X124586491Y-108397493D01*
X124577194Y-108402583D01*
X124470236Y-108482743D01*
X124462743Y-108490236D01*
X124382583Y-108597194D01*
X124377493Y-108606491D01*
X124330350Y-108732244D01*
X124328185Y-108741351D01*
X124322220Y-108796261D01*
X124322000Y-108800327D01*
X124322000Y-108864241D01*
X120233699Y-108864241D01*
X120233699Y-108825741D01*
X121576000Y-108825741D01*
X121579697Y-108835898D01*
X121585069Y-108839000D01*
X122085741Y-108839000D01*
X122095898Y-108835303D01*
X122099000Y-108829931D01*
X122099000Y-108825741D01*
X122861000Y-108825741D01*
X122864697Y-108835898D01*
X122870069Y-108839000D01*
X123370740Y-108839000D01*
X123380897Y-108835303D01*
X123383999Y-108829931D01*
X123383999Y-108549329D01*
X123383779Y-108545260D01*
X123377814Y-108490349D01*
X123375650Y-108481245D01*
X123328507Y-108355491D01*
X123323417Y-108346194D01*
X123243257Y-108239236D01*
X123235764Y-108231743D01*
X123128806Y-108151583D01*
X123119509Y-108146493D01*
X122993756Y-108099350D01*
X122984649Y-108097185D01*
X122929739Y-108091220D01*
X122925673Y-108091000D01*
X122874259Y-108091000D01*
X122864102Y-108094697D01*
X122861000Y-108100069D01*
X122861000Y-108825741D01*
X122099000Y-108825741D01*
X122099000Y-108104260D01*
X122095303Y-108094103D01*
X122089931Y-108091001D01*
X122034329Y-108091001D01*
X122030260Y-108091221D01*
X121975349Y-108097186D01*
X121966245Y-108099350D01*
X121840491Y-108146493D01*
X121831194Y-108151583D01*
X121724236Y-108231743D01*
X121716743Y-108239236D01*
X121636583Y-108346194D01*
X121631493Y-108355491D01*
X121584350Y-108481244D01*
X121582185Y-108490351D01*
X121576220Y-108545261D01*
X121576000Y-108549327D01*
X121576000Y-108825741D01*
X120233699Y-108825741D01*
X120233699Y-108540784D01*
X120233533Y-108539023D01*
X120231129Y-108513582D01*
X120231128Y-108513579D01*
X120230698Y-108509025D01*
X120229179Y-108504697D01*
X120187357Y-108385608D01*
X120185494Y-108380302D01*
X120182156Y-108375783D01*
X120182154Y-108375779D01*
X120107775Y-108275080D01*
X120104438Y-108270562D01*
X120072098Y-108246675D01*
X119999221Y-108192846D01*
X119999217Y-108192844D01*
X119994698Y-108189506D01*
X119887984Y-108152031D01*
X119848206Y-108119416D01*
X119837700Y-108081079D01*
X119837700Y-107183921D01*
X119855293Y-107135583D01*
X119887984Y-107112969D01*
X119896330Y-107110038D01*
X119994698Y-107075494D01*
X119999217Y-107072156D01*
X119999221Y-107072154D01*
X120099920Y-106997775D01*
X120104438Y-106994438D01*
X120138624Y-106948154D01*
X120182154Y-106889221D01*
X120182156Y-106889217D01*
X120185494Y-106884698D01*
X120230698Y-106755975D01*
X120233700Y-106724217D01*
X120233699Y-105365784D01*
X120233533Y-105364023D01*
X120231129Y-105338582D01*
X120231128Y-105338579D01*
X120230698Y-105334025D01*
X120229179Y-105329697D01*
X120191576Y-105222621D01*
X120185494Y-105205302D01*
X120182156Y-105200783D01*
X120182154Y-105200779D01*
X120107775Y-105100080D01*
X120104438Y-105095562D01*
X120090609Y-105085348D01*
X119999221Y-105017846D01*
X119999217Y-105017844D01*
X119994698Y-105014506D01*
X119954336Y-105000332D01*
X119914558Y-104967716D01*
X119905052Y-104917162D01*
X119926079Y-104876206D01*
X120153650Y-104648635D01*
X120160269Y-104642752D01*
X120185392Y-104622947D01*
X120189807Y-104619467D01*
X120224181Y-104569732D01*
X120225555Y-104567810D01*
X120246527Y-104539416D01*
X120261457Y-104519202D01*
X120263263Y-104514058D01*
X120263459Y-104513736D01*
X120263602Y-104513444D01*
X120264666Y-104511356D01*
X120264811Y-104511082D01*
X120264957Y-104510735D01*
X120268059Y-104506246D01*
X120281809Y-104462769D01*
X120286287Y-104448611D01*
X120287035Y-104446371D01*
X120305199Y-104394649D01*
X120305200Y-104394643D01*
X120307061Y-104389344D01*
X120307275Y-104383895D01*
X120307539Y-104382851D01*
X120308270Y-104379100D01*
X120309560Y-104375020D01*
X120310089Y-104368299D01*
X120310089Y-104313746D01*
X120310147Y-104310794D01*
X120311152Y-104285207D01*
X120312464Y-104251818D01*
X120311024Y-104246387D01*
X120310543Y-104242028D01*
X120310089Y-104233778D01*
X120310089Y-104029736D01*
X120325531Y-103987309D01*
X120324260Y-103986460D01*
X120365165Y-103925240D01*
X120369281Y-103919080D01*
X120381100Y-103859664D01*
X121223700Y-103859664D01*
X121235519Y-103919080D01*
X121280540Y-103986460D01*
X121347920Y-104031481D01*
X121407336Y-104043300D01*
X121717864Y-104043300D01*
X121766202Y-104060893D01*
X121771038Y-104065326D01*
X121935574Y-104229862D01*
X121957314Y-104276482D01*
X121957600Y-104283036D01*
X121957600Y-104928799D01*
X121940007Y-104977137D01*
X121907317Y-104999751D01*
X121879753Y-105009431D01*
X121865302Y-105014506D01*
X121755562Y-105095562D01*
X121752225Y-105100080D01*
X121677846Y-105200779D01*
X121677844Y-105200783D01*
X121674506Y-105205302D01*
X121629302Y-105334025D01*
X121626300Y-105365783D01*
X121626301Y-106724216D01*
X121626467Y-106725970D01*
X121626467Y-106725976D01*
X121628871Y-106751409D01*
X121629302Y-106755975D01*
X121630818Y-106760293D01*
X121630819Y-106760296D01*
X121654416Y-106827489D01*
X121674506Y-106884698D01*
X121677844Y-106889217D01*
X121677846Y-106889221D01*
X121721376Y-106948154D01*
X121755562Y-106994438D01*
X121760080Y-106997775D01*
X121860779Y-107072154D01*
X121860783Y-107072156D01*
X121865302Y-107075494D01*
X121994025Y-107120698D01*
X121998588Y-107121129D01*
X121998591Y-107121130D01*
X122024023Y-107123534D01*
X122024031Y-107123534D01*
X122025783Y-107123700D01*
X122478972Y-107123700D01*
X122934216Y-107123699D01*
X122935970Y-107123533D01*
X122935976Y-107123533D01*
X122961418Y-107121129D01*
X122961421Y-107121128D01*
X122965975Y-107120698D01*
X122970293Y-107119182D01*
X122970296Y-107119181D01*
X123037489Y-107095584D01*
X123094698Y-107075494D01*
X123099217Y-107072156D01*
X123099221Y-107072154D01*
X123199920Y-106997775D01*
X123204438Y-106994438D01*
X123238624Y-106948154D01*
X123282154Y-106889221D01*
X123282156Y-106889217D01*
X123285494Y-106884698D01*
X123330698Y-106755975D01*
X123333700Y-106724217D01*
X123333700Y-106628300D01*
X123351293Y-106579962D01*
X123395842Y-106554242D01*
X123408900Y-106553100D01*
X124299419Y-106553100D01*
X124347757Y-106570693D01*
X124373477Y-106615242D01*
X124374285Y-106621224D01*
X124374870Y-106627411D01*
X124374871Y-106627417D01*
X124375302Y-106631975D01*
X124376818Y-106636293D01*
X124376819Y-106636296D01*
X124400416Y-106703489D01*
X124420506Y-106760698D01*
X124423844Y-106765217D01*
X124423846Y-106765221D01*
X124491348Y-106856609D01*
X124501562Y-106870438D01*
X124506080Y-106873775D01*
X124606779Y-106948154D01*
X124606783Y-106948156D01*
X124611302Y-106951494D01*
X124740025Y-106996698D01*
X124744588Y-106997129D01*
X124744591Y-106997130D01*
X124770023Y-106999534D01*
X124770031Y-106999534D01*
X124771783Y-106999700D01*
X125474407Y-106999700D01*
X126180216Y-106999699D01*
X126181970Y-106999533D01*
X126181976Y-106999533D01*
X126207418Y-106997129D01*
X126207421Y-106997128D01*
X126211975Y-106996698D01*
X126216293Y-106995182D01*
X126216296Y-106995181D01*
X126283489Y-106971584D01*
X126340698Y-106951494D01*
X126345217Y-106948156D01*
X126345221Y-106948154D01*
X126445920Y-106873775D01*
X126450438Y-106870438D01*
X126460652Y-106856609D01*
X126528154Y-106765221D01*
X126528156Y-106765217D01*
X126531494Y-106760698D01*
X126576698Y-106631975D01*
X126577714Y-106621226D01*
X126599776Y-106574757D01*
X126646547Y-106553342D01*
X126652580Y-106553100D01*
X127070064Y-106553100D01*
X127118402Y-106570693D01*
X127123238Y-106575126D01*
X127587256Y-107039144D01*
X127589437Y-107041417D01*
X127626381Y-107081594D01*
X127626383Y-107081596D01*
X127629851Y-107085367D01*
X127634207Y-107088068D01*
X127634211Y-107088071D01*
X127666627Y-107108169D01*
X127672453Y-107112172D01*
X127706936Y-107138346D01*
X127723832Y-107145035D01*
X127735773Y-107151041D01*
X127751216Y-107160616D01*
X127792768Y-107172688D01*
X127799469Y-107174983D01*
X127834938Y-107189026D01*
X127834942Y-107189027D01*
X127839708Y-107190914D01*
X127844807Y-107191450D01*
X127857783Y-107192814D01*
X127870895Y-107195386D01*
X127888346Y-107200456D01*
X127898477Y-107201200D01*
X127933637Y-107201200D01*
X127941497Y-107201612D01*
X127981725Y-107205840D01*
X128002933Y-107202253D01*
X128015474Y-107201200D01*
X128872785Y-107201200D01*
X128921123Y-107218793D01*
X128937411Y-107237950D01*
X129010638Y-107361033D01*
X129012912Y-107363626D01*
X129130750Y-107497994D01*
X129150443Y-107520450D01*
X129153150Y-107522584D01*
X129153152Y-107522586D01*
X129314253Y-107649588D01*
X129314256Y-107649590D01*
X129316958Y-107651720D01*
X129320005Y-107653323D01*
X129320008Y-107653325D01*
X129347722Y-107667906D01*
X129504607Y-107750447D01*
X129507892Y-107751467D01*
X129703816Y-107812303D01*
X129703819Y-107812304D01*
X129707105Y-107813324D01*
X129710525Y-107813729D01*
X129710526Y-107813729D01*
X129744963Y-107817805D01*
X129879261Y-107833700D01*
X130201793Y-107833700D01*
X130203487Y-107833544D01*
X130203494Y-107833544D01*
X130264374Y-107827950D01*
X130359146Y-107819241D01*
X130563221Y-107761686D01*
X130566309Y-107760163D01*
X130566312Y-107760162D01*
X130674175Y-107706970D01*
X130753389Y-107667906D01*
X130923283Y-107541040D01*
X131067213Y-107385337D01*
X131084419Y-107358068D01*
X131119863Y-107301892D01*
X131180358Y-107206013D01*
X131181634Y-107202816D01*
X131181636Y-107202811D01*
X131257650Y-107012281D01*
X131257651Y-107012278D01*
X131258930Y-107009072D01*
X131260795Y-106999700D01*
X131299623Y-106804494D01*
X131300296Y-106801111D01*
X131302558Y-106628300D01*
X131303026Y-106592537D01*
X131303026Y-106592536D01*
X131303071Y-106589094D01*
X131300608Y-106574757D01*
X131267746Y-106383513D01*
X131267746Y-106383511D01*
X131267163Y-106380121D01*
X131193774Y-106181191D01*
X131085362Y-105998967D01*
X131040297Y-105947580D01*
X130947833Y-105842145D01*
X130947832Y-105842144D01*
X130945557Y-105839550D01*
X130916821Y-105816896D01*
X130781747Y-105710412D01*
X130781744Y-105710410D01*
X130779042Y-105708280D01*
X130775995Y-105706677D01*
X130775992Y-105706675D01*
X130594440Y-105611156D01*
X130594439Y-105611156D01*
X130591393Y-105609553D01*
X130566624Y-105601862D01*
X130392184Y-105547697D01*
X130392181Y-105547696D01*
X130388895Y-105546676D01*
X130385475Y-105546271D01*
X130385474Y-105546271D01*
X130346811Y-105541695D01*
X130216739Y-105526300D01*
X129894207Y-105526300D01*
X129892513Y-105526456D01*
X129892506Y-105526456D01*
X129831626Y-105532050D01*
X129736854Y-105540759D01*
X129733536Y-105541695D01*
X129733535Y-105541695D01*
X129699535Y-105551284D01*
X129532779Y-105598314D01*
X129529691Y-105599837D01*
X129529688Y-105599838D01*
X129481039Y-105623829D01*
X129342611Y-105692094D01*
X129172717Y-105818960D01*
X129028787Y-105974663D01*
X129026952Y-105977572D01*
X129026950Y-105977574D01*
X128934734Y-106123728D01*
X128894061Y-106155220D01*
X128871135Y-106158800D01*
X128212236Y-106158800D01*
X128163898Y-106141207D01*
X128159062Y-106136774D01*
X127695044Y-105672756D01*
X127692863Y-105670483D01*
X127655919Y-105630306D01*
X127655917Y-105630304D01*
X127652449Y-105626533D01*
X127648093Y-105623832D01*
X127648089Y-105623829D01*
X127615673Y-105603731D01*
X127609847Y-105599728D01*
X127575364Y-105573554D01*
X127558468Y-105566865D01*
X127546527Y-105560859D01*
X127535442Y-105553986D01*
X127535441Y-105553986D01*
X127531084Y-105551284D01*
X127489531Y-105539212D01*
X127482831Y-105536917D01*
X127447362Y-105522874D01*
X127447358Y-105522873D01*
X127442592Y-105520986D01*
X127437493Y-105520450D01*
X127424517Y-105519086D01*
X127411405Y-105516514D01*
X127393954Y-105511444D01*
X127383823Y-105510700D01*
X127348663Y-105510700D01*
X127340803Y-105510288D01*
X127334704Y-105509647D01*
X127300575Y-105506060D01*
X127295520Y-105506915D01*
X127279367Y-105509647D01*
X127266826Y-105510700D01*
X126572687Y-105510700D01*
X126524349Y-105493107D01*
X126512198Y-105480178D01*
X126453775Y-105401080D01*
X126450438Y-105396562D01*
X126411157Y-105367548D01*
X126345221Y-105318846D01*
X126345217Y-105318844D01*
X126340698Y-105315506D01*
X126211975Y-105270302D01*
X126207412Y-105269871D01*
X126207409Y-105269870D01*
X126181977Y-105267466D01*
X126181969Y-105267466D01*
X126180217Y-105267300D01*
X125477593Y-105267300D01*
X124771784Y-105267301D01*
X124770030Y-105267467D01*
X124770024Y-105267467D01*
X124744582Y-105269871D01*
X124744579Y-105269872D01*
X124740025Y-105270302D01*
X124735707Y-105271818D01*
X124735704Y-105271819D01*
X124674140Y-105293439D01*
X124611302Y-105315506D01*
X124606783Y-105318844D01*
X124606779Y-105318846D01*
X124540843Y-105367548D01*
X124501562Y-105396562D01*
X124498225Y-105401080D01*
X124439802Y-105480178D01*
X124396932Y-105508607D01*
X124379313Y-105510700D01*
X123408899Y-105510700D01*
X123360561Y-105493107D01*
X123334841Y-105448558D01*
X123333699Y-105435500D01*
X123333699Y-105365784D01*
X123333533Y-105364023D01*
X123331129Y-105338582D01*
X123331128Y-105338579D01*
X123330698Y-105334025D01*
X123329179Y-105329697D01*
X123291576Y-105222621D01*
X123285494Y-105205302D01*
X123282156Y-105200783D01*
X123282154Y-105200779D01*
X123207775Y-105100080D01*
X123204438Y-105095562D01*
X123190609Y-105085348D01*
X123099221Y-105017846D01*
X123099217Y-105017844D01*
X123094698Y-105014506D01*
X123054336Y-105000332D01*
X123050284Y-104998909D01*
X123010506Y-104966293D01*
X123000000Y-104927957D01*
X123000000Y-104230906D01*
X128792929Y-104230906D01*
X128793512Y-104234297D01*
X128793512Y-104234301D01*
X128827414Y-104431600D01*
X128828837Y-104439879D01*
X128902226Y-104638809D01*
X129010638Y-104821033D01*
X129012912Y-104823626D01*
X129147538Y-104977137D01*
X129150443Y-104980450D01*
X129153150Y-104982584D01*
X129153152Y-104982586D01*
X129314253Y-105109588D01*
X129314256Y-105109590D01*
X129316958Y-105111720D01*
X129320005Y-105113323D01*
X129320008Y-105113325D01*
X129451891Y-105182712D01*
X129504607Y-105210447D01*
X129507892Y-105211467D01*
X129703816Y-105272303D01*
X129703819Y-105272304D01*
X129707105Y-105273324D01*
X129710525Y-105273729D01*
X129710526Y-105273729D01*
X129744963Y-105277805D01*
X129879261Y-105293700D01*
X130201793Y-105293700D01*
X130203487Y-105293544D01*
X130203494Y-105293544D01*
X130264374Y-105287950D01*
X130359146Y-105279241D01*
X130385463Y-105271819D01*
X130402790Y-105266932D01*
X130563221Y-105221686D01*
X130566309Y-105220163D01*
X130566312Y-105220162D01*
X130662024Y-105172962D01*
X130753389Y-105127906D01*
X130923283Y-105001040D01*
X131067213Y-104845337D01*
X131079545Y-104825793D01*
X131118618Y-104763865D01*
X131180358Y-104666013D01*
X131181634Y-104662816D01*
X131181636Y-104662811D01*
X131257650Y-104472281D01*
X131257651Y-104472278D01*
X131258930Y-104469072D01*
X131261034Y-104458499D01*
X131296145Y-104281978D01*
X131300296Y-104261111D01*
X131303071Y-104049094D01*
X131302076Y-104043300D01*
X131267746Y-103843513D01*
X131267746Y-103843511D01*
X131267163Y-103840121D01*
X131193774Y-103641191D01*
X131085362Y-103458967D01*
X131030833Y-103396789D01*
X130947833Y-103302145D01*
X130947832Y-103302144D01*
X130945557Y-103299550D01*
X130942848Y-103297414D01*
X130781747Y-103170412D01*
X130781744Y-103170410D01*
X130779042Y-103168280D01*
X130775995Y-103166677D01*
X130775992Y-103166675D01*
X130594440Y-103071156D01*
X130594439Y-103071156D01*
X130591393Y-103069553D01*
X130577471Y-103065230D01*
X130392184Y-103007697D01*
X130392181Y-103007696D01*
X130388895Y-103006676D01*
X130385475Y-103006271D01*
X130385474Y-103006271D01*
X130346811Y-103001695D01*
X130216739Y-102986300D01*
X129894207Y-102986300D01*
X129892513Y-102986456D01*
X129892506Y-102986456D01*
X129831626Y-102992050D01*
X129736854Y-103000759D01*
X129532779Y-103058314D01*
X129529691Y-103059837D01*
X129529688Y-103059838D01*
X129458581Y-103094904D01*
X129342611Y-103152094D01*
X129172717Y-103278960D01*
X129028787Y-103434663D01*
X129026952Y-103437572D01*
X129026950Y-103437574D01*
X128998388Y-103482842D01*
X128915642Y-103613987D01*
X128914366Y-103617184D01*
X128914364Y-103617189D01*
X128854127Y-103768174D01*
X128837070Y-103810928D01*
X128836397Y-103814309D01*
X128836396Y-103814314D01*
X128803379Y-103980303D01*
X128795704Y-104018889D01*
X128795264Y-104052537D01*
X128793395Y-104195340D01*
X128792929Y-104230906D01*
X123000000Y-104230906D01*
X123000000Y-104049262D01*
X123000066Y-104046113D01*
X123001028Y-104023160D01*
X123002565Y-103986490D01*
X122992681Y-103944348D01*
X122991392Y-103937393D01*
X122989728Y-103925240D01*
X122985520Y-103894521D01*
X122978303Y-103877844D01*
X122974106Y-103865155D01*
X122969957Y-103847463D01*
X122949111Y-103809544D01*
X122945994Y-103803182D01*
X122930844Y-103768174D01*
X122928807Y-103763466D01*
X122917368Y-103749340D01*
X122909916Y-103738250D01*
X122901162Y-103722326D01*
X122894525Y-103714636D01*
X122869661Y-103689772D01*
X122864394Y-103683923D01*
X122842166Y-103656474D01*
X122838940Y-103652490D01*
X122821404Y-103640027D01*
X122811797Y-103631908D01*
X122303126Y-103123238D01*
X122281386Y-103076618D01*
X122281100Y-103070064D01*
X122281100Y-102759536D01*
X122269281Y-102700120D01*
X122230923Y-102642712D01*
X122228374Y-102638897D01*
X122224260Y-102632740D01*
X122156880Y-102587719D01*
X122097464Y-102575900D01*
X121407336Y-102575900D01*
X121347920Y-102587719D01*
X121280540Y-102632740D01*
X121276426Y-102638897D01*
X121273877Y-102642712D01*
X121235519Y-102700120D01*
X121223700Y-102759536D01*
X121223700Y-103859664D01*
X120381100Y-103859664D01*
X120381100Y-102759536D01*
X120369281Y-102700120D01*
X120330923Y-102642712D01*
X120328374Y-102638897D01*
X120324260Y-102632740D01*
X120256880Y-102587719D01*
X120197464Y-102575900D01*
X119507336Y-102575900D01*
X119447920Y-102587719D01*
X119380540Y-102632740D01*
X119376426Y-102638897D01*
X119373877Y-102642712D01*
X119335519Y-102700120D01*
X119334074Y-102707385D01*
X119329999Y-102727870D01*
X119303313Y-102771846D01*
X119256244Y-102788398D01*
X118852063Y-102788398D01*
X118848914Y-102788332D01*
X118789291Y-102785833D01*
X118784304Y-102787003D01*
X118784302Y-102787003D01*
X118747161Y-102795715D01*
X118740193Y-102797006D01*
X118702402Y-102802182D01*
X118702400Y-102802183D01*
X118697323Y-102802878D01*
X118680638Y-102810098D01*
X118667949Y-102814294D01*
X118650264Y-102818442D01*
X118643896Y-102821943D01*
X118612345Y-102839288D01*
X118605983Y-102842405D01*
X118566268Y-102859591D01*
X118552142Y-102871030D01*
X118541055Y-102878480D01*
X118525128Y-102887236D01*
X118517438Y-102893874D01*
X118492579Y-102918733D01*
X118486731Y-102923999D01*
X118455292Y-102949458D01*
X118444285Y-102964946D01*
X118442831Y-102966992D01*
X118434708Y-102976604D01*
X118119338Y-103291974D01*
X118072718Y-103313714D01*
X118066164Y-103314000D01*
X117718299Y-103314000D01*
X117669961Y-103296407D01*
X117644241Y-103251858D01*
X117643099Y-103238800D01*
X117643099Y-103130984D01*
X117642367Y-103123238D01*
X117640529Y-103103782D01*
X117640528Y-103103779D01*
X117640098Y-103099225D01*
X117638579Y-103094897D01*
X117600533Y-102986561D01*
X117594894Y-102970502D01*
X117591556Y-102965983D01*
X117591554Y-102965979D01*
X117517175Y-102865280D01*
X117513838Y-102860762D01*
X117484765Y-102839288D01*
X117408621Y-102783046D01*
X117408617Y-102783044D01*
X117404098Y-102779706D01*
X117275375Y-102734502D01*
X117270812Y-102734071D01*
X117270809Y-102734070D01*
X117245377Y-102731666D01*
X117245369Y-102731666D01*
X117243617Y-102731500D01*
X116777956Y-102731500D01*
X116310184Y-102731501D01*
X116308430Y-102731667D01*
X116308424Y-102731667D01*
X116282982Y-102734071D01*
X116282979Y-102734072D01*
X116278425Y-102734502D01*
X116274107Y-102736018D01*
X116274104Y-102736019D01*
X116217461Y-102755911D01*
X116149702Y-102779706D01*
X116145183Y-102783044D01*
X116145179Y-102783046D01*
X116069035Y-102839288D01*
X116039962Y-102860762D01*
X116036625Y-102865280D01*
X115962246Y-102965979D01*
X115962244Y-102965983D01*
X115958906Y-102970502D01*
X115913702Y-103099225D01*
X115913271Y-103103788D01*
X115913270Y-103103791D01*
X115911432Y-103123238D01*
X115910700Y-103130983D01*
X114567693Y-103130983D01*
X114562214Y-103080549D01*
X114560050Y-103071445D01*
X114512907Y-102945691D01*
X114507817Y-102936394D01*
X114427657Y-102829436D01*
X114420164Y-102821943D01*
X114313206Y-102741783D01*
X114303909Y-102736693D01*
X114178156Y-102689550D01*
X114169049Y-102687385D01*
X114114139Y-102681420D01*
X114110073Y-102681200D01*
X114046159Y-102681200D01*
X114036002Y-102684897D01*
X114032900Y-102690269D01*
X114032900Y-103440941D01*
X113270900Y-103440941D01*
X113270900Y-102694460D01*
X113267203Y-102684303D01*
X113261831Y-102681201D01*
X113193729Y-102681201D01*
X113189660Y-102681421D01*
X113134749Y-102687386D01*
X113125645Y-102689550D01*
X112999891Y-102736693D01*
X112990594Y-102741783D01*
X112883636Y-102821943D01*
X112876143Y-102829436D01*
X112795983Y-102936394D01*
X112790893Y-102945691D01*
X112743750Y-103071444D01*
X112741585Y-103080551D01*
X112735620Y-103135461D01*
X112735400Y-103139527D01*
X112735400Y-103440941D01*
X110749554Y-103440941D01*
X110710833Y-103396789D01*
X110627833Y-103302145D01*
X110627832Y-103302144D01*
X110625557Y-103299550D01*
X110622848Y-103297414D01*
X110461747Y-103170412D01*
X110461744Y-103170410D01*
X110459042Y-103168280D01*
X110455995Y-103166677D01*
X110455992Y-103166675D01*
X110274440Y-103071156D01*
X110274439Y-103071156D01*
X110271393Y-103069553D01*
X110257471Y-103065230D01*
X110072184Y-103007697D01*
X110072181Y-103007696D01*
X110068895Y-103006676D01*
X110065475Y-103006271D01*
X110065474Y-103006271D01*
X110026811Y-103001695D01*
X109896739Y-102986300D01*
X109574207Y-102986300D01*
X109572513Y-102986456D01*
X109572506Y-102986456D01*
X109511626Y-102992050D01*
X109416854Y-103000759D01*
X109212779Y-103058314D01*
X109209691Y-103059837D01*
X109209688Y-103059838D01*
X109138581Y-103094904D01*
X109022611Y-103152094D01*
X108852717Y-103278960D01*
X108708787Y-103434663D01*
X108706952Y-103437572D01*
X108706950Y-103437574D01*
X108678388Y-103482842D01*
X108595642Y-103613987D01*
X108594366Y-103617184D01*
X108594364Y-103617189D01*
X108534127Y-103768174D01*
X108517070Y-103810928D01*
X108516397Y-103814309D01*
X108516396Y-103814314D01*
X108483379Y-103980303D01*
X108475704Y-104018889D01*
X108475264Y-104052537D01*
X108473395Y-104195340D01*
X108472929Y-104230906D01*
X106812202Y-104230906D01*
X106237355Y-103656059D01*
X106233861Y-103652319D01*
X106197500Y-103610637D01*
X106197499Y-103610636D01*
X106194518Y-103607219D01*
X106173804Y-103592661D01*
X106140897Y-103569534D01*
X106137736Y-103567187D01*
X106086187Y-103526767D01*
X106082059Y-103524903D01*
X106082057Y-103524902D01*
X106075488Y-103521936D01*
X106063195Y-103514924D01*
X106057299Y-103510780D01*
X106057293Y-103510777D01*
X106053584Y-103508170D01*
X106049360Y-103506523D01*
X106049356Y-103506521D01*
X105992534Y-103484368D01*
X105988904Y-103482842D01*
X105942594Y-103461932D01*
X105929191Y-103455880D01*
X105917647Y-103453741D01*
X105904033Y-103449863D01*
X105897311Y-103447242D01*
X105893092Y-103445597D01*
X105828115Y-103437042D01*
X105824256Y-103436431D01*
X105759817Y-103424488D01*
X105755289Y-103424749D01*
X105755287Y-103424749D01*
X105695873Y-103428175D01*
X105691544Y-103428300D01*
X103685027Y-103428300D01*
X103636689Y-103410707D01*
X103626753Y-103400630D01*
X103623620Y-103396789D01*
X103623618Y-103396787D01*
X103621292Y-103393935D01*
X103618459Y-103391591D01*
X103464905Y-103264560D01*
X103464901Y-103264557D01*
X103462072Y-103262217D01*
X103280301Y-103163933D01*
X103201464Y-103139529D01*
X103086414Y-103103915D01*
X103086410Y-103103914D01*
X103082901Y-103102828D01*
X102940612Y-103087873D01*
X102881047Y-103081612D01*
X102881045Y-103081612D01*
X102877392Y-103081228D01*
X102774496Y-103090592D01*
X102675259Y-103099623D01*
X102675258Y-103099623D01*
X102671601Y-103099956D01*
X102668076Y-103100993D01*
X102668073Y-103100994D01*
X102499634Y-103150569D01*
X102473367Y-103158300D01*
X102290241Y-103254036D01*
X102280066Y-103262217D01*
X102132069Y-103381209D01*
X102132065Y-103381213D01*
X102129198Y-103383518D01*
X102126830Y-103386340D01*
X102126829Y-103386341D01*
X101998735Y-103538996D01*
X101998732Y-103539000D01*
X101996371Y-103541814D01*
X101994600Y-103545036D01*
X101994599Y-103545037D01*
X101901903Y-103713650D01*
X101896821Y-103722895D01*
X101895708Y-103726404D01*
X101836893Y-103911814D01*
X101834339Y-103919864D01*
X101811305Y-104125217D01*
X100482400Y-104125217D01*
X100482400Y-101585217D01*
X101811305Y-101585217D01*
X101811613Y-101588885D01*
X101811613Y-101588888D01*
X101821128Y-101702202D01*
X101828596Y-101791133D01*
X101885555Y-101989770D01*
X101980010Y-102173560D01*
X102108364Y-102335503D01*
X102265730Y-102469431D01*
X102268941Y-102471225D01*
X102268943Y-102471227D01*
X102442900Y-102568449D01*
X102442905Y-102568451D01*
X102446111Y-102570243D01*
X102449612Y-102571381D01*
X102449613Y-102571381D01*
X102455596Y-102573325D01*
X102642639Y-102634099D01*
X102755982Y-102647614D01*
X102844168Y-102658130D01*
X102844170Y-102658130D01*
X102847826Y-102658566D01*
X103053858Y-102642712D01*
X103252887Y-102587143D01*
X103437332Y-102493973D01*
X103600168Y-102366752D01*
X103625192Y-102337762D01*
X103670092Y-102312668D01*
X103682116Y-102311700D01*
X108683460Y-102311700D01*
X108731798Y-102329293D01*
X108739995Y-102337314D01*
X108830443Y-102440450D01*
X108833150Y-102442584D01*
X108833152Y-102442586D01*
X108994253Y-102569588D01*
X108994256Y-102569590D01*
X108996958Y-102571720D01*
X109000005Y-102573323D01*
X109000008Y-102573325D01*
X109131891Y-102642712D01*
X109184607Y-102670447D01*
X109187892Y-102671467D01*
X109383816Y-102732303D01*
X109383819Y-102732304D01*
X109387105Y-102733324D01*
X109390525Y-102733729D01*
X109390526Y-102733729D01*
X109424963Y-102737805D01*
X109559261Y-102753700D01*
X109881793Y-102753700D01*
X109883487Y-102753544D01*
X109883494Y-102753544D01*
X109944374Y-102747950D01*
X110039146Y-102739241D01*
X110050571Y-102736019D01*
X110082790Y-102726932D01*
X110243221Y-102681686D01*
X110246309Y-102680163D01*
X110246312Y-102680162D01*
X110350817Y-102628626D01*
X110433389Y-102587906D01*
X110603283Y-102461040D01*
X110747213Y-102305337D01*
X110764419Y-102278068D01*
X110793018Y-102232740D01*
X110860358Y-102126013D01*
X110861634Y-102122816D01*
X110861636Y-102122811D01*
X110937650Y-101932281D01*
X110937651Y-101932278D01*
X110938930Y-101929072D01*
X110944095Y-101903109D01*
X110967057Y-101787671D01*
X112735401Y-101787671D01*
X112735621Y-101791740D01*
X112741586Y-101846651D01*
X112743750Y-101855755D01*
X112790893Y-101981509D01*
X112795983Y-101990806D01*
X112876143Y-102097764D01*
X112883636Y-102105257D01*
X112990594Y-102185417D01*
X112999891Y-102190507D01*
X113125644Y-102237650D01*
X113134751Y-102239815D01*
X113189661Y-102245780D01*
X113193727Y-102246000D01*
X113257641Y-102246000D01*
X113267798Y-102242303D01*
X113270900Y-102236931D01*
X113270900Y-102232740D01*
X114032900Y-102232740D01*
X114036597Y-102242897D01*
X114041969Y-102245999D01*
X114110071Y-102245999D01*
X114114140Y-102245779D01*
X114169051Y-102239814D01*
X114178155Y-102237650D01*
X114303909Y-102190507D01*
X114313206Y-102185417D01*
X114420164Y-102105257D01*
X114427657Y-102097764D01*
X114507817Y-101990806D01*
X114512907Y-101981509D01*
X114560050Y-101855756D01*
X114562215Y-101846649D01*
X114568180Y-101791739D01*
X114568400Y-101787673D01*
X114568400Y-101486259D01*
X114564703Y-101476102D01*
X114559331Y-101473000D01*
X114046159Y-101473000D01*
X114036002Y-101476697D01*
X114032900Y-101482069D01*
X114032900Y-102232740D01*
X113270900Y-102232740D01*
X113270900Y-101486259D01*
X113267203Y-101476102D01*
X113261831Y-101473000D01*
X112748660Y-101473000D01*
X112738503Y-101476697D01*
X112735401Y-101482069D01*
X112735401Y-101787671D01*
X110967057Y-101787671D01*
X110979623Y-101724494D01*
X110980296Y-101721111D01*
X110983071Y-101509094D01*
X110979148Y-101486259D01*
X110947746Y-101303513D01*
X110947746Y-101303511D01*
X110947163Y-101300121D01*
X110873774Y-101101191D01*
X110765362Y-100918967D01*
X110710833Y-100856789D01*
X110627833Y-100762145D01*
X110627832Y-100762144D01*
X110625557Y-100759550D01*
X110596821Y-100736896D01*
X110547153Y-100697741D01*
X112735400Y-100697741D01*
X112739097Y-100707898D01*
X112744469Y-100711000D01*
X113257641Y-100711000D01*
X113267798Y-100707303D01*
X113270900Y-100701931D01*
X113270900Y-100697741D01*
X114032900Y-100697741D01*
X114036597Y-100707898D01*
X114041969Y-100711000D01*
X114555140Y-100711000D01*
X114565297Y-100707303D01*
X114568399Y-100701931D01*
X114568399Y-100396329D01*
X114568179Y-100392260D01*
X114567693Y-100387783D01*
X115910700Y-100387783D01*
X115910701Y-101796216D01*
X115910867Y-101797970D01*
X115910867Y-101797976D01*
X115913271Y-101823409D01*
X115913702Y-101827975D01*
X115915218Y-101832293D01*
X115915219Y-101832296D01*
X115936747Y-101893599D01*
X115958906Y-101956698D01*
X115962244Y-101961217D01*
X115962246Y-101961221D01*
X115985751Y-101993043D01*
X116039962Y-102066438D01*
X116044480Y-102069775D01*
X116145179Y-102144154D01*
X116145183Y-102144156D01*
X116149702Y-102147494D01*
X116278425Y-102192698D01*
X116282988Y-102193129D01*
X116282991Y-102193130D01*
X116308423Y-102195534D01*
X116308431Y-102195534D01*
X116310183Y-102195700D01*
X116775844Y-102195700D01*
X117243616Y-102195699D01*
X117245370Y-102195533D01*
X117245376Y-102195533D01*
X117270818Y-102193129D01*
X117270821Y-102193128D01*
X117275375Y-102192698D01*
X117279693Y-102191182D01*
X117279696Y-102191181D01*
X117346889Y-102167584D01*
X117404098Y-102147494D01*
X117408617Y-102144156D01*
X117408621Y-102144154D01*
X117509320Y-102069775D01*
X117513838Y-102066438D01*
X117568049Y-101993043D01*
X117591554Y-101961221D01*
X117591556Y-101961217D01*
X117594894Y-101956698D01*
X117640098Y-101827975D01*
X117643100Y-101796217D01*
X117643100Y-101688400D01*
X117660693Y-101640062D01*
X117705242Y-101614342D01*
X117718300Y-101613200D01*
X118330961Y-101613200D01*
X118366843Y-101622313D01*
X118428828Y-101655968D01*
X118442558Y-101663423D01*
X118446937Y-101664572D01*
X118446940Y-101664573D01*
X118537764Y-101688400D01*
X118585392Y-101700895D01*
X118639929Y-101701752D01*
X118728509Y-101703143D01*
X118728510Y-101703143D01*
X118733041Y-101703214D01*
X118737458Y-101702202D01*
X118737461Y-101702202D01*
X118872559Y-101671260D01*
X118876982Y-101670247D01*
X118974467Y-101621218D01*
X119008255Y-101613200D01*
X119252743Y-101613200D01*
X119301081Y-101630793D01*
X119326498Y-101673728D01*
X119335519Y-101719080D01*
X119380540Y-101786460D01*
X119447920Y-101831481D01*
X119507336Y-101843300D01*
X120197464Y-101843300D01*
X120214391Y-101839933D01*
X120256880Y-101831481D01*
X120257113Y-101832652D01*
X120300862Y-101830739D01*
X120320031Y-101839933D01*
X120372138Y-101874749D01*
X120385557Y-101880308D01*
X120448758Y-101892879D01*
X120456079Y-101893600D01*
X120464141Y-101893600D01*
X120474298Y-101889903D01*
X120477400Y-101884531D01*
X120477400Y-100338860D01*
X120473703Y-100328703D01*
X120468331Y-100325601D01*
X120456081Y-100325601D01*
X120448756Y-100326323D01*
X120385560Y-100338892D01*
X120372136Y-100344452D01*
X120320031Y-100379267D01*
X120270065Y-100391493D01*
X120257837Y-100388358D01*
X120256880Y-100387719D01*
X120250018Y-100386354D01*
X120250014Y-100386353D01*
X120201089Y-100376621D01*
X120201088Y-100376621D01*
X120197464Y-100375900D01*
X119507336Y-100375900D01*
X119447920Y-100387719D01*
X119380540Y-100432740D01*
X119335519Y-100500120D01*
X119334074Y-100507386D01*
X119333500Y-100510270D01*
X119331543Y-100513494D01*
X119331240Y-100514227D01*
X119331127Y-100514180D01*
X119306815Y-100554247D01*
X119259745Y-100570800D01*
X119239200Y-100570800D01*
X119190862Y-100553207D01*
X119165142Y-100508658D01*
X119164000Y-100495600D01*
X119164000Y-98906622D01*
X119181593Y-98858284D01*
X119214283Y-98835670D01*
X119252194Y-98822357D01*
X119252196Y-98822356D01*
X119257498Y-98820494D01*
X119367238Y-98739438D01*
X119377452Y-98725609D01*
X119444954Y-98634221D01*
X119444956Y-98634217D01*
X119448294Y-98629698D01*
X119493498Y-98500975D01*
X119496500Y-98469217D01*
X119496499Y-97110784D01*
X119496499Y-97110783D01*
X120889100Y-97110783D01*
X120889101Y-98469216D01*
X120889267Y-98470970D01*
X120889267Y-98470976D01*
X120891671Y-98496409D01*
X120892102Y-98500975D01*
X120893618Y-98505293D01*
X120893619Y-98505296D01*
X120902672Y-98531075D01*
X120937306Y-98629698D01*
X120940644Y-98634217D01*
X120940646Y-98634221D01*
X121008148Y-98725609D01*
X121018362Y-98739438D01*
X121022880Y-98742775D01*
X121123579Y-98817154D01*
X121123583Y-98817156D01*
X121128102Y-98820494D01*
X121180917Y-98839041D01*
X121220694Y-98871657D01*
X121231200Y-98909993D01*
X121231200Y-100250753D01*
X121213607Y-100299091D01*
X121169058Y-100324811D01*
X121152417Y-100325446D01*
X121152417Y-100325600D01*
X121140659Y-100325600D01*
X121130502Y-100329297D01*
X121127400Y-100334669D01*
X121127400Y-101880340D01*
X121131097Y-101890497D01*
X121136469Y-101893599D01*
X121148719Y-101893599D01*
X121156044Y-101892877D01*
X121219240Y-101880308D01*
X121232664Y-101874748D01*
X121284769Y-101839933D01*
X121334735Y-101827707D01*
X121346963Y-101830842D01*
X121347920Y-101831481D01*
X121354782Y-101832846D01*
X121354786Y-101832847D01*
X121403711Y-101842579D01*
X121407336Y-101843300D01*
X122097464Y-101843300D01*
X122156880Y-101831481D01*
X122224260Y-101786460D01*
X122269281Y-101719080D01*
X122274885Y-101690906D01*
X128792929Y-101690906D01*
X128793512Y-101694297D01*
X128793512Y-101694301D01*
X128826200Y-101884531D01*
X128828837Y-101899879D01*
X128902226Y-102098809D01*
X129010638Y-102281033D01*
X129012912Y-102283626D01*
X129085812Y-102366752D01*
X129150443Y-102440450D01*
X129153150Y-102442584D01*
X129153152Y-102442586D01*
X129314253Y-102569588D01*
X129314256Y-102569590D01*
X129316958Y-102571720D01*
X129320005Y-102573323D01*
X129320008Y-102573325D01*
X129451891Y-102642712D01*
X129504607Y-102670447D01*
X129507892Y-102671467D01*
X129703816Y-102732303D01*
X129703819Y-102732304D01*
X129707105Y-102733324D01*
X129710525Y-102733729D01*
X129710526Y-102733729D01*
X129744963Y-102737805D01*
X129879261Y-102753700D01*
X130201793Y-102753700D01*
X130203487Y-102753544D01*
X130203494Y-102753544D01*
X130264374Y-102747950D01*
X130359146Y-102739241D01*
X130370571Y-102736019D01*
X130402790Y-102726932D01*
X130563221Y-102681686D01*
X130566309Y-102680163D01*
X130566312Y-102680162D01*
X130670817Y-102628626D01*
X130753389Y-102587906D01*
X130923283Y-102461040D01*
X131067213Y-102305337D01*
X131084419Y-102278068D01*
X131113018Y-102232740D01*
X131180358Y-102126013D01*
X131181634Y-102122816D01*
X131181636Y-102122811D01*
X131257650Y-101932281D01*
X131257651Y-101932278D01*
X131258930Y-101929072D01*
X131264095Y-101903109D01*
X131299623Y-101724494D01*
X131300296Y-101721111D01*
X131303071Y-101509094D01*
X131299148Y-101486259D01*
X131267746Y-101303513D01*
X131267746Y-101303511D01*
X131267163Y-101300121D01*
X131193774Y-101101191D01*
X131085362Y-100918967D01*
X131030833Y-100856789D01*
X130947833Y-100762145D01*
X130947832Y-100762144D01*
X130945557Y-100759550D01*
X130916821Y-100736896D01*
X130781747Y-100630412D01*
X130781744Y-100630410D01*
X130779042Y-100628280D01*
X130775995Y-100626677D01*
X130775992Y-100626675D01*
X130594440Y-100531156D01*
X130594439Y-100531156D01*
X130591393Y-100529553D01*
X130566527Y-100521832D01*
X130392184Y-100467697D01*
X130392181Y-100467696D01*
X130388895Y-100466676D01*
X130385475Y-100466271D01*
X130385474Y-100466271D01*
X130346811Y-100461695D01*
X130216739Y-100446300D01*
X129894207Y-100446300D01*
X129892513Y-100446456D01*
X129892506Y-100446456D01*
X129831626Y-100452050D01*
X129736854Y-100460759D01*
X129532779Y-100518314D01*
X129529691Y-100519837D01*
X129529688Y-100519838D01*
X129459914Y-100554247D01*
X129342611Y-100612094D01*
X129172717Y-100738960D01*
X129028787Y-100894663D01*
X129026952Y-100897572D01*
X129026950Y-100897574D01*
X128993230Y-100951017D01*
X128915642Y-101073987D01*
X128914366Y-101077184D01*
X128914364Y-101077189D01*
X128838350Y-101267719D01*
X128837070Y-101270928D01*
X128836397Y-101274309D01*
X128836396Y-101274314D01*
X128815401Y-101379864D01*
X128795704Y-101478889D01*
X128792929Y-101690906D01*
X122274885Y-101690906D01*
X122281100Y-101659664D01*
X122281100Y-100559536D01*
X122277525Y-100541561D01*
X122275045Y-100529096D01*
X122273600Y-100514425D01*
X122273600Y-99150906D01*
X128792929Y-99150906D01*
X128828837Y-99359879D01*
X128902226Y-99558809D01*
X129010638Y-99741033D01*
X129150443Y-99900450D01*
X129153150Y-99902584D01*
X129153152Y-99902586D01*
X129314253Y-100029588D01*
X129314256Y-100029590D01*
X129316958Y-100031720D01*
X129320005Y-100033323D01*
X129320008Y-100033325D01*
X129488704Y-100122080D01*
X129504607Y-100130447D01*
X129507892Y-100131467D01*
X129703816Y-100192303D01*
X129703819Y-100192304D01*
X129707105Y-100193324D01*
X129710525Y-100193729D01*
X129710526Y-100193729D01*
X129744963Y-100197805D01*
X129879261Y-100213700D01*
X130201793Y-100213700D01*
X130203487Y-100213544D01*
X130203494Y-100213544D01*
X130264374Y-100207950D01*
X130359146Y-100199241D01*
X130563221Y-100141686D01*
X130566309Y-100140163D01*
X130566312Y-100140162D01*
X130690857Y-100078743D01*
X130753389Y-100047906D01*
X130923283Y-99921040D01*
X131067213Y-99765337D01*
X131084419Y-99738068D01*
X131102770Y-99708983D01*
X131180358Y-99586013D01*
X131181634Y-99582816D01*
X131181636Y-99582811D01*
X131257650Y-99392281D01*
X131257651Y-99392278D01*
X131258930Y-99389072D01*
X131264095Y-99363109D01*
X131299623Y-99184494D01*
X131300296Y-99181111D01*
X131303071Y-98969094D01*
X131292337Y-98906622D01*
X131267746Y-98763513D01*
X131267746Y-98763511D01*
X131267163Y-98760121D01*
X131193774Y-98561191D01*
X131085362Y-98378967D01*
X130945557Y-98219550D01*
X130916821Y-98196896D01*
X130781747Y-98090412D01*
X130781744Y-98090410D01*
X130779042Y-98088280D01*
X130775995Y-98086677D01*
X130775992Y-98086675D01*
X130594440Y-97991156D01*
X130594439Y-97991156D01*
X130591393Y-97989553D01*
X130577471Y-97985230D01*
X130392184Y-97927697D01*
X130392181Y-97927696D01*
X130388895Y-97926676D01*
X130385475Y-97926271D01*
X130385474Y-97926271D01*
X130346811Y-97921695D01*
X130216739Y-97906300D01*
X129894207Y-97906300D01*
X129892513Y-97906456D01*
X129892506Y-97906456D01*
X129831626Y-97912050D01*
X129736854Y-97920759D01*
X129532779Y-97978314D01*
X129529691Y-97979837D01*
X129529688Y-97979838D01*
X129435578Y-98026248D01*
X129342611Y-98072094D01*
X129172717Y-98198960D01*
X129028787Y-98354663D01*
X129026952Y-98357572D01*
X129026950Y-98357574D01*
X128993230Y-98411017D01*
X128915642Y-98533987D01*
X128914366Y-98537184D01*
X128914364Y-98537189D01*
X128877457Y-98629698D01*
X128837070Y-98730928D01*
X128836397Y-98734309D01*
X128836396Y-98734314D01*
X128811737Y-98858284D01*
X128795704Y-98938889D01*
X128792929Y-99150906D01*
X122273600Y-99150906D01*
X122273600Y-98903251D01*
X122291193Y-98854913D01*
X122323883Y-98832299D01*
X122352193Y-98822357D01*
X122357498Y-98820494D01*
X122467238Y-98739438D01*
X122477452Y-98725609D01*
X122544954Y-98634221D01*
X122544956Y-98634217D01*
X122548294Y-98629698D01*
X122593498Y-98500975D01*
X122596500Y-98469217D01*
X122596499Y-97110784D01*
X122596333Y-97109023D01*
X122593929Y-97083582D01*
X122593928Y-97083579D01*
X122593498Y-97079025D01*
X122591979Y-97074697D01*
X122550157Y-96955608D01*
X122548294Y-96950302D01*
X122544956Y-96945783D01*
X122544954Y-96945779D01*
X122470575Y-96845080D01*
X122467238Y-96840562D01*
X122357498Y-96759506D01*
X122352196Y-96757644D01*
X122352194Y-96757643D01*
X122314283Y-96744330D01*
X122274506Y-96711714D01*
X122264000Y-96673378D01*
X122264000Y-96610906D01*
X128792929Y-96610906D01*
X128793512Y-96614297D01*
X128793512Y-96614301D01*
X128812821Y-96726672D01*
X128828837Y-96819879D01*
X128902226Y-97018809D01*
X129010638Y-97201033D01*
X129150443Y-97360450D01*
X129153150Y-97362584D01*
X129153152Y-97362586D01*
X129314253Y-97489588D01*
X129314256Y-97489590D01*
X129316958Y-97491720D01*
X129320005Y-97493323D01*
X129320008Y-97493325D01*
X129347722Y-97507906D01*
X129504607Y-97590447D01*
X129507892Y-97591467D01*
X129703816Y-97652303D01*
X129703819Y-97652304D01*
X129707105Y-97653324D01*
X129710525Y-97653729D01*
X129710526Y-97653729D01*
X129744963Y-97657805D01*
X129879261Y-97673700D01*
X130201793Y-97673700D01*
X130203487Y-97673544D01*
X130203494Y-97673544D01*
X130264374Y-97667950D01*
X130359146Y-97659241D01*
X130563221Y-97601686D01*
X130566309Y-97600163D01*
X130566312Y-97600162D01*
X130660422Y-97553752D01*
X130753389Y-97507906D01*
X130923283Y-97381040D01*
X131067213Y-97225337D01*
X131084419Y-97198068D01*
X131138372Y-97112557D01*
X131180358Y-97046013D01*
X131181634Y-97042816D01*
X131181636Y-97042811D01*
X131257650Y-96852281D01*
X131257651Y-96852278D01*
X131258930Y-96849072D01*
X131259725Y-96845080D01*
X131299623Y-96644494D01*
X131300296Y-96641111D01*
X131303071Y-96429094D01*
X131267163Y-96220121D01*
X131193774Y-96021191D01*
X131085362Y-95838967D01*
X131036544Y-95783301D01*
X130947833Y-95682145D01*
X130947832Y-95682144D01*
X130945557Y-95679550D01*
X130922651Y-95661492D01*
X130781747Y-95550412D01*
X130781744Y-95550410D01*
X130779042Y-95548280D01*
X130775995Y-95546677D01*
X130775992Y-95546675D01*
X130594440Y-95451156D01*
X130594439Y-95451156D01*
X130591393Y-95449553D01*
X130577471Y-95445230D01*
X130392184Y-95387697D01*
X130392181Y-95387696D01*
X130388895Y-95386676D01*
X130385475Y-95386271D01*
X130385474Y-95386271D01*
X130346811Y-95381695D01*
X130216739Y-95366300D01*
X129894207Y-95366300D01*
X129892513Y-95366456D01*
X129892506Y-95366456D01*
X129831626Y-95372050D01*
X129736854Y-95380759D01*
X129532779Y-95438314D01*
X129529691Y-95439837D01*
X129529688Y-95439838D01*
X129435578Y-95486248D01*
X129342611Y-95532094D01*
X129172717Y-95658960D01*
X129028787Y-95814663D01*
X129026952Y-95817572D01*
X129026950Y-95817574D01*
X128997425Y-95864368D01*
X128915642Y-95993987D01*
X128914366Y-95997184D01*
X128914364Y-95997189D01*
X128838350Y-96187719D01*
X128837070Y-96190928D01*
X128836397Y-96194309D01*
X128836396Y-96194314D01*
X128831263Y-96220121D01*
X128795704Y-96398889D01*
X128792929Y-96610906D01*
X122264000Y-96610906D01*
X122264000Y-96283836D01*
X122281593Y-96235498D01*
X122286026Y-96230662D01*
X123993462Y-94523226D01*
X124040082Y-94501486D01*
X124046636Y-94501200D01*
X128872785Y-94501200D01*
X128921123Y-94518793D01*
X128937411Y-94537950D01*
X129010638Y-94661033D01*
X129150443Y-94820450D01*
X129153150Y-94822584D01*
X129153152Y-94822586D01*
X129314253Y-94949588D01*
X129314256Y-94949590D01*
X129316958Y-94951720D01*
X129320005Y-94953323D01*
X129320008Y-94953325D01*
X129347722Y-94967906D01*
X129504607Y-95050447D01*
X129507892Y-95051467D01*
X129703816Y-95112303D01*
X129703819Y-95112304D01*
X129707105Y-95113324D01*
X129710525Y-95113729D01*
X129710526Y-95113729D01*
X129744963Y-95117805D01*
X129879261Y-95133700D01*
X130201793Y-95133700D01*
X130203487Y-95133544D01*
X130203494Y-95133544D01*
X130264374Y-95127950D01*
X130359146Y-95119241D01*
X130563221Y-95061686D01*
X130566309Y-95060163D01*
X130566312Y-95060162D01*
X130660422Y-95013752D01*
X130753389Y-94967906D01*
X130923283Y-94841040D01*
X131067213Y-94685337D01*
X131084419Y-94658068D01*
X131102770Y-94628983D01*
X131180358Y-94506013D01*
X131181634Y-94502816D01*
X131181636Y-94502811D01*
X131257650Y-94312281D01*
X131257651Y-94312278D01*
X131258930Y-94309072D01*
X131264095Y-94283109D01*
X131299623Y-94104494D01*
X131300296Y-94101111D01*
X131303071Y-93889094D01*
X131267163Y-93680121D01*
X131193774Y-93481191D01*
X131085362Y-93298967D01*
X130945557Y-93139550D01*
X130916821Y-93116896D01*
X130781747Y-93010412D01*
X130781744Y-93010410D01*
X130779042Y-93008280D01*
X130775995Y-93006677D01*
X130775992Y-93006675D01*
X130594440Y-92911156D01*
X130594439Y-92911156D01*
X130591393Y-92909553D01*
X130577471Y-92905230D01*
X130392184Y-92847697D01*
X130392181Y-92847696D01*
X130388895Y-92846676D01*
X130385475Y-92846271D01*
X130385474Y-92846271D01*
X130346811Y-92841695D01*
X130216739Y-92826300D01*
X129894207Y-92826300D01*
X129892513Y-92826456D01*
X129892506Y-92826456D01*
X129831626Y-92832050D01*
X129736854Y-92840759D01*
X129532779Y-92898314D01*
X129529691Y-92899837D01*
X129529688Y-92899838D01*
X129435578Y-92946248D01*
X129342611Y-92992094D01*
X129172717Y-93118960D01*
X129028787Y-93274663D01*
X129026952Y-93277572D01*
X129026950Y-93277574D01*
X128934734Y-93423728D01*
X128894061Y-93455220D01*
X128871135Y-93458800D01*
X123812861Y-93458800D01*
X123809712Y-93458734D01*
X123750089Y-93456235D01*
X123745102Y-93457405D01*
X123745100Y-93457405D01*
X123707959Y-93466117D01*
X123700991Y-93467408D01*
X123663200Y-93472584D01*
X123663198Y-93472585D01*
X123658121Y-93473280D01*
X123641436Y-93480500D01*
X123628747Y-93484696D01*
X123611062Y-93488844D01*
X123591309Y-93499703D01*
X123573143Y-93509690D01*
X123566781Y-93512807D01*
X123527066Y-93529993D01*
X123512940Y-93541432D01*
X123501853Y-93548882D01*
X123485926Y-93557638D01*
X123478236Y-93564276D01*
X123453377Y-93589135D01*
X123447529Y-93594401D01*
X123416090Y-93619860D01*
X123405083Y-93635348D01*
X123403629Y-93637394D01*
X123395506Y-93647006D01*
X121383656Y-95658856D01*
X121381383Y-95661037D01*
X121341206Y-95697981D01*
X121341204Y-95697983D01*
X121337433Y-95701451D01*
X121334732Y-95705807D01*
X121334729Y-95705811D01*
X121314631Y-95738227D01*
X121310628Y-95744053D01*
X121284454Y-95778536D01*
X121277766Y-95795429D01*
X121271759Y-95807373D01*
X121262184Y-95822816D01*
X121260754Y-95827739D01*
X121250112Y-95864368D01*
X121247817Y-95871069D01*
X121233774Y-95906538D01*
X121233773Y-95906542D01*
X121231886Y-95911308D01*
X121231350Y-95916407D01*
X121229986Y-95929383D01*
X121227414Y-95942495D01*
X121222344Y-95959946D01*
X121221600Y-95970077D01*
X121221600Y-96005237D01*
X121221188Y-96013097D01*
X121216960Y-96053325D01*
X121217815Y-96058380D01*
X121220547Y-96074533D01*
X121221600Y-96087074D01*
X121221600Y-96673378D01*
X121204007Y-96721716D01*
X121171317Y-96744330D01*
X121133406Y-96757643D01*
X121133404Y-96757644D01*
X121128102Y-96759506D01*
X121018362Y-96840562D01*
X121015025Y-96845080D01*
X120940646Y-96945779D01*
X120940644Y-96945783D01*
X120937306Y-96950302D01*
X120892102Y-97079025D01*
X120889100Y-97110783D01*
X119496499Y-97110783D01*
X119496333Y-97109023D01*
X119493929Y-97083582D01*
X119493928Y-97083579D01*
X119493498Y-97079025D01*
X119491979Y-97074697D01*
X119450157Y-96955608D01*
X119448294Y-96950302D01*
X119444956Y-96945783D01*
X119444954Y-96945779D01*
X119370575Y-96845080D01*
X119367238Y-96840562D01*
X119339236Y-96819879D01*
X119262021Y-96762846D01*
X119262017Y-96762844D01*
X119257498Y-96759506D01*
X119128775Y-96714302D01*
X119124212Y-96713871D01*
X119124209Y-96713870D01*
X119098777Y-96711466D01*
X119098769Y-96711466D01*
X119097017Y-96711300D01*
X118643828Y-96711300D01*
X118188584Y-96711301D01*
X118186830Y-96711467D01*
X118186824Y-96711467D01*
X118161382Y-96713871D01*
X118161379Y-96713872D01*
X118156825Y-96714302D01*
X118152507Y-96715818D01*
X118152504Y-96715819D01*
X118121600Y-96726672D01*
X118028102Y-96759506D01*
X118023583Y-96762844D01*
X118023579Y-96762846D01*
X117946364Y-96819879D01*
X117918362Y-96840562D01*
X117915025Y-96845080D01*
X117840646Y-96945779D01*
X117840644Y-96945783D01*
X117837306Y-96950302D01*
X117792102Y-97079025D01*
X117789100Y-97110783D01*
X117789101Y-98469216D01*
X117789267Y-98470970D01*
X117789267Y-98470976D01*
X117791671Y-98496409D01*
X117792102Y-98500975D01*
X117793618Y-98505293D01*
X117793619Y-98505296D01*
X117802672Y-98531075D01*
X117837306Y-98629698D01*
X117840644Y-98634217D01*
X117840646Y-98634221D01*
X117908148Y-98725609D01*
X117918362Y-98739438D01*
X118028102Y-98820494D01*
X118033404Y-98822356D01*
X118033406Y-98822357D01*
X118071317Y-98835670D01*
X118111094Y-98868286D01*
X118121600Y-98906622D01*
X118121600Y-100495600D01*
X118104007Y-100543938D01*
X118059458Y-100569658D01*
X118046400Y-100570800D01*
X117718299Y-100570800D01*
X117669961Y-100553207D01*
X117644241Y-100508658D01*
X117643099Y-100495600D01*
X117643099Y-100387784D01*
X117642933Y-100386023D01*
X117640529Y-100360582D01*
X117640528Y-100360579D01*
X117640098Y-100356025D01*
X117638579Y-100351697D01*
X117596757Y-100232608D01*
X117594894Y-100227302D01*
X117591556Y-100222783D01*
X117591554Y-100222779D01*
X117517175Y-100122080D01*
X117513838Y-100117562D01*
X117500009Y-100107348D01*
X117408621Y-100039846D01*
X117408617Y-100039844D01*
X117404098Y-100036506D01*
X117275375Y-99991302D01*
X117270812Y-99990871D01*
X117270809Y-99990870D01*
X117245377Y-99988466D01*
X117245369Y-99988466D01*
X117243617Y-99988300D01*
X116777956Y-99988300D01*
X116310184Y-99988301D01*
X116308430Y-99988467D01*
X116308424Y-99988467D01*
X116282982Y-99990871D01*
X116282979Y-99990872D01*
X116278425Y-99991302D01*
X116274107Y-99992818D01*
X116274104Y-99992819D01*
X116206911Y-100016416D01*
X116149702Y-100036506D01*
X116145183Y-100039844D01*
X116145179Y-100039846D01*
X116053791Y-100107348D01*
X116039962Y-100117562D01*
X116036625Y-100122080D01*
X115962246Y-100222779D01*
X115962244Y-100222783D01*
X115958906Y-100227302D01*
X115913702Y-100356025D01*
X115910700Y-100387783D01*
X114567693Y-100387783D01*
X114562214Y-100337349D01*
X114560050Y-100328245D01*
X114512907Y-100202491D01*
X114507817Y-100193194D01*
X114427657Y-100086236D01*
X114420164Y-100078743D01*
X114313206Y-99998583D01*
X114303909Y-99993493D01*
X114178156Y-99946350D01*
X114169049Y-99944185D01*
X114114139Y-99938220D01*
X114110073Y-99938000D01*
X114046159Y-99938000D01*
X114036002Y-99941697D01*
X114032900Y-99947069D01*
X114032900Y-100697741D01*
X113270900Y-100697741D01*
X113270900Y-99951260D01*
X113267203Y-99941103D01*
X113261831Y-99938001D01*
X113193729Y-99938001D01*
X113189660Y-99938221D01*
X113134749Y-99944186D01*
X113125645Y-99946350D01*
X112999891Y-99993493D01*
X112990594Y-99998583D01*
X112883636Y-100078743D01*
X112876143Y-100086236D01*
X112795983Y-100193194D01*
X112790893Y-100202491D01*
X112743750Y-100328244D01*
X112741585Y-100337351D01*
X112735620Y-100392261D01*
X112735400Y-100396327D01*
X112735400Y-100697741D01*
X110547153Y-100697741D01*
X110461747Y-100630412D01*
X110461744Y-100630410D01*
X110459042Y-100628280D01*
X110455995Y-100626677D01*
X110455992Y-100626675D01*
X110274440Y-100531156D01*
X110274439Y-100531156D01*
X110271393Y-100529553D01*
X110246527Y-100521832D01*
X110072184Y-100467697D01*
X110072181Y-100467696D01*
X110068895Y-100466676D01*
X110065475Y-100466271D01*
X110065474Y-100466271D01*
X110026811Y-100461695D01*
X109896739Y-100446300D01*
X109574207Y-100446300D01*
X109572513Y-100446456D01*
X109572506Y-100446456D01*
X109511626Y-100452050D01*
X109416854Y-100460759D01*
X109212779Y-100518314D01*
X109209691Y-100519837D01*
X109209688Y-100519838D01*
X109139914Y-100554247D01*
X109022611Y-100612094D01*
X108852717Y-100738960D01*
X108740247Y-100860630D01*
X108736997Y-100864146D01*
X108691266Y-100887699D01*
X108681776Y-100888300D01*
X103685027Y-100888300D01*
X103636689Y-100870707D01*
X103626753Y-100860630D01*
X103623620Y-100856789D01*
X103623618Y-100856787D01*
X103621292Y-100853935D01*
X103618459Y-100851591D01*
X103464905Y-100724560D01*
X103464901Y-100724557D01*
X103462072Y-100722217D01*
X103280301Y-100623933D01*
X103232168Y-100609034D01*
X103086414Y-100563915D01*
X103086410Y-100563914D01*
X103082901Y-100562828D01*
X102940612Y-100547873D01*
X102881047Y-100541612D01*
X102881045Y-100541612D01*
X102877392Y-100541228D01*
X102774497Y-100550592D01*
X102675259Y-100559623D01*
X102675258Y-100559623D01*
X102671601Y-100559956D01*
X102668076Y-100560993D01*
X102668073Y-100560994D01*
X102499634Y-100610569D01*
X102473367Y-100618300D01*
X102290241Y-100714036D01*
X102280066Y-100722217D01*
X102132069Y-100841209D01*
X102132065Y-100841213D01*
X102129198Y-100843518D01*
X102126830Y-100846340D01*
X102126829Y-100846341D01*
X101998735Y-100998996D01*
X101998732Y-100999000D01*
X101996371Y-101001814D01*
X101994600Y-101005036D01*
X101994599Y-101005037D01*
X101941738Y-101101191D01*
X101896821Y-101182895D01*
X101834339Y-101379864D01*
X101811305Y-101585217D01*
X100482400Y-101585217D01*
X100482400Y-99150906D01*
X108472929Y-99150906D01*
X108508837Y-99359879D01*
X108582226Y-99558809D01*
X108690638Y-99741033D01*
X108830443Y-99900450D01*
X108833150Y-99902584D01*
X108833152Y-99902586D01*
X108994253Y-100029588D01*
X108994256Y-100029590D01*
X108996958Y-100031720D01*
X109000005Y-100033323D01*
X109000008Y-100033325D01*
X109168704Y-100122080D01*
X109184607Y-100130447D01*
X109187892Y-100131467D01*
X109383816Y-100192303D01*
X109383819Y-100192304D01*
X109387105Y-100193324D01*
X109390525Y-100193729D01*
X109390526Y-100193729D01*
X109424963Y-100197805D01*
X109559261Y-100213700D01*
X109881793Y-100213700D01*
X109883487Y-100213544D01*
X109883494Y-100213544D01*
X109944374Y-100207950D01*
X110039146Y-100199241D01*
X110243221Y-100141686D01*
X110246309Y-100140163D01*
X110246312Y-100140162D01*
X110370857Y-100078743D01*
X110433389Y-100047906D01*
X110603283Y-99921040D01*
X110747213Y-99765337D01*
X110764419Y-99738068D01*
X110782770Y-99708983D01*
X110860358Y-99586013D01*
X110861634Y-99582816D01*
X110861636Y-99582811D01*
X110937650Y-99392281D01*
X110937651Y-99392278D01*
X110938930Y-99389072D01*
X110944095Y-99363109D01*
X110979623Y-99184494D01*
X110980296Y-99181111D01*
X110983071Y-98969094D01*
X110972337Y-98906622D01*
X110947746Y-98763513D01*
X110947746Y-98763511D01*
X110947163Y-98760121D01*
X110873774Y-98561191D01*
X110765362Y-98378967D01*
X110625557Y-98219550D01*
X110596821Y-98196896D01*
X110461747Y-98090412D01*
X110461744Y-98090410D01*
X110459042Y-98088280D01*
X110455995Y-98086677D01*
X110455992Y-98086675D01*
X110274440Y-97991156D01*
X110274439Y-97991156D01*
X110271393Y-97989553D01*
X110257471Y-97985230D01*
X110072184Y-97927697D01*
X110072181Y-97927696D01*
X110068895Y-97926676D01*
X110065475Y-97926271D01*
X110065474Y-97926271D01*
X110026811Y-97921695D01*
X109896739Y-97906300D01*
X109574207Y-97906300D01*
X109572513Y-97906456D01*
X109572506Y-97906456D01*
X109511626Y-97912050D01*
X109416854Y-97920759D01*
X109212779Y-97978314D01*
X109209691Y-97979837D01*
X109209688Y-97979838D01*
X109115578Y-98026248D01*
X109022611Y-98072094D01*
X108852717Y-98198960D01*
X108708787Y-98354663D01*
X108706952Y-98357572D01*
X108706950Y-98357574D01*
X108673230Y-98411017D01*
X108595642Y-98533987D01*
X108594366Y-98537184D01*
X108594364Y-98537189D01*
X108557457Y-98629698D01*
X108517070Y-98730928D01*
X108516397Y-98734309D01*
X108516396Y-98734314D01*
X108491737Y-98858284D01*
X108475704Y-98938889D01*
X108472929Y-99150906D01*
X100482400Y-99150906D01*
X100482400Y-96610906D01*
X108472929Y-96610906D01*
X108473512Y-96614297D01*
X108473512Y-96614301D01*
X108492821Y-96726672D01*
X108508837Y-96819879D01*
X108582226Y-97018809D01*
X108690638Y-97201033D01*
X108830443Y-97360450D01*
X108833150Y-97362584D01*
X108833152Y-97362586D01*
X108994253Y-97489588D01*
X108994256Y-97489590D01*
X108996958Y-97491720D01*
X109000005Y-97493323D01*
X109000008Y-97493325D01*
X109027722Y-97507906D01*
X109184607Y-97590447D01*
X109187892Y-97591467D01*
X109383816Y-97652303D01*
X109383819Y-97652304D01*
X109387105Y-97653324D01*
X109390525Y-97653729D01*
X109390526Y-97653729D01*
X109424963Y-97657805D01*
X109559261Y-97673700D01*
X109881793Y-97673700D01*
X109883487Y-97673544D01*
X109883494Y-97673544D01*
X109944374Y-97667950D01*
X110039146Y-97659241D01*
X110243221Y-97601686D01*
X110246309Y-97600163D01*
X110246312Y-97600162D01*
X110340422Y-97553752D01*
X110433389Y-97507906D01*
X110603283Y-97381040D01*
X110747213Y-97225337D01*
X110764419Y-97198068D01*
X110818372Y-97112557D01*
X110860358Y-97046013D01*
X110861634Y-97042816D01*
X110861636Y-97042811D01*
X110937650Y-96852281D01*
X110937651Y-96852278D01*
X110938930Y-96849072D01*
X110939725Y-96845080D01*
X110979623Y-96644494D01*
X110980296Y-96641111D01*
X110983071Y-96429094D01*
X110947163Y-96220121D01*
X110873774Y-96021191D01*
X110765362Y-95838967D01*
X110716544Y-95783301D01*
X110627833Y-95682145D01*
X110627832Y-95682144D01*
X110625557Y-95679550D01*
X110602651Y-95661492D01*
X110461747Y-95550412D01*
X110461744Y-95550410D01*
X110459042Y-95548280D01*
X110455995Y-95546677D01*
X110455992Y-95546675D01*
X110274440Y-95451156D01*
X110274439Y-95451156D01*
X110271393Y-95449553D01*
X110257471Y-95445230D01*
X110072184Y-95387697D01*
X110072181Y-95387696D01*
X110068895Y-95386676D01*
X110065475Y-95386271D01*
X110065474Y-95386271D01*
X110026811Y-95381695D01*
X109896739Y-95366300D01*
X109574207Y-95366300D01*
X109572513Y-95366456D01*
X109572506Y-95366456D01*
X109511626Y-95372050D01*
X109416854Y-95380759D01*
X109212779Y-95438314D01*
X109209691Y-95439837D01*
X109209688Y-95439838D01*
X109115578Y-95486248D01*
X109022611Y-95532094D01*
X108852717Y-95658960D01*
X108708787Y-95814663D01*
X108706952Y-95817572D01*
X108706950Y-95817574D01*
X108677425Y-95864368D01*
X108595642Y-95993987D01*
X108594366Y-95997184D01*
X108594364Y-95997189D01*
X108518350Y-96187719D01*
X108517070Y-96190928D01*
X108516397Y-96194309D01*
X108516396Y-96194314D01*
X108511263Y-96220121D01*
X108475704Y-96398889D01*
X108472929Y-96610906D01*
X100482400Y-96610906D01*
X100482400Y-94070906D01*
X108472929Y-94070906D01*
X108508837Y-94279879D01*
X108582226Y-94478809D01*
X108690638Y-94661033D01*
X108830443Y-94820450D01*
X108833150Y-94822584D01*
X108833152Y-94822586D01*
X108994253Y-94949588D01*
X108994256Y-94949590D01*
X108996958Y-94951720D01*
X109000005Y-94953323D01*
X109000008Y-94953325D01*
X109027722Y-94967906D01*
X109184607Y-95050447D01*
X109187892Y-95051467D01*
X109383816Y-95112303D01*
X109383819Y-95112304D01*
X109387105Y-95113324D01*
X109390525Y-95113729D01*
X109390526Y-95113729D01*
X109424963Y-95117805D01*
X109559261Y-95133700D01*
X109881793Y-95133700D01*
X109883487Y-95133544D01*
X109883494Y-95133544D01*
X109944374Y-95127950D01*
X110039146Y-95119241D01*
X110243221Y-95061686D01*
X110246309Y-95060163D01*
X110246312Y-95060162D01*
X110340422Y-95013752D01*
X110433389Y-94967906D01*
X110603283Y-94841040D01*
X110747213Y-94685337D01*
X110764419Y-94658068D01*
X110782770Y-94628983D01*
X110860358Y-94506013D01*
X110861634Y-94502816D01*
X110861636Y-94502811D01*
X110937650Y-94312281D01*
X110937651Y-94312278D01*
X110938930Y-94309072D01*
X110944095Y-94283109D01*
X110979623Y-94104494D01*
X110980296Y-94101111D01*
X110983071Y-93889094D01*
X110947163Y-93680121D01*
X110873774Y-93481191D01*
X110765362Y-93298967D01*
X110625557Y-93139550D01*
X110596821Y-93116896D01*
X110461747Y-93010412D01*
X110461744Y-93010410D01*
X110459042Y-93008280D01*
X110455995Y-93006677D01*
X110455992Y-93006675D01*
X110274440Y-92911156D01*
X110274439Y-92911156D01*
X110271393Y-92909553D01*
X110257471Y-92905230D01*
X110072184Y-92847697D01*
X110072181Y-92847696D01*
X110068895Y-92846676D01*
X110065475Y-92846271D01*
X110065474Y-92846271D01*
X110026811Y-92841695D01*
X109896739Y-92826300D01*
X109574207Y-92826300D01*
X109572513Y-92826456D01*
X109572506Y-92826456D01*
X109511626Y-92832050D01*
X109416854Y-92840759D01*
X109212779Y-92898314D01*
X109209691Y-92899837D01*
X109209688Y-92899838D01*
X109115578Y-92946248D01*
X109022611Y-92992094D01*
X108852717Y-93118960D01*
X108708787Y-93274663D01*
X108706952Y-93277572D01*
X108706950Y-93277574D01*
X108673230Y-93331017D01*
X108595642Y-93453987D01*
X108594366Y-93457184D01*
X108594364Y-93457189D01*
X108518350Y-93647719D01*
X108517070Y-93650928D01*
X108516397Y-93654309D01*
X108516396Y-93654314D01*
X108511263Y-93680121D01*
X108475704Y-93858889D01*
X108472929Y-94070906D01*
X100482400Y-94070906D01*
X100482400Y-91530906D01*
X108472929Y-91530906D01*
X108508837Y-91739879D01*
X108582226Y-91938809D01*
X108690638Y-92121033D01*
X108830443Y-92280450D01*
X108833150Y-92282584D01*
X108833152Y-92282586D01*
X108994253Y-92409588D01*
X108994256Y-92409590D01*
X108996958Y-92411720D01*
X109000005Y-92413323D01*
X109000008Y-92413325D01*
X109027722Y-92427906D01*
X109184607Y-92510447D01*
X109187892Y-92511467D01*
X109383816Y-92572303D01*
X109383819Y-92572304D01*
X109387105Y-92573324D01*
X109390525Y-92573729D01*
X109390526Y-92573729D01*
X109424963Y-92577805D01*
X109559261Y-92593700D01*
X109881793Y-92593700D01*
X109883487Y-92593544D01*
X109883494Y-92593544D01*
X109944374Y-92587950D01*
X110039146Y-92579241D01*
X110243221Y-92521686D01*
X110246309Y-92520163D01*
X110246312Y-92520162D01*
X110340422Y-92473752D01*
X110433389Y-92427906D01*
X110603283Y-92301040D01*
X110747213Y-92145337D01*
X110764419Y-92118068D01*
X110782770Y-92088983D01*
X110860358Y-91966013D01*
X110861634Y-91962816D01*
X110861636Y-91962811D01*
X110937650Y-91772281D01*
X110937651Y-91772278D01*
X110938930Y-91769072D01*
X110944095Y-91743109D01*
X110979623Y-91564494D01*
X110980296Y-91561111D01*
X110980691Y-91530906D01*
X128792929Y-91530906D01*
X128828837Y-91739879D01*
X128902226Y-91938809D01*
X129010638Y-92121033D01*
X129150443Y-92280450D01*
X129153150Y-92282584D01*
X129153152Y-92282586D01*
X129314253Y-92409588D01*
X129314256Y-92409590D01*
X129316958Y-92411720D01*
X129320005Y-92413323D01*
X129320008Y-92413325D01*
X129347722Y-92427906D01*
X129504607Y-92510447D01*
X129507892Y-92511467D01*
X129703816Y-92572303D01*
X129703819Y-92572304D01*
X129707105Y-92573324D01*
X129710525Y-92573729D01*
X129710526Y-92573729D01*
X129744963Y-92577805D01*
X129879261Y-92593700D01*
X130201793Y-92593700D01*
X130203487Y-92593544D01*
X130203494Y-92593544D01*
X130264374Y-92587950D01*
X130359146Y-92579241D01*
X130563221Y-92521686D01*
X130566309Y-92520163D01*
X130566312Y-92520162D01*
X130660422Y-92473752D01*
X130753389Y-92427906D01*
X130923283Y-92301040D01*
X131067213Y-92145337D01*
X131084419Y-92118068D01*
X131102770Y-92088983D01*
X131180358Y-91966013D01*
X131181634Y-91962816D01*
X131181636Y-91962811D01*
X131257650Y-91772281D01*
X131257651Y-91772278D01*
X131258930Y-91769072D01*
X131264095Y-91743109D01*
X131299623Y-91564494D01*
X131300296Y-91561111D01*
X131303071Y-91349094D01*
X131267163Y-91140121D01*
X131193774Y-90941191D01*
X131085362Y-90758967D01*
X130945557Y-90599550D01*
X130916821Y-90576896D01*
X130781747Y-90470412D01*
X130781744Y-90470410D01*
X130779042Y-90468280D01*
X130775995Y-90466677D01*
X130775992Y-90466675D01*
X130594440Y-90371156D01*
X130594439Y-90371156D01*
X130591393Y-90369553D01*
X130577471Y-90365230D01*
X130392184Y-90307697D01*
X130392181Y-90307696D01*
X130388895Y-90306676D01*
X130385475Y-90306271D01*
X130385474Y-90306271D01*
X130346811Y-90301695D01*
X130216739Y-90286300D01*
X129894207Y-90286300D01*
X129892513Y-90286456D01*
X129892506Y-90286456D01*
X129831626Y-90292050D01*
X129736854Y-90300759D01*
X129532779Y-90358314D01*
X129529691Y-90359837D01*
X129529688Y-90359838D01*
X129435578Y-90406248D01*
X129342611Y-90452094D01*
X129172717Y-90578960D01*
X129028787Y-90734663D01*
X129026952Y-90737572D01*
X129026950Y-90737574D01*
X128993230Y-90791017D01*
X128915642Y-90913987D01*
X128914366Y-90917184D01*
X128914364Y-90917189D01*
X128903498Y-90944425D01*
X128837070Y-91110928D01*
X128836397Y-91114309D01*
X128836396Y-91114314D01*
X128831263Y-91140121D01*
X128795704Y-91318889D01*
X128792929Y-91530906D01*
X110980691Y-91530906D01*
X110983071Y-91349094D01*
X110947163Y-91140121D01*
X110873774Y-90941191D01*
X110765362Y-90758967D01*
X110625557Y-90599550D01*
X110596821Y-90576896D01*
X110461747Y-90470412D01*
X110461744Y-90470410D01*
X110459042Y-90468280D01*
X110455995Y-90466677D01*
X110455992Y-90466675D01*
X110274440Y-90371156D01*
X110274439Y-90371156D01*
X110271393Y-90369553D01*
X110257471Y-90365230D01*
X110072184Y-90307697D01*
X110072181Y-90307696D01*
X110068895Y-90306676D01*
X110065475Y-90306271D01*
X110065474Y-90306271D01*
X110026811Y-90301695D01*
X109896739Y-90286300D01*
X109574207Y-90286300D01*
X109572513Y-90286456D01*
X109572506Y-90286456D01*
X109511626Y-90292050D01*
X109416854Y-90300759D01*
X109212779Y-90358314D01*
X109209691Y-90359837D01*
X109209688Y-90359838D01*
X109115578Y-90406248D01*
X109022611Y-90452094D01*
X108852717Y-90578960D01*
X108708787Y-90734663D01*
X108706952Y-90737572D01*
X108706950Y-90737574D01*
X108673230Y-90791017D01*
X108595642Y-90913987D01*
X108594366Y-90917184D01*
X108594364Y-90917189D01*
X108583498Y-90944425D01*
X108517070Y-91110928D01*
X108516397Y-91114309D01*
X108516396Y-91114314D01*
X108511263Y-91140121D01*
X108475704Y-91318889D01*
X108472929Y-91530906D01*
X100482400Y-91530906D01*
X100482400Y-89771319D01*
X101766001Y-89771319D01*
X101766723Y-89778644D01*
X101779292Y-89841840D01*
X101784852Y-89855264D01*
X101832764Y-89926970D01*
X101843030Y-89937236D01*
X101914738Y-89985149D01*
X101928157Y-89990708D01*
X101991358Y-90003279D01*
X101998679Y-90004000D01*
X102475741Y-90004000D01*
X102485898Y-90000303D01*
X102489000Y-89994931D01*
X102489000Y-89990740D01*
X103251000Y-89990740D01*
X103254697Y-90000897D01*
X103260069Y-90003999D01*
X103741319Y-90003999D01*
X103748644Y-90003277D01*
X103811840Y-89990708D01*
X103825264Y-89985148D01*
X103896970Y-89937236D01*
X103907236Y-89926970D01*
X103945259Y-89870064D01*
X108474300Y-89870064D01*
X108486119Y-89929480D01*
X108531140Y-89996860D01*
X108598520Y-90041881D01*
X108657936Y-90053700D01*
X110798064Y-90053700D01*
X110857480Y-90041881D01*
X110924860Y-89996860D01*
X110969881Y-89929480D01*
X110981700Y-89870064D01*
X110981700Y-87929936D01*
X110969881Y-87870520D01*
X110924860Y-87803140D01*
X110857480Y-87758119D01*
X110798064Y-87746300D01*
X108657936Y-87746300D01*
X108598520Y-87758119D01*
X108531140Y-87803140D01*
X108486119Y-87870520D01*
X108474300Y-87929936D01*
X108474300Y-89870064D01*
X103945259Y-89870064D01*
X103955149Y-89855262D01*
X103960708Y-89841843D01*
X103973279Y-89778642D01*
X103974000Y-89771321D01*
X103974000Y-89294259D01*
X103970303Y-89284102D01*
X103964931Y-89281000D01*
X103264259Y-89281000D01*
X103254102Y-89284697D01*
X103251000Y-89290069D01*
X103251000Y-89990740D01*
X102489000Y-89990740D01*
X102489000Y-89294259D01*
X102485303Y-89284102D01*
X102479931Y-89281000D01*
X101779260Y-89281000D01*
X101769103Y-89284697D01*
X101766001Y-89290069D01*
X101766001Y-89771319D01*
X100482400Y-89771319D01*
X100482400Y-88505741D01*
X101766000Y-88505741D01*
X101769697Y-88515898D01*
X101775069Y-88519000D01*
X102475741Y-88519000D01*
X102485898Y-88515303D01*
X102489000Y-88509931D01*
X102489000Y-88505741D01*
X103251000Y-88505741D01*
X103254697Y-88515898D01*
X103260069Y-88519000D01*
X103960740Y-88519000D01*
X103970897Y-88515303D01*
X103973999Y-88509931D01*
X103973999Y-88028681D01*
X103973277Y-88021356D01*
X103960708Y-87958160D01*
X103955148Y-87944736D01*
X103907236Y-87873030D01*
X103896970Y-87862764D01*
X103825262Y-87814851D01*
X103811843Y-87809292D01*
X103748642Y-87796721D01*
X103741321Y-87796000D01*
X103264259Y-87796000D01*
X103254102Y-87799697D01*
X103251000Y-87805069D01*
X103251000Y-88505741D01*
X102489000Y-88505741D01*
X102489000Y-87809260D01*
X102485303Y-87799103D01*
X102479931Y-87796001D01*
X101998681Y-87796001D01*
X101991356Y-87796723D01*
X101928160Y-87809292D01*
X101914736Y-87814852D01*
X101843030Y-87862764D01*
X101832764Y-87873030D01*
X101784851Y-87944738D01*
X101779292Y-87958157D01*
X101766721Y-88021358D01*
X101766000Y-88028679D01*
X101766000Y-88505741D01*
X100482400Y-88505741D01*
X100482400Y-86345217D01*
X101811305Y-86345217D01*
X101828596Y-86551133D01*
X101885555Y-86749770D01*
X101980010Y-86933560D01*
X102108364Y-87095503D01*
X102265730Y-87229431D01*
X102268941Y-87231225D01*
X102268943Y-87231227D01*
X102442900Y-87328449D01*
X102442905Y-87328451D01*
X102446111Y-87330243D01*
X102642639Y-87394099D01*
X102755982Y-87407614D01*
X102844168Y-87418130D01*
X102844170Y-87418130D01*
X102847826Y-87418566D01*
X103053858Y-87402712D01*
X103252887Y-87347143D01*
X103437332Y-87253973D01*
X103600168Y-87126752D01*
X103735191Y-86970325D01*
X103737007Y-86967128D01*
X103737010Y-86967124D01*
X103764202Y-86919256D01*
X103803375Y-86885916D01*
X103829588Y-86881200D01*
X127260964Y-86881200D01*
X127309302Y-86898793D01*
X127314138Y-86903226D01*
X128843327Y-88432415D01*
X128865067Y-88479035D01*
X128860000Y-88513453D01*
X128837070Y-88570928D01*
X128836397Y-88574309D01*
X128836396Y-88574314D01*
X128831263Y-88600121D01*
X128795704Y-88778889D01*
X128792929Y-88990906D01*
X128828837Y-89199879D01*
X128902226Y-89398809D01*
X129010638Y-89581033D01*
X129150443Y-89740450D01*
X129153150Y-89742584D01*
X129153152Y-89742586D01*
X129314253Y-89869588D01*
X129314256Y-89869590D01*
X129316958Y-89871720D01*
X129320005Y-89873323D01*
X129320008Y-89873325D01*
X129441483Y-89937236D01*
X129504607Y-89970447D01*
X129507892Y-89971467D01*
X129703816Y-90032303D01*
X129703819Y-90032304D01*
X129707105Y-90033324D01*
X129710525Y-90033729D01*
X129710526Y-90033729D01*
X129744627Y-90037765D01*
X129879261Y-90053700D01*
X130201793Y-90053700D01*
X130203487Y-90053544D01*
X130203494Y-90053544D01*
X130264374Y-90047950D01*
X130359146Y-90039241D01*
X130563221Y-89981686D01*
X130566309Y-89980163D01*
X130566312Y-89980162D01*
X130683819Y-89922214D01*
X130753389Y-89887906D01*
X130923283Y-89761040D01*
X131067213Y-89605337D01*
X131084419Y-89578068D01*
X131102770Y-89548983D01*
X131180358Y-89426013D01*
X131181634Y-89422816D01*
X131181636Y-89422811D01*
X131257650Y-89232281D01*
X131257651Y-89232278D01*
X131258930Y-89229072D01*
X131264095Y-89203109D01*
X131299623Y-89024494D01*
X131300296Y-89021111D01*
X131303071Y-88809094D01*
X131267163Y-88600121D01*
X131193774Y-88401191D01*
X131085362Y-88218967D01*
X130945557Y-88059550D01*
X130906400Y-88028681D01*
X130781747Y-87930412D01*
X130781744Y-87930410D01*
X130779042Y-87928280D01*
X130775995Y-87926677D01*
X130775992Y-87926675D01*
X130594440Y-87831156D01*
X130594439Y-87831156D01*
X130591393Y-87829553D01*
X130526039Y-87809260D01*
X130392184Y-87767697D01*
X130392181Y-87767696D01*
X130388895Y-87766676D01*
X130385475Y-87766271D01*
X130385474Y-87766271D01*
X130346819Y-87761696D01*
X130216739Y-87746300D01*
X129894207Y-87746300D01*
X129892513Y-87746456D01*
X129892506Y-87746456D01*
X129831626Y-87752050D01*
X129736854Y-87760759D01*
X129733538Y-87761694D01*
X129733528Y-87761696D01*
X129708288Y-87768815D01*
X129656990Y-87765004D01*
X129634701Y-87749613D01*
X127885944Y-86000856D01*
X127883763Y-85998583D01*
X127846819Y-85958406D01*
X127846817Y-85958404D01*
X127843349Y-85954633D01*
X127838993Y-85951932D01*
X127838989Y-85951929D01*
X127806573Y-85931831D01*
X127800747Y-85927828D01*
X127766264Y-85901654D01*
X127749368Y-85894965D01*
X127737427Y-85888959D01*
X127726342Y-85882086D01*
X127726341Y-85882086D01*
X127721984Y-85879384D01*
X127680431Y-85867312D01*
X127673731Y-85865017D01*
X127638262Y-85850974D01*
X127638258Y-85850973D01*
X127633492Y-85849086D01*
X127628393Y-85848550D01*
X127615417Y-85847186D01*
X127602305Y-85844614D01*
X127584854Y-85839544D01*
X127574723Y-85838800D01*
X127539563Y-85838800D01*
X127531703Y-85838388D01*
X127525604Y-85837747D01*
X127491475Y-85834160D01*
X127486420Y-85835015D01*
X127470267Y-85837747D01*
X127457726Y-85838800D01*
X103831497Y-85838800D01*
X103783159Y-85821207D01*
X103765101Y-85798906D01*
X103751895Y-85774070D01*
X103621292Y-85613935D01*
X103605909Y-85601209D01*
X103464905Y-85484560D01*
X103464901Y-85484557D01*
X103462072Y-85482217D01*
X103280301Y-85383933D01*
X103232168Y-85369034D01*
X103086414Y-85323915D01*
X103086410Y-85323914D01*
X103082901Y-85322828D01*
X102940612Y-85307873D01*
X102881047Y-85301612D01*
X102881045Y-85301612D01*
X102877392Y-85301228D01*
X102774497Y-85310592D01*
X102675259Y-85319623D01*
X102675258Y-85319623D01*
X102671601Y-85319956D01*
X102668076Y-85320993D01*
X102668073Y-85320994D01*
X102476897Y-85377261D01*
X102473367Y-85378300D01*
X102290241Y-85474036D01*
X102280066Y-85482217D01*
X102132069Y-85601209D01*
X102132065Y-85601213D01*
X102129198Y-85603518D01*
X102126830Y-85606340D01*
X102126829Y-85606341D01*
X101998735Y-85758996D01*
X101998732Y-85759000D01*
X101996371Y-85761814D01*
X101994600Y-85765036D01*
X101994599Y-85765037D01*
X101924529Y-85892494D01*
X101896821Y-85942895D01*
X101834339Y-86139864D01*
X101811305Y-86345217D01*
X100482400Y-86345217D01*
X100482400Y-83805217D01*
X101811305Y-83805217D01*
X101811613Y-83808885D01*
X101811613Y-83808888D01*
X101814852Y-83847459D01*
X101828596Y-84011133D01*
X101885555Y-84209770D01*
X101980010Y-84393560D01*
X102108364Y-84555503D01*
X102265730Y-84689431D01*
X102268941Y-84691225D01*
X102268943Y-84691227D01*
X102442900Y-84788449D01*
X102442905Y-84788451D01*
X102446111Y-84790243D01*
X102642639Y-84854099D01*
X102755982Y-84867614D01*
X102844168Y-84878130D01*
X102844170Y-84878130D01*
X102847826Y-84878566D01*
X103053858Y-84862712D01*
X103252887Y-84807143D01*
X103437332Y-84713973D01*
X103600168Y-84586752D01*
X103627141Y-84555503D01*
X103732786Y-84433112D01*
X103732789Y-84433108D01*
X103735191Y-84430325D01*
X103837260Y-84250652D01*
X103902486Y-84054575D01*
X103928385Y-83849563D01*
X103928798Y-83820000D01*
X103928593Y-83817907D01*
X103908993Y-83618013D01*
X103908992Y-83618010D01*
X103908633Y-83614345D01*
X103848907Y-83416523D01*
X103751895Y-83234070D01*
X103621292Y-83073935D01*
X103605909Y-83061209D01*
X103464905Y-82944560D01*
X103464901Y-82944557D01*
X103462072Y-82942217D01*
X103280301Y-82843933D01*
X103232168Y-82829034D01*
X103086414Y-82783915D01*
X103086410Y-82783914D01*
X103082901Y-82782828D01*
X102940612Y-82767873D01*
X102881047Y-82761612D01*
X102881045Y-82761612D01*
X102877392Y-82761228D01*
X102774496Y-82770592D01*
X102675259Y-82779623D01*
X102675258Y-82779623D01*
X102671601Y-82779956D01*
X102668076Y-82780993D01*
X102668073Y-82780994D01*
X102476897Y-82837261D01*
X102473367Y-82838300D01*
X102290241Y-82934036D01*
X102280066Y-82942217D01*
X102132069Y-83061209D01*
X102132065Y-83061213D01*
X102129198Y-83063518D01*
X102126830Y-83066340D01*
X102126829Y-83066341D01*
X101998735Y-83218996D01*
X101998732Y-83219000D01*
X101996371Y-83221814D01*
X101896821Y-83402895D01*
X101834339Y-83599864D01*
X101811305Y-83805217D01*
X100482400Y-83805217D01*
X100482400Y-81507600D01*
X100499993Y-81459262D01*
X100544542Y-81433542D01*
X100557600Y-81432400D01*
X133122400Y-81432400D01*
X133170738Y-81449993D01*
G37*
%TD.AperFunction*%
%TD*%
M02*
