M48
; DRILL file {KiCad (6.0.0)} date Fri Jan  7 23:51:14 2022
; FORMAT={-:-/ absolute / inch / decimal}
; #@! TF.CreationDate,2022-01-07T23:51:14+01:00
; #@! TF.GenerationSoftware,Kicad,Pcbnew,(6.0.0)
; #@! TF.FileFunction,Plated,1,2,PTH
FMAT,2
INCH
; #@! TA.AperFunction,Plated,PTH,ViaDrill
T1C0.0160
; #@! TA.AperFunction,Plated,PTH,ComponentDrill
T2C0.0315
; #@! TA.AperFunction,Plated,PTH,ComponentDrill
T3C0.0394
; #@! TA.AperFunction,Plated,PTH,ComponentDrill
T4C0.0402
%
G90
G05
T1
X4.534Y-4.332
X4.672Y-3.98
T2
X4.0705Y-4.85
X4.0705Y-5.15
X4.2705Y-4.85
X4.2705Y-5.15
X4.652Y-5.0543
X4.652Y-5.1527
X4.998Y-5.0543
X4.998Y-5.1527
T3
X4.05Y-3.3
X4.05Y-3.4
X4.05Y-3.5
X4.05Y-4.0
X4.05Y-4.1
X4.05Y-4.2
T4
X4.32Y-3.5
X4.32Y-3.6
X4.32Y-3.7
X4.32Y-3.8
X4.32Y-3.9
X4.32Y-4.0
X4.32Y-4.1
X4.32Y-4.2
X4.32Y-4.3
X4.32Y-4.4
X5.12Y-3.5
X5.12Y-3.6
X5.12Y-3.7
X5.12Y-3.8
X5.12Y-3.9
X5.12Y-4.0
X5.12Y-4.1
X5.12Y-4.2
X5.12Y-4.3
X5.12Y-4.4
T3
G00X4.1388Y-5.3856
M15
G01X4.1388Y-5.4644
M16
G05
G00X4.2175Y-5.61
M15
G01X4.2963Y-5.61
M16
G05
G00X4.375Y-5.3856
M15
G01X4.375Y-5.4644
M16
G05
T0
M30
